<mxfile host="app.diagrams.net" modified="2024-06-15T00:35:36.692Z" agent="Mozilla/5.0 (Windows NT 10.0; Win64; x64) AppleWebKit/537.36 (KHTML, like Gecko) Chrome/126.0.0.0 Safari/537.36" etag="_0iQLY-kI59skONQ3hwT" version="24.5.1" type="device">
  <diagram name="Página-1" id="qTG0eFn4V5ilA0CiejiT">
    <mxGraphModel dx="1434" dy="738" grid="1" gridSize="10" guides="1" tooltips="1" connect="1" arrows="1" fold="1" page="1" pageScale="1" pageWidth="1600" pageHeight="900" math="0" shadow="0">
      <root>
        <mxCell id="0" />
        <mxCell id="1" parent="0" />
        <mxCell id="i5Sq17mRc4E7U_H6DiuM-14" style="edgeStyle=orthogonalEdgeStyle;rounded=0;orthogonalLoop=1;jettySize=auto;html=1;entryX=0;entryY=0.5;entryDx=0;entryDy=0;strokeColor=#FFFFFF;" parent="1" source="i5Sq17mRc4E7U_H6DiuM-1" target="i5Sq17mRc4E7U_H6DiuM-10" edge="1">
          <mxGeometry relative="1" as="geometry" />
        </mxCell>
        <mxCell id="i5Sq17mRc4E7U_H6DiuM-1" value="" style="rounded=1;whiteSpace=wrap;html=1;fillColor=#f5f5f5;strokeColor=#666666;fillStyle=solid;fontColor=#333333;" parent="1" vertex="1">
          <mxGeometry x="80" y="5" width="200" height="229" as="geometry" />
        </mxCell>
        <mxCell id="i5Sq17mRc4E7U_H6DiuM-8" value="&lt;span style=&quot;font-size: 24px;&quot;&gt;&lt;b&gt;Áudio individual&lt;/b&gt;&lt;/span&gt;" style="text;html=1;align=center;verticalAlign=middle;whiteSpace=wrap;rounded=0;" parent="1" vertex="1">
          <mxGeometry x="100" y="24" width="160" height="60" as="geometry" />
        </mxCell>
        <mxCell id="i5Sq17mRc4E7U_H6DiuM-9" value="&lt;span style=&quot;font-size: 15px;&quot;&gt;&lt;b&gt;Áudio Individual &lt;/b&gt;enviado através da&lt;b&gt; plataforma web&lt;/b&gt;&lt;/span&gt;" style="text;html=1;align=center;verticalAlign=middle;whiteSpace=wrap;rounded=0;" parent="1" vertex="1">
          <mxGeometry x="80" y="109" width="200" height="180" as="geometry" />
        </mxCell>
        <mxCell id="i5Sq17mRc4E7U_H6DiuM-18" style="edgeStyle=orthogonalEdgeStyle;rounded=0;orthogonalLoop=1;jettySize=auto;html=1;entryX=0;entryY=0.5;entryDx=0;entryDy=0;strokeColor=#FFFFFF;" parent="1" source="i5Sq17mRc4E7U_H6DiuM-10" target="i5Sq17mRc4E7U_H6DiuM-16" edge="1">
          <mxGeometry relative="1" as="geometry" />
        </mxCell>
        <mxCell id="i5Sq17mRc4E7U_H6DiuM-10" value="" style="rounded=1;whiteSpace=wrap;html=1;fillColor=#dae8fc;strokeColor=#6c8ebf;fillStyle=auto;" parent="1" vertex="1">
          <mxGeometry x="357.5" y="5" width="200" height="230" as="geometry" />
        </mxCell>
        <mxCell id="i5Sq17mRc4E7U_H6DiuM-11" value="&lt;b&gt;&lt;font style=&quot;font-size: 18px;&quot;&gt;Armazenamento dos áudio individuais&lt;/font&gt;&lt;/b&gt;" style="text;html=1;align=center;verticalAlign=middle;whiteSpace=wrap;rounded=0;" parent="1" vertex="1">
          <mxGeometry x="377.5" y="20" width="160" height="60" as="geometry" />
        </mxCell>
        <mxCell id="i5Sq17mRc4E7U_H6DiuM-12" value="" style="shape=image;verticalLabelPosition=bottom;labelBackgroundColor=default;verticalAlign=top;aspect=fixed;imageAspect=0;image=https://estuary.dev/static/af2d249f72d99043c1683315b24d1c14/c0d5f/b5359d_image_12513891_300x300_15c289455c.png;" parent="1" vertex="1">
          <mxGeometry x="422.5" y="85" width="70" height="70" as="geometry" />
        </mxCell>
        <mxCell id="i5Sq17mRc4E7U_H6DiuM-13" value="&lt;font style=&quot;font-size: 15px;&quot;&gt;Os &lt;b&gt;áudios coletados na plataforma web&lt;/b&gt;&amp;nbsp;serão armazenados no &lt;b&gt;Google Cloud Storage&lt;/b&gt;&lt;/font&gt;" style="text;html=1;align=center;verticalAlign=middle;whiteSpace=wrap;rounded=0;" parent="1" vertex="1">
          <mxGeometry x="357.5" y="125" width="200" height="130" as="geometry" />
        </mxCell>
        <mxCell id="KWvplseUJ8ZIvvT5c59l-22" style="edgeStyle=orthogonalEdgeStyle;rounded=0;orthogonalLoop=1;jettySize=auto;html=1;strokeColor=#FFFFFF;" edge="1" parent="1" source="i5Sq17mRc4E7U_H6DiuM-16" target="KWvplseUJ8ZIvvT5c59l-10">
          <mxGeometry relative="1" as="geometry" />
        </mxCell>
        <mxCell id="i5Sq17mRc4E7U_H6DiuM-16" value="" style="rounded=1;whiteSpace=wrap;html=1;fillColor=#dae8fc;strokeColor=#6c8ebf;fillStyle=auto;" parent="1" vertex="1">
          <mxGeometry x="637.5" y="40" width="200" height="410" as="geometry" />
        </mxCell>
        <mxCell id="i5Sq17mRc4E7U_H6DiuM-19" value="&lt;b&gt;&lt;font style=&quot;font-size: 21px;&quot;&gt;Conversão de áudio para texto&lt;/font&gt;&lt;/b&gt;" style="text;html=1;align=center;verticalAlign=middle;whiteSpace=wrap;rounded=0;" parent="1" vertex="1">
          <mxGeometry x="657.5" y="60" width="160" height="60" as="geometry" />
        </mxCell>
        <mxCell id="i5Sq17mRc4E7U_H6DiuM-20" value="" style="shape=image;verticalLabelPosition=bottom;labelBackgroundColor=default;verticalAlign=top;aspect=fixed;imageAspect=0;image=data:image/png,iVBORw0KGgoAAAANSUhEUgAAAgAAAAIACAYAAAD0eNT6AAAACXBIWXMAAAsTAAALEwEAmpwYAAAAAXNSR0IArs4c6QAAAARnQU1BAACxjwv8YQUAAGLVSURBVHgB7d0HgFTV9T/wc+6bmZ2tFAGxYCxEjVhQid0IBmNJRDFx/4kxUSyAJcbejWMSFXsvYMGoMXFRQIwFG9gJLHbQ2EABRcAFtkx9757/eYvmp0ZlZnfezOzs96PLzuzu7E5588655zYiAAAAAAAAAAAAAAAAAAAAAAAAAAAAAAAAAAAAAAAAAAAAAAAAAAAAAAAAAAAAAAAAAAAAAAAAAAAAAAAAAAAAAAAAAAAAAAAAAAAAAAAAAAAAAAAAAAAAAAAAAAAAAAAAAAAAAAAAAAAAAAAAAAAAAAAAAAAAAAAAAAAAAAAAAAAAAAAAAAAAAAAAAAAAAAAAAAAAAAAAAAAAAAAAAAAAAAAAAAAAAAAAAAAAAAAAAAAAAAAAAAAAAAAAAAAAAAAAAAAAAAAAAAAAAAAAAAAAAAAAAAAAAAAAAAAAAAAAAAAAAAAAAAAAAAAAAAAAAAAAAAAAAAAAAAAAAAAAAAAAAAAAAAAAAAAAAAAAAAAAAAAAAAAAAAAAAAAAAAAAAAAAAAAAAAAAAAAAAAAAAAAAAAAAAAAAAAAAAAAAAAAAAAAAAAAAAAAAAAAAAAAAAAAAAAAAAAAAAAAAAAAAAAAAAAAAAAAAAAAAAAAAAAAAAAAAAAAAAAAAAICiYQLoJBExU16iPlThbq4H1FD9yjZiaaev/gwbmm1J3rRsnw2Z6JsHD6ZmZrYEADR8XFMPj0P92aVdmc0e+qXthaj3l99noY/13zeZ7HPkhGa560aXzRzFSQLoBCQA0ClPNkqPOHl7aBIw2jLtrdlAzffegCmtP/tUiJzxFRnnhf124yYC6KYObRCn6f3WLfTib/XNcbgIbbTWGzG/b6zcFDGhR+Ppig9nxjRtAOgAJADQYQ80prYMkTlOrPxOmHrlcltmWiVi79dLN7oLIm/X17NHAN3I0JjUcCh+mLbqT9Q3xDaUG1dP3q8SmavZST721Nm9VxNAjpAAQM60Bc8PzXF39ZjOYJLh+qWaDv6qtB6Cj+tReMXIHUMvapeAEEA3cMDlrf2TGTpCE+HjtdU/gDpyLtY3n/7zAVt7Q2+35tZJMU4TQA5CBJCjKW9QXyG5VM9Yu+tVhzouounEz5l4k2mv0n56/RMCKHPa8o+m3JajmMx5GvyrqKPETxpkoFYPLv28Iu4H/1sJIAeGAHLw0iKp5HR6vLZcfkKdC/5fcrSisI1n0+Mb5klHKwkAXQZXJA/Tw/5P2nzvePD/Cv/3sCdX7X1pYm8CyAESAMjJp8u8/bThcTDlm/AvQnHvFwRQxg68Uvqw2HM06a2gPBLWJMB6pw7VrgUCyBISAMjaI7OlP1sZTYGREx9uTKx9FDRAF9WWbjucRMv2AdBKwO4mLb8igCwhAYCsueTtxixbUXA2yUh4OAGUoT0vaemrUTqwKhcT1bExP933mrb1CCALSAAgKzNEQpbtyKzmKXeYrE9s953WKHnpGwUoJWHi/TRKb0EB0QqA0Y/BXtIE9jegvCABgKwsn0vraz/j+hQ41r+TKsDfASgs9miQdtb3pCAJ9Rd2MQ4AsoIEALKU7qGnsB4UMCbpba3pTQBlZFBMIuKYARqhA57pIlHyeAN/qiEBrAUSAMhKhccVJMGfVES4TrsBgm0lARRY35qWOqLCHNfM1KcnrUICAGuFBACy4hnuJcyBn8C0DzNk2MFxCWXFSRlnzcI9AKUDJ1rIjpDT/gEAOWOnOqlN8zYqAGvZTfXuiZ02Ya2QAAAABOyps3m1hubl5M+mDRKTx8YuTjRRnADWAgkAAEAhWP5Q/22lAGkfw+fGM4uwRTBkAwkAAEABsENv6b8rKEAitFgotIAAsoAEAACgAJ4+p+ZxYplDwUlogvHvTRdF3ieALCABAAAoECZ7i/6boUDwe9bahgkTgvr9UG6QAAAAFIiXrn2Zme6kAAjL38mreYEAsoQEAACgQPzBeR551wrxLMojIXkxEvVux+A/yAUSAACAApp5bt07THSCMM2kTmLiNDH/SypqDp5+ao8mAsgBEgAAgAJ75rzqV8TaC3hNEtBCHcKtQvYhS94ZM08PdnYBlCckAAAARTDz/LoXQhw6VgP51dqKz23kvvBcvc1FNuSc6lcUCKADQgQAAEUx/Zzo+/vH5OpERdssh2gf7czfU4h20G99y7Lb3KqRf75+PGbJPlW7Tu0rD49hrPgHHYYEAACgiB6LcbN+enzXqxc9W2F7VDvpin5svR9Zkr7Etj+xWSIeLQmR+17SMavi6Zq2uTEEfug8JAAAACXg5VMHJKh9MR/y+/PnE0DAMAYAAACgG0ICAAAA0A0hAQAAAOiGkAAAAAB0Q0gAAAAAuiEkAAAAAN0QEgAAAIBuCAkAAABAN4QEAAAAoBvCSoAAACVm/9jndVJR1fvL61wd/fSxkzhFAHmEBADgOzTMk0golfkRe7SzMG31tW8KL2GiOZmqUGP9IH+TFiiG/S+Lb5h2vT00RO7ytW+wrPbIzKmIui9NP7VHE3UB+16aHJix3lBm2SMtvDlZr/LL70lLW/NPL2ldxJafc1z3gemxrvGYoLQxAWRh8uzMfhoEJzJJfwqQEC8NGRp10I7hx6lIZsyQaFON9wvDcpyI/ZH2lFXrlyPf+DFX722bvoUW6wn7jkxl+B4kAoUxNCahUCi5i2X3NCaznZDtpa9R9Ks/o8epFaI2vbBMX5/JxiRvffKsvp9QCRoaW9nTVITPF8uH6P3Wx0I19C2NMybWvEASmnwuJ5Gbqt3mCQ/H1semQNBhSAAgK90hAZgxT2qaW1K7eiFzqd6RHXO5LTPNJzHjKiudR/bbmtE6C8ChMYk0hxKDXUPnaGJ2cE43Flmqx+6dkXDolp0TlZ/EYmypyIbeJDWhVW0jLJN/vG1EuXH1oHuFPbnQq6meNfMUXkUAOcIgQAD1yGzpv7ItfaINOXfpyXiHHG+u8cXvIrA3xhOZP0+em/qRiCC5zqNdr5bKpkhiRMbYv2nwH0G5Yu5P7Jyedu2tL0aSex7aIA4V0dBYa3+zuu1EzUKu60Dw94X0oNtJH8UtnIgfv2NMqgggR0gAoNvz+/rTxv2thuw/auBenzpYGdOSc53e8gjtpz132n/ay7iQB36wrmhr/bkG/gtYaHPq4HlLSCL6+uzniXvx8g9Sm1CR+JUMp4J+qxf/qB99qDOENtbKxh96hNoOIoAcIQGAbi/clq7XwP9n7WPtfPeGtAf+X0ur+yeCvGh6v3UL45gb9eI20slzllZqtOXPuzni3nZg7JOitJqXVyR/Qpb+rMdKfrrT9Pdoxnrjzy5p3pIAcoAEALq1h+bIFsRmvF7MWzDQIBWyIqc/NMfNvVQNX3PoOOmhMftBjdzrUv7GLLEmAkPjFT3O9lvjVED7Xr26tyP2Dsnj8ebT6lVvV8zVQy9vDXSMDpQXJACQFT1QXG4f+V4+/NH+HqVO0dJwIC1B7d/9gz+2gKDDPrfxw0hsIC1brfocuioU35YKKJN0fq9/tyN9/tn4sUlzboMjoVtDAgBZ0SbTKj1lBj7SmJk8z5JHBbC6NrOdtv73pKCwbJUy3r4EHTI01txH+7cPoaAIb+ix96tCVQGGazVDP+1Pwempx9yew8c19SCALCABgKxYbm/9B18BsLKajRRkGp1H8jMNAgMoIOKXrYX2ntaIEdodEYqEfkJrBv0FRGqYzc6rqpp/QAUgktqVhQdScPy1A7b2bBRjASArSAAgKyYUXsbEyyhgzLwsasKfU8AanmzqwdZsr6flWgqOQ2wHWUpvRpATfxqlJbunEPejYG3ueU5BZgSIeEO0u6k3BUjfowMdoYIkNND1IQGArNStpmWWZAFRoOV5VxOAhdFVtJQCVtG7qi8Z6UvBW0fErkOQk/qLqFrD2YYaNqMUIM0z+rF1gk4y1vwt8vzWf08KkD+eRT/6FnudA+gakABAVoYNYw3O5mUN0J9RUISbXGtn699KUsCsZ2q+mLIXKA0wUWNCgQaxctRGbTWsJXoKnIS01lDrLy9M5WPd1qV+AgXw/ZAAQNaEnCe0NPseBUbeMRXhBwmggJiof2VvKptxGswSrmhahXM7rBUOEsjaITvSUq0AXKKnmGBa6IYeHLktLSeAAhJm/5jDVrvQ7SABgKxp8JeRQ8JPaB/j3zm/YwGsnoYfOWRI5Hr/b1ABCIurTb/AuxqYradPVJogJ3Gyrh5ngb8+5E9wsbzqsZMYCQB0O0gAIGfVHL5AuwKepPxMC/S31X2CQ5ETqYBcjizS8PwpBY6XGrGoauRoZqxuhQbmjzno5IlpGRlvBQF0Q0gAIGfNH/p7rPOFIvwYdS4J8EjkKSa+MPMeLaICmr8jtZCVjzUABBpg9LEtEidS0MdWPuQ/Wg5qpgCx8GLHymIC6IaQAEDO6uvZyywIz/WqQ6M1wk0kv2Kbu6SQvUtM5Cj/d/m/kwooprX5MPHD2uGwhAKiwX+FBrAXDx5MqwlyJlXOQ/okBpg8sauVrLdpZc0CAuiGymnqCxTQFwHbn68/enJj5m7tSj1GiHfXoNdHW/V19G3JJXOr9usuNVbeNmwuO+jH0RepiGraQi+uqsm8oBcDWQhGg/9bUTf0z0KNayg3z5xatWT4xa3/sETbUzDeFWPGP3EltxFAN4QEADrtkCHhF2YskMZVn7s/IWt30oA3yJJ8Y8ETXqX9ufM0QZidqQ6/VD+IW6nI/PUGps1K3+w6PELDdb7XT89offn+A3ZhlJc7IcVyV1hojB4/+V9Nke2zfdI1cwigm0ICAHkxbJP2qYFP+B/+2vdhS3Vf/X5VG7VqwC160P+mEbtEZk2Zk56orcwTNEEJU56wyPSerZF7CTrl+XNrl//04taYllBu1Kv5TNLm6+t946QYY4YGdFtIACDvRgxhf0xAR8YFFEUmHL7SyaQcYjNG6/ad3hlOA8urHIqcVYoJT1cUyaSmpUMV6+sTe5YmAvlYS3+5tXzWzAtq5hNAN4ZBgNDt1Q/mJR5XXKChexx1KnHhViZ50GE57OAdGMElTx6LrdO8qm/1Ndq9dKYmaJ3YJ0KrVEJzNUH77VCv6lEC6OaQAACo+iG82qXQ1cL0RxZq5BynN2rL9B1me0MlR/4wYkjFOwR5NXcMZzbrV3s3MR+lr9Hj+qWcFgnyp2Pq2e5ea+zhT59X82QsxpYAujl0AQB8wU8C9NPtU+Zk3heSEXp5mH5soR+V33GTNDN9rNH/Oc2lp2UqncdGDkKfclAmaBKgnx776SXJD4gzv9awPkz8GQLyHWMD2F+tkj/VhG4WsfwrnKp+eHqMmwgA2iEBAPiGg4eEnn14Ls1OU3ojsmbDkPEGa5/x1l/7IaElxjivuuy9ayny0RfJAxTA0+dG391xvFxa25S8m0U2YPG20S9vJ0a+kqiZ1Y6W+7WZ/5YTsYufOKN2GQHA1yABAPiGL+bt+2MB3hGR/zw8N/SShL8+ODAT0S6CeZSorw8VdAEjWGPummrAQv9jaEzmVvamSKLp/7o09brV6/GZMc7HctUAZQkJAMD3+Eoy0GVmNXQ3GuT98QCF2DgIoKxgECAAAEA3hAQAAACgG0ICAAAA0A1hDADkjYiYx/5NNS7TOl4k87WpWcaGW7U3fVVtC60aNgwDswAAig0JAHTajBkSWtmLNp36SnqwZ2gHh8224n59hz2P3AUsMn91Db3x8Kvy8noeLRwypH0kNwAAFAESAOiUR2a39l9p3CMkI/sS8Q6GqYfQt+1+K1sK0/760Spu5p2PWR589BW544AdeDkBAEDBYQwAdNjUV1JbpbjiJr14Pq9ZNW/tu7UJ1Wh6MEQPvZOSnnvblNnpwQQAAAWHBAA6ZPK/k78Qy5M0oh+inf81lCuR9fSfg/QI/Pvkf7u/IAAAKCgkAJCzB2eld2HHXCNCW1En+b+DHXvN1LmZPQkAAAoGYwAgJw3zpIbb0ueJ8EDKE00CBurHXx5/SQ7Zb7fS26zl0fekItVK6331axUpajpgF26mLmrsxMTGX70eDkebbji86z2eHcdLuLYp9YMQZTYUMTUi0ocNLWW2reKZ97xM9edYDhjg2yEBgJyEEqnRxGZ/yjvZKx5OHa0XrqAS8NIiqVy6zN2LxA5Nrs78mIR6f/X7SYfaJs9OvW8MPVFNkUf2KfHNgGINElmaSAz2PN6Pxe5uRfp99fvJVKLt2DsSCw3Z56qk6oFrjintXfP2vXp170w8fBiviO8tJD+0zNoNJVH9VlSTyVbtnkoScZNT0fbuPpe0TYqmq556OMZYzhngK5gAsuQP+rOW79BguAsFQIheDYv8bsROFfOoiKbMyQwVQ2expSEaXKr0S1Xf+oNMKf2ZuDB95JC57KAfh/5JJWj0xOYt2ZrzhcxwFq4W/q4xG+1bGSf0lViuj+2GCUdVXU8laNglbSOM0AX62mxOa16b727IMGX0wGrTMtOTISN/euLcuneoSIZd0nwXizmCAmaYxtWkM5dNjfVaRQDfAxUAyJoG/+Ek/EP61ml++cCbuoZ/qWXct1lruFRA+jf5wTm0iTGZP2pgGUOWKtb6KEV/hqlCL/XyyE6c3Jj5dZjkzzXrhOcP24SLujmN/3j+cGd8vbTQ8WTNabKmdawv3/c9KvF3PPQ/euhju2LMnQl/kOZFTlX0lZvruZWKyH88w8et3kQfy0X6WP6fPopwdjds/7mexHyoKzx077+2XlIRNg88dmblEmIO6kAG6BIwCBCy4vf9k5Vd9YzaiwLCJH7g2XH6y3rCLiA/uEx5NbMtc/pyvTrWD+yUu6j+ogNdofGrP08fMm+eRKhY9PGMvbNt27Tw1dpdc9oXpfFcRfR52Vs8Gm9bkr86tKG4j+enl8S3J+tcraes+i+Cekf01aD/l3TGXrT/pa19CKCbQwIAWTEJ2lBrixtT4MeM9E9G0/2pgKa9Rf2MlsiZ+AANLp0JdMZf48ASn/VuOtPpGRIdddSdpCV+cxYzjehg8P8K2dIyndW7ua1oszT2v6ipVl+X8zVF3F+IOpmISI1WQepT1owhgG4OCQBkhW3GPwnXUsD0BN/XuqYvFZCXzFxjxY7Ui5WUD0LbWJfunNYoVVQEIYprq58Olbw9Hn8VR3Pb6PFSlFZzKlzxJ2IZ0fng/yWu0XLTWftc2vozAujGkABAVrR1vI7oBwWOKx0nT4ErC1Pnuv9PP/1GPxzKH2180/ZC9uxCdwUce2diL/3zF0r+x/dsQuH4lcc3dGDRp04YPq55D/3kJzT5fH3IrwR4Vs7f+8rEDwigm0ICAN2WttD7iJXARmV74h36fmtmWyoQPzgbfwBjQFh4L2pO7UEFMjSm3RfWOYoCw4MoKQdSmbEep1K9exZ0EC10TUgAICsaKFcxSeDTipglaS0VZAS9R94eIvIjCohWTdZ3mQNYM+HbuS3JwVql2Z4ColWF/tbQ/oUaEGij6R9akR0pIOzPDjC05/BxTWvfw6IrceizRBNhzQNYKyQAkBV2xJ8G1kJBE2oNcaggK9J55A4Tpg0oIEJSq30BQx5sbFuPCsIO0z8a2OMhf5Edstv2bmsuSNk8ZNN7aJQO7LkT//wndkvPRrekAtAKymL9N+DplPr7rbcUqx9CNpAAQFZcjizSU+YiCpawyEI9MX9MAWt4STZwxPkRU4enlGVDiwCyqZhwkEG53W/vlTpmHqxPYaADNf1lm62NBJ4AxGJiWMwuGqWDHhD6A7bu+lQAhszLejysoEDJh2F2PiKALCABgKzU+0vdipmjES2wKkD77zb06oghHPBJUluX4bS/nkFgaxp8SYT7hPWDAtanLdmzvaQdOO6pkTnwvzOTqE7Y1lHwehCbgnQBOJmql/X5e5eC42of2rupiqrAE2goD0gAIGvGyAxtogdWBdCS+SdC5gkqAC3HhvTvlc1KmImI6aGt8wIEMqmxYgOfCVBFbVFNCDu5hkFpmR7jJiaZTkFhWqFvoukzTw8+gYbygAQAspauDL/KViZTQFjokV4toVkEORPKOJqc5XmqHORbKF19l75Ywex1IfyCzVSV5H4UUJqQAEDW6gdxurIqco0EcAJjpoVM7nXDhmHwUodkQnF9O2Pkd4nzqwBi+Fw94hOUZ1b4qpmx4u7ZAF0LEgDIyX5baxnT4dM5jwP1tNS7IsTmpIN3qgp6kOF/ORXeak06CrDlrSQ8ocBPytFQxUr9W4Uo/X6iz95igg6rSVc9pV0Bf9GL+Xq9VjCZ38w8vwrVM8gJEgDImRsNPaNlzAv1Yj62Vn2HRM7YNOoE1zf6LZK9o0vFyqd6MdAFU/xEKeS5SyhgS2s0mRHyE6g0BYlpWdg46GPuhIdjHA9VeuP19bqYmTWh6tT2mv578IzemcrAuuagfCEBgJz5XQGZ6vADGkC1lClvU8eCqGjgn8/GXOj/rkGDONjA9Q31A7QEa8xbHOy87LQRejdZEw08AZhUz54+ltmacARb1RBaGKfwQoJOmX5qj6awW303iT2Nhd6k3Hn6Yryotz/XZqofmBQr7PsHygMSAOgQTQJavY8i0yTi/UybLzdRjoTsnSET+WXPZmey/7uoCCyHHhWW4MrZTJ+IY56qL1ByIxH7pH4KLNnQLpOl+leemngkrSboNH88wJ6ZmoaQE/qlJm83afKW1QJYmjkv12PrfCdk6tfZvHYa+v2ho5gAOikmYnaYTT9wTfpo7YvcWUT8xVu+PiWNKaknucUa+P9tPLrvoJ0j72j5s+jrlU+ekzlDT6mXUwCY5a6KHpGxB/yQU1QgYycmfieW7gxiiqMmAA9FIpW/v+FwDnylxgNirf1TEZooQvtR8EY9c17NXVRk+8akdyrSurdDvKte3YGEQ/60S33iE+KvwinyqjU0M1VR/ezLp+Z/ECF0P2UzDxqKJ7YmkC/Qj/NnzJCalVWZzdiRTb76Mw7z0trm0FvDhpVWayXqhO5Kehl/w5n8LgfLvMJhGl/I4O/7qCXaMKAmcbQ2E/eivOK4JXt7IYJ/d+VXBPTTA1980NDYyp6RiNPfa6Hlz1xa9zkB5BkSAMirLwL86198lLwDduDlk+dmTtCqxXjtix1I+cCU1hb4OSN2jBR8VPZjJ3Fq9Pi2Uzlk7tH7sBXlgZYJM9oS/9sGtVUFWaQJ1pgZ6+VvvhX4BlzQfWEMAHR7IQnNcogu01C3lDpLg7+2vu8NU/g+KpLqXlVva0JzsV58nzqN08J8TzVFz4/VY6AZQDlBBQC6vRFD2F9A5/YpjZmPtaV7hV7emjqQHGs/7QI25q8bbe/cM4Q5Q0VyTX17//B9x0yMf+gIXaN3bIh04L3OxEuEvBuppvoW/Z0Y+AdQZlABAPjCyCHhJ5jDh7D2devVD6l9qtXa+bsXMlODIT7qkB1CdxYz+H/V7aOqZkUidKhevEaD+Vvt1Yns+OsjPEJGTqLtqq+agOAPUJZQAQD4ipFD+INH35MzEqu8ocx2bxIerIFzIIl8Y0tf/pxJ3hemN1noeUmlHj9k99plVGJuOLxq8aENcv46q5OPiqFfGObtLMkmmrVs9vWf9MduiD8z4x19zM+LQ0+PPzL6AQFA2UICAPANB/ywfaT7tGmN8pTHqfWMMb2sx1/bAc+KtFnyPq/yoiv235lamCOdWc0tUJPW9N3PHD1eZpNN9pOo7el4zte29HVDkhTPrCBJNQ04um5VrASmaAJAsJAAAHyHL8YGlE0reMKY9sezcK0/eAwBQDeAMQAAAADdEBIAAACAbggJAAAAQDeEBAAAAKAbwiBAyIsnG6VHnNM/cC1t7pAZLCKbCPGGzGSJ5RO9/AmLnWUMvVclkY+G7+iPnMdIcwDfAZe39k+4vAOTDGPioSI0iEgq/+8nOMksL+ib6SXHMzNsJS145vTKjwigE5AAQKc0ioQXz83s0Grdn5MxBzPRDy1JdM0+k0Ky5tMXl03SCr3XRulHpzWah2eI/HsYs0sA3dSB46Uquaxtj3SGR2rw/5V+qc8X75pvkKgmBcP1Z4Zb4x3HaWfy3n+N35moqnwTOwNCR6ELADpsWqP0+bjRvVBPTLcLywXa6t/GP1F99y38k5hsY4XP8khuXzXXPefxxrb1CKAb2vfitvXiTW0xz/AETZrH6pf6ZHnTviLe0WTk79Fk23F+9YAAOgAJAHTII7Nb+1tyz9Ky5ImyZu38XG2hycDpCYmc/nBjYiMC6Eb8oO0yn64dZGM0Mf4B5U6rt7KZFtrOSmdk7NDYshoCyBESAMiZ3/JPm8hVVgO4tv57UMf4nQR1Wu481bXOpZNflH4E0A3sfP3ndamM8xcRe6omz3XUUaLvIaF+lvjCUKTmvEMbxCGAHGAMAOTE7/Nf1Jg5T09ch1GeCNNhJpJpmTFDTh42jJNUIhrmSSScpvVtxt2I2PbTO9reyjKOiWvlo8nY0OLaSlo8bJC/jn7XEpshoVULqSZNFO33Ea2IxTAWo1CqWyqPILK/pzyyYs9uej/+ol78FwFkCQkA5OTjV9w9mek4yvPK95oEHLmy2p2qFx+nIvMDf0XK3cUm0j/RO7a1Pt5BGvbXJ5be/vfFSqtlWSrkvrOyzc6bPNd9IZpxnjtgl/Y9BErW6PHNfSgU3sawDPp0QXJdEv/xcNUnA2Tpsbe3tRnhdyTkvLX+xpH3Y8OQEARh30uTAzPinandXxHKM60onDR8XOKNp86u/JgAsoAEALL26CypS4p7ipb9KyjP/N+pgfakR2bLaz/fiZdSkTz8UnwDL5E50wodqBVWfwfAL07UX814pIaFBmr3xUBi3k+bX79LOuk5U+akLxn548hsKjHH/X1VLy8dOoasM0Jrxj+wwn3/b7DmmsfF/mwMpsUs9sNPFsRfHntL6p+3HlfxFkFeZWzmRH22N6RA8I+t215Z+CsBZAFjACBrqYj3c23+/ogCoqFopxRnDqAimNYoVQ+8khieiYQe0D7VsXpfNqH/Bv/v5Q/GWl9Pvpow0H2T56aPbXhpTaWg2E65WirHTGw70EtVNIjlczVh2V3v44DvmKkR0u9trC3TvVn4LFvhPTTmjvip+18veU/2uqu9r45vQGx2ouD0ZCN7aRUAg2ohK0gAICsNDeKwZ/fRQLcxBUZ6spXdZyz4vqmEwdCy7C8d69yiWcgu1LHyrP9e2owsjwuH3WP+9Yb0oiIaPU2q4nXxURr479DHM5yJe/KagZdrJX5SI7Spfr58QHXinuMnpgc3YIBZp5mE7KvP7iYUIK1aDZSMtzkBZAEJAGRn0+QGlsmfrhRkIHA0zdi8uSkVUIn0201uzOxh2PrrGQykTpPewnJuKpn5DRXJ6PFSRcvjZ2pd/wK92pc6ztGMYaRrvUtntLTk4bnp3rS6sp12HQVaHWKR9a0hzKiBrCABgKwYNj21edGTgtfHpYpsF0TptBkztNpg5a8a/DejfBHqYZjOmtKYzN/vzIUT/5kG/zHagu/0AjF+NcBffc4j5+I/oDugw4ZObF8ds59k163UYf7vZ0MDhsYKX0WDrgcJAGTHs9qq4AK0LLjOSKrjc6NztKo6M0ZPzHtSnumJeCOy5jQqsLF3t/TTfuZr9Q7kbXW4NUkAH5Sujh9B0CGRFa11wlSQ49poot6TViEBgLVCAgBZMRQKSQFmjWhL3Bh2CnJc/mt2YlMN/n5QC+bvMe03dW5qJBWIP7efMs6ZHVxZ7nutee3NH4+7LbUtQc68NHP7wj0AJQQJAGTHobQhSVPAtHRurXgF2SUwbfgXGtjWp4Do795ALA+b4QfmAlj6QXpL/ZvDKCB+VcOye3BMJPDzRrzGumTLZy0CL1Pdpt0ybVQAVrh1eaXrEcBaIAGArIjIKi1hrqKAiZVVFDKB/52J/kwDyzvoxXUoONrfyz9K9E4UZrMWI3trkA5wAKXUCPNOH01sDfI5a7e8tbZZTCEWVuIEiwS+m97MmL9apF2uFwNOajRpMrJkn0SfgiQb0LUhAYCsmEy4iYWWUdAMNzkpbzkFbJ3PqUaLsv4I+UBb50LSJ+WG1qWADdUqgyV/N0YKODjzD6LsBD64cV6M01oL+kQvBhycZbkxoQItPMXv6j+BJrf+EtX66ZNYjAtSRYOuDQkAZGXkrrxQKwDzKcAWjLZeM/rvB+vvFF1MAfNsZkPtkg2s/P8l/Rv9DXFnpuJlZesP4/30j/kLwAQ9X3+Aa6kgWziLY2Zpr/nnFBy/V/59L0ILqQCMoaeZ+BMKjuh76C0KO/8hgCwgAYDsWX5M/11CAWGiRWTNtCHMGYKcpF2vTlt/BRhlLj30QOjoDpC5/aVU5XQ9Rb1CAdHjrUUj5r9/0hoN7Jj+qqfOrnmT2M6k4KzUitOzhXo80PUhAYCsuSb0sn56mQIjb4aM8xxBziRiokLlNfe7vd9c7BQKiDb/F4rYRwu5E6JY5++aeAQytkGrCx96Lk/Bzo6QLSQAkLX6IbxaOxlv0jNnMFv2irlmxBBeQZAzxxNXuxrKrnJiMxl/h8g5FAAN/v8it7aRCsi6lX5FYzwFwDPm2r1t9TwCyBISAMjJyB1DLwnzX7S5kaK84bT+zkvd6lCA1YXyZj3zubZomyh4Kw2HV1KBzIz1WqWJ4cla3VhElK9NqNnTVviT4tZcoVWGYJLZ76B/z/UydLU+lEnaYs/LtFr/97DQ31tS0SkY/Ae5QAIAOWFm62VCt7LYv+m1Vuo0v8wrk8IU+mv9IA58nYHyVbVag+RyDZHBBgCmldYNfpbGV63jVjYaNhdp0F5InUwC1gRdOytNfIQG48Cnm36bmbGapXrqHacv1SP6mDqZSHOr1ffPKrd69NwYxwkgB0gAIGf1u3FThuViPYFdpQmBP6q5QyflNS1We51rvHO19I+TVydMGKPPn9BrFPBaDRpAP3Aq6CMqoEkxTsejVfdp9nmq/v3X9UsdWuRGb6vPkZ0U9viE58+tKtDUv2/3zHnVr1gTPpPZ3KJXc6+otK8ryIv182VOyDkXwR86AgkAdEj9kMqPvcrI9Ub4NH/wHuVIWz5vGpILo07kOv93EXSamNDTGheCC2ziV3z49f4bVX5GBfbyqZxYmq56lIWP08Rzqt6PnFrOWh35VIP/tZ4Tju1qq9/0J8xTkc08J/p+ZcS9WGs2+h6yL1H7NNjsiMhzbO3pxlTd8NTZeP9Ax2BtaugUPRGZqbOSG3E49Cu9PFbPqt+7SIwecB/oP9eRE344E6FPilX2nzI7PViYJurFwRQgbaYtDRkaddCO4ccpYP4SvUsnJm/UkvBxFASm14TtqNtG1bxGRbRrTHpXOW07iSG/IrC7Bveq7/nx5RrqJwrz/bZn27szT+iXh26r/IrFxMysaentpGkPYjNSE4Jf6fvo2x6TP0D2CWPktniK5v+Malagzx86AwkA5E3DPImEXNqc05nt9cja8avf05bpbEORV5KV9GEp9PWXYwLgO+V26R3nxFwNIBtTXmmgYfrThKMqL6YSsvdfZQPDib0s2230Hm7y5dc1OXjNejIr4dW88u9YIZYUzq/h41q3IddUf3nddcwKv2JAAHmEBAC6pXJNAHxj7mg7Wv/uOL3Yh/KEmWdWcnLktaN6FWXgHADkH8YAAJQZJ1l1v3bH3KZhezXlBb9A4p2M4A9QXpAAAJSZm4+nNscxE7TCcaXW+Dq+NgCzP9p+hrGhC8YfXfM6AUBZKcg+5QBQQMxy65o58389/q7kbNfaP5Pw9v6CwVndXLucLdEyJvtwprbqgon1XNB5/wBQGEgAAMrYzUdGnzjxDnkrYxK/Jsv76Jc210RgI/nf974/mrxJg/9H+v05Rsw/xh9dhX0ZAMoYEgCAMnfj0fxJLCbXLv1BcjJZ2V5YBmnv3wAW+m9FQNguIWv8LZ/fIbfylfaFhQCgrCEBAOgGvpgvvvCLjylH3SG1dYacNFH7DoLuNvT5hCHYhhmgO0ECANAN3Xk0txAAdGuYBQAAANANIQEAAADohpAAAAAAdEMYAwB599Dc5EDPcwYKe1v615l4gWNk3kE7Yi1zyJ+dr5e66pb47obs/tZf0pl5wJffY8uvC8ksY3l6ry2r3phUzx3aQrhY9om1rS8h3ujL667b+tbMWOltZARdG/YCgE5rmCc1kUR6E0t8tF49kKR9I5pvqS7xpyw81Yi9M1UTfqd+EBfthFbOewGUs6ExCUUrkhumxTtYj6fTSGTDtd1GE9AXLPM14XDl9OmnU5xLYCvgb/rpxa3ripFB5NFIfefsR8IDv/p99tdpYLOQSaZbh++qS1S+O+VCWl2KjwW6DiQA0GH+7n8VKXcX6/FvNdTVa4urZza30xNys5637jdMdyaj4VeKsTsgEoCuZ/h46UEr2g4S5lNFZDvKTVqThUdM2F7eK1H3yqRY8Xek9B14pfSJe4mh4tnj9GDZU78UXuuNmFOaDzyiSc1tlIq/gMoAdBTGAECHzJghNeG2zGGeZ28UskdlG/x9+rN1VugoV+gfobbMEVNezf620D0dcHlrf/o8+QcN/pdq8N+WchfRwHmgdc24pnBqr0MbxKEiG6qPqS0d/6MG/xv0TbE3ZRP8fSIVWkk72AjfYEJVx/i/hwA6AAkA5KxBT56rq9IjtAV9gTZHtqaOjSVx9KT3AzYcM647elqjVBHAtzg0JpG0x0db8f6owX996njlMqTVpz2FMlcu/zC5KxXRzy5Jbelk6BoWOVXfBzkHcPHP3SID9Zm4UH/PxUO1kkAAOUICADmr2Nj7jTV8u17clDrXjcT+Cd2SxKxkfqWX0SUF/6MpnKy3ls7Ti50Ocu2Bk3hb49nHfnZFSz8qgn2vlt4uZS7Q+/Jr/ehs4ttTf8dRTqbtCn98BAHkAAcM5OSBRtnSI3ecnkkrKU/0BFapfeXXPDiXZuvVdwgCcUqDVLauahkQcsIbWab+2qL+7/ufJbSc2fsswvaj60fVrCiVwWXDxyU2sp4dp0dJ3o63NaTGy/DlGjRPnhnjVVRAbrL1jyR8GOWRWDoyFG57Uh9Pgz4elwCygAQAstbYKOFFlDlGhDagvJPejngnaFfAWSOGYCOafNL+7sg6q5O7tTXHh5tQaGtPZJAGoI2YzH83A2K2S4TMghSZd8bemXx+7N0tj9/6+9plVGTWen6gDOB487vSaS/HiQ/Vi1OpQPa9NDnQte7JFACtpJ1oTdubevFNAsgCugAga0u8zHZ60hxGARGy+4txhxDkzdi/xTfo0ZK4whqaqK36s/T1O0i/PFCf7chXf07ag6zsoVHxGP18GWWcG8femdh7tCZ9VCR+61/v2P4UnA3F0L5DJ0qUCiRj3WP0ua6jILDZ1gnxgQSQJSQAkBXtnzf6Xz3T1+cn59kA7esd0VACI7S7utHTpOro2xM/EZfuN8Rj9RXcWLKs+OnP9bdaOLBC99Hr8fNG353YiIrAtXYfJtqEghMipm3Cy5sHUAEMH9e6jf694RQUkWp9f+7dnjgBZAEJAGRl6mur6oTNj/wpfBSciHZm/qhiIK1L0Cm8InGgw3KHBvPdv9naz56sq63KcyRjTz9+YmGnmvkDQvXktJ0+kmCPBZHNXTf0IyoAccWf5x9ocGayP+KM3ZoAsoAEALKSkar19aRcgFHTPMBKZj2CDjvurrYdhdgfNd/5ao1IxK8geNYE0m/9Xfa5TMvkoiX6DicvWWLqzSQ9qCB4CxYK9G9pwreua7z+sZjg3A5rhYMEshJKm96sJ0sKmAauXtpX3YugQ46cuCBqXbpQA/c2lCcaVML6uow9bmJ8FyqQSLKtkjnfI/+/hZCjvVt9/LUGKEDt4wyY+olf5QqSPh4mZ725RAUb1wBdFxIAyIoJe9Vala2mgPn91NpKwuyUDqqQdUcScwAD56SHJbnwlIbVgSeBhWbI9qXoykCTjciKVu1CoyC7z/7LsNQ4tCrYRAPKAhIAyIqI488L71I7qn0fzxFL/sypgGnVRKQ9rwne6PFNPYT5SAlqeq/wj9vi4VFUAKlw+/MW+OvTzuGPaNNega+nz5YL83gAsoQEALLiuNKsESD4kyRL0lo3SQGrTkea/U2JKGDah91mhdqoEJyKYZqibUZBEdKuGR48enzwyzZ7mWp9zoJfD0KPgbT1pCXo7YLTbTXNenAXZNMeK9y6vNItm2QdgoMEALLiSXipni6XUuB4qcMm8L8TTdJSLsDjYeHF7IQWUyEw76ERLbABlO3L6FrZyom2BTkVtN3MGLeyJx/ogwo0GdQEbSkbJ/DjQB9PUsh+yv6uhIHipBadPton0acwSSd0aUgAICs962iFIfmMAqYnyBWeEwn8hDxsmJ6QReZrUFtNwfE0A/io5yoKPAE4/qZlNdrdsKmGtKBb531sOlSQaZrCMpcCPuY0CfyEXO0CKAAx/I4wNVGwVmhCszgWQ3cDrB0SAMjK0K2ozWN6MdCAKbxMf/+MkdsXZm12NnaqvgEWUFCYFrGVpzTZCH5t9qq+Nfr8FWDUPPfR560gszQSVTVPa1LzHgVEk02/W2vGMxdEP6ACiJDzjF8RouBoziTznKj9DwFkAQkAZMXfHCZqw5O0xfQyBYXlXYdD06hADh5S8aYQP0BBEW7s2RYp2DrzhSFVHtmCbN388qncpH/rJj0wMhQAfe3fMcKTqUCmnxN9n8k+QsFZSYafm35K9acEkAUkAJC1n+/E2l8q91NAtEV2/0E78vtUQGF279FPeW8Bass1pe+uW7T1X5CBX2WrR+1TGqpnUgCY7d+b+la9TgXkmPC9+mk5BUCT8/keeQVLaKDrQwIAOenZHH6AKYAkwNCzDof/SQV24JDKj/XTn/X0md9ALXTLRhJ6nqBTZp7ArQ7RmSx5L2s/6aUTd84dE0x14bv4VQAS+RMFwLJ3xcxz67CdNmQNCQDkxG/RipU/idBL2mLPR9+2p9HybbJy4oghvIKKoFdruEE//Vk63zITfU7aNFjdosnMxUOGFDa4lKvdM9VvaHSLaeDs9HgAf9qf/vMEc+jEmbF+RanOhN2aBiG5RY+VvExz9B+TEblA0rVPEEAOkABAzt7YqeJ9E2I/CXhWzz6dmNbEaQ26sxzHjB05JDKPisSfEeByaIKekM/Wk+l/9D51MHBrFwnJtZHqij8XK5kpR/6I9lXr1jzIDp+kx9u/OzE1sMWynWLJ/vHpc6PvUpFMj3GT44TGaRJwWx6SgBWW5Z6Vbs3V/lRDAsgBEgDIWUw7T0fuEH5ajF+apQf1hPw55W61Npgna8Acm3o/9KI/yJCKqH4Ir9ZKwN16L040TPfltGiLJkF6In9KyJ6UroqM+/mgQqyX0L34pfqnz6l53AqNJZZb9TnP6TnWxK6RxJwrIT65FMrkT51d+bEN8zgN3pfpsZPzNET2K/5MmsTwOZGod+bcWPCLJkH5YQLohGmN0seTzP4avY/Rw2nI2uehc1yD/ktizH1Vknp8vyGlN2L54UbZKCMZf9/24XqS3V0rHf5+8f/zXtGgskJbk7MNyZMUMjNHbh95jYrk+InS37PJidqq3I8CponOqNuOrrmLimRorLkPR0I/YZF9tFtgmL4QP6Rvbcz4SZx9ncU8Ya33dPO6tbML3ee/NkNjUmNC8WFsaLQeZ3tnt46DrBbhBzRpfjBRWTXz5VM5QQAdgAQAOk1EzNTXqI5sZjO9PFz78zUhMDtp8PxiXrrEtXd8rrbcZgmbxzgVmjdyN1qhJ7CSXqzk0VlSlwhRtWPdQdaIv/rdlv7X2V87wJOPQhXenGZTGe+1mOIHHMApKqLulAB86WdXSLWXbqtxMtLXDcsu2sLfTI+xSmazzPpT/Mh9y4tQU8qsbnv51AElHSSH3rSsxqys2VaT45/ra7i/HmTbf/X77SsIiryil57jUPhet3b1gpkn9MMME+gUJAAAZaA7JgDlzN+e+NOK5IaV1qtzQzYx46w6LO4DeYdtVwEASsykGPuDaz8kgABhECAAAEA3hAQAAACgG0ICAAAA0A0hAQAAAOiGkAAAAAB0Q0gAAAAAuiEkAAAAAN0QEgAAAIBuCAkAAABAN4SVAAG+Q2OjhBdGkgMoEx5kxBv01e8ZSwss07wQRz4cMQQ7sRXLAbHW/qkID2GRHxJTxZdftx59FmYzzwsl//PU2b1XEwD8DyQAAN8wY4ZEV9V6+y2S9GgnHdpOxFZpyI9+9Wc0+KeFKO6Ku2RKY/qOTGX4nvpBjM1ZCmBoTEKhysQQL2NPTjHvpK9PLyKOiPD/VTQNuS7buNjI8p9e2jLZmOStT57V9xMCgP9CAtDNzBAJtcylSMilUKpiTRdQRYpszw0os9uA7r2tqN/i/yiT2abJScdY+MD2vbJEvviufPPHo/rdOv3cX39kx3DcPf6hOZlT+/YPvdDdn8egHNogzvIPmjdxpO0P1qWT2H952l8X/uLV+fprpK9LjX7qp4nBIE+qRg2/pOWSKqfm3ofOpFZmFuqGRJ+MMRMoFOq1vCLS1ve/5/9mS95GiygRi7FL0G1gN8BuYsar0nOVm9lcW67bsqWtic26TF57q5aJk5boE8P0tif8tgmF5o3cnldRNzJjntQ0t6UP8pjP16tbUAfeG3qDZmG+ykmGbh+xO31ayCBT7rsB+rvjNYVTe2nt5QL9+7vplxzKGSf19vdq1Luuxw9r3p5Uzx51E6M1uZV5qU3ItYON2M2s42zO1vb87w8YaiJLC/WAfT0cceYvr6j4WJ+fNEFZQwWgzDVoYAsnvOGrvMxBeubeSb/k95WG9USoV9fEuC+jlBVytVW1QNzM3Icak/emKiue7Q5lbX2OIqsS9mhiPlWvbkQdJH5FQORUL+INmDTfOUW/hC6BPGhv+f+ndYQhvkCP2K2pw4OXRas2/HuN+pt//m7iMP3CEuoGRt+V3IxeT4zRi7vp499ae0p6sF1TOfkvu+aTfqXJTdv567jJGSfe0XbrDUdVfdpdqyXdARKAMtbwklRGku7ZGup/q2/hDYUptJZmbYj8wVREm3hidorE3QenvCqXlHs1INqa3MMzofP1LNeHOq+HsD00EpcFevkSgk777N2m9UNO9FIW2VQ6OXNJbx/R98DuZOwVevUwKmOxmJglA5J7kydnaeDfRR99zbd0ZX1Tb/3YQ7tPtk0TDztuYvJCvf4MQVnCNMAy5PfzPTRXBoYj7hPWynn6nt9Yckv2/J/dVBOHM7QaMGPqrNRWfv84laEHX5cNPSf0kJbO8xH822mA6aHP3cVTZ2d2I+iUA2NSFTbRaXpQD5Q8na/E7z4Q+s2wi+Nn+EGSyoz//h99n/RZ+oPkX7Rbb5p+Zbi0B/+cfoc/vmUPK3L/2Nvjv9YqTISg7CABKENTXqEtrbg36Zt4V+q8weLwY4skc8Ljb0lvKiP+aH/juqfr85TTyTFbwnzRI7OlP0GHtVXED9PXZzAFgNke9WIovgOVkZgG6mPvSu5lUonrNPk/V5+7SuqcPpbphp7Nyf83erxUEZQVJABlpj3gSGaMvvF/Qh0aKPW/tMW0kSU+N5HMnDv538nNqUw01Wa2Eis/paCwbJUy3r4EHTI01tyHrHcIBUV4Q4+9X/kDDKkMHH+T1HzamhihXSWXWku/ovzpw0ZOpVByZ7+6QFA2kACUkZiISVN6uEae3+jVKOURk/TVfsHjtdl079TG9M5UBhzh/bRvtMOD/tZGT5brava097RGtJw6IhSVnZmcLSkwUsNsdl5V1fwD6uJGT/ukyq1MXqnJ+k16zPnvz/wmNULbkpHRY/5B6xCUDSQAZWTbN6iPsDlGI09fCkalJgBDrNB9k+ekT5n8ovSjLuqhF5bXWr97g4Ip/39BcwzZXJOywJKMcuW3NPX/vWwex2Z8698h3tTzzADqov7wqFQcdUfrdrS8R4M+ab/TB9SPg5nebcjyIaFU2xCCsoEEoIxwxtW+UtmLgl3fwf/dm2oicCFFMuOmvpLaat68rldC5dqaPlqiX48Cfg9oFOvniMU4gBzVX0NREWcTPdhqKVjrsQ2tT13QH+6VuuSnyd+EyDygR9rP9UsBV5ok4gqdRlA2kACUEWvlYCoUkR5abjxcPHPlu23unv4Kg9SFeCmnB61ZKS5Q2sKsMiaU1+6Y7qCtua0HB1udWUMkTI6t7mqzAcZOTGycSiVP1OfIn2o6kAqEyex+8kTpSVAWkACUEw5+Fbiv/TmisJbQ9xcjt6xqzJzY0Cg9CKCLkQytNzPw1nP+jL0tMdRaulkvxvRjPSogEapsk/geBGUBCUAZCXJA2/cS2kz/+vlhcWNT3pTNCKALYUeaK3tThkrc0BkSOvaOthHWkSv0Tbe/fhRlbQ72zHYEZQEJQJmYMjvtz5XOy7S/DjBaCVhHP062ycy/pjS6B/tLEFMJExZXM6YkBYzZeh5R2aypzkwJEzKBL3EcJ6vdzRL460Pta2I7yx47iVNUwsbentp6iw+TdzObSZpwF3UgniZMQQ0yhgJDAgB5pd0CW4rIHU48c8yUV2VjKlFuZeQTI7yMgia8nD1pooBFyE9mgg+YWgL+3LrBLw09M1a3QsT4a/UHvWFPE7Et2aWuj5wh0TF3JX5KxrtRE6Lf6AuAFfkgb5AAlIkIhZdSyZDemghcSp57zZQ56Z00ISi542z+IFplRRZoxhJo65yZF1I4vJACdu0oXqXB2d9/INhqA9NSGzYFOdaM2Pn6aSUFSLvNFjpiF1IJGn1fc5/IgsRJYul6K7QXlQghKulqCWQPCUCZaFtIy6m0RDXw7yfM102Z4xVudkKWYlqbJzazWCjIYLZaT9xzDh5Mq6kAtDz8jka0QKsNmtgtrfUii6kAOEwz9A8uoqAwe9qi/oBW1iygEnP8PasHmmTkAhY+T99HP6KSIgsJygISgDJRX99+MnuZSktU79POGmvvmjonc+6TjdKjlKoBLjuPaVn1NQqK0NthsQ8VajvVqtoKfz74WxScJfpAnux5JDVTAeyRqPmPHj+PUlBE3hPH3D/9CopTifA33Rl9d2IPNxO5W8SO0eOzLqCFfTqMrZlHUBaQAJQTw/+k0uNHv1pLcmGreDdOm53ZoVR2FqwfwqsdkVv0LgYzqI158oidKgp2srymnpsM098pIEzyZohtQ3v1pABiMbYZpus0Un9AwZhV8Unlo6Ww372/8uHYu1v69WpO/t5kaLJ+YVe9UxVUcnh1VV10DkFZQAJQTlie1H8+pdIUEbK/sYZuW8SZ3zYs6vQuZXlx0E7RxzWw3a4n27xOA9O+5SeqMqE7qMBMdfQBZppFeaaPJ6UJzR03j6op6FiT58+tXa5dG5fqxbx2o+jj+UDj/hWP3VD80f/a6neOvTu9jXXN5foevkyT5ZIdZa+liFs10UwQlAUkAGUkmoks0TfoP6h0OeKvvy98eWhZ5pqHX5INqATYSPgqQ+Yeyhem+WGyp+23Gwc++v+bbq7Xaoax52v3w8eUR8Jyc1NN5TQqgihXTdY2+iVMeRvfsJzYO/3pc2vnUwno3ZY4yLj2H/ok+5t4le6W20KLw665i6BsIAEoIwfsws2OyUzSiy9QKfM3K7J8RCacufeh2ZmfTH9dqqmIfrkdL/bYu0JPcLdr9O5w60YDVJv+jqfF8HG/+HFFkH3x32u9hdUzNNE6Sy++R50X18B0iwl54ybVc1HWM3jkHF4Zd6tv1+f2Yn2OP6cO4jWj19/Q4+8EL137LyqiBm31H3Nf67pjJyYuFtvezbEV5XsHv3xiThgjt37WK/IhQdnA3s5lxu9f/1i8X2op8So90fnLhJb0a6zl6vfZOtfUVJoHh2/Dn1ERNbwlvUNJ90R93urb1zPIaWElXsFi/2WcyMUH7cjvU5GN1uOA32z7qVgT0/u2nQaYnPcj0OdgmT4HfwsZe3WhS//f5tCYRFaG4kdqNeJoat/JMZeA2T7O43lNZmLPnF81m4pszB1tQzRRPEUT4V/5m+xQSfMTP/t3a/lPtx9bVZAZIFAYSADK0IwZEl1VkxkrxGfoyaX0dzpjWm2EHiJPLjt4l4qil2WnzMkMFZIRenGYfmxB/jbI3y6tCczH2jJ9jtg83LPFeWrYMA58lbxcHDuxdbB2b/xOW5n+48lu0xjmtCH7nB4/452aysfbuxVKyM8ubtnaJfoVk/mpJgPb6PP/fXtQrNDH85wmdQ/bMD0+88ziJjL+KP9eLfFj9XgZo/dpGyp9aQ0Sj4pxzpkwquIdgrKCBKBM+UvxhlozvyTDf9UkYEPqCpj/pQfkDT1bQs9oIHWpSPwR2ZNmUnWo1h3MIlux0WqAlU2++jOWeJnDNM8Kv+04oXkjtqelXKDR8bk6+natbDipnay1++jzu6d+aQf63+qG5jy0VIP+q4btw3r15fFH17xOJcqvBqyoiG9jrPzIivxIX6OtvvYDIq0k/nQ18x827jwt+X84M1a8Y8p3/MTW/q7nnKjVuTF6tQ91CfYe4si1E46KvEJQdpAAlDF/d74Qe3uStX/Rq4Op9GWYeJ6Waa/KrOc8WD+g+KONNZGKRBNU5znJr+1tkJFoG1XQ6vpB3CXW+fe3u120YXPPSDi6oaRtb2vk68eDoSVsZYFWC5pW1EYXF6u/P1f+CPrl81fVUkX0a1vUVlibSmWqVmrQL8R+Amvlb98rHv1F2B6op92S3zVT34etQvZ6k+abbz2uaglBWUIC0A08Oks2TDmZs/Tl/r2/sAh1AXo/p0arMscdsFX1Z6UwTxugI0ZPkypuShykwf/PlG0XTFH5K2TaOdq1dfF6G1c9FhtW3KoJBAsJQDfht2SdROb3evEsDadd4ETUfnA2emQuXKfKeW7YoNLqhwZYm+NvTw70yDtK2JzSkUGYhcbCq7Vj6AHX43F3HBMt+kBWCB4SgG5mcmNmDxJ7kvaPHqjv+FI/KWnLn5doa+QuckJXjdyeS3bXNoAvxRok8kk8vg975kStZPkDSUtwRb//4Qf8m8itnDhhDBdk7wooPqwD0M24H4ZerrByPhkZL0Sl/kZnfwCjiJxINnPD1FmprQighI0eL+FPW5P1ZM2VGvz3oVIP/swek8zVKsWJLrXdgeDfvaAC0I21VwNI7tR29qaU05z34tBKwEK9v6esu25k+m4lMEAQ4Ev+wj7Tm1ObhB17kbV0GHUBzNxMIvdW1WYuuKa+R8FXrYTiQwLQzT04N72LvzgKC+2uwbWGSh3zcha5JMThyb/YkRaX6tQ76D7WzO1P7sQsF4nQXlTiyTS3z2KlZSLOdROOrhhH0G0hAejm/DnvU+emtALAvxExY/Qr/vr8pX1cMLWylemGzTUH/Tj8IgEUyXF/l142kThaE9MjZM1yvqXerZrU9/z0ENN4z616Skv+ed0EC7oWJADQzl8zIGzT+wrRX/RktjmVPlcP39eZ+IJMlfN0V5mPD+WjfWEf4Yv1ODxAu9H6U+lLaoJ/h0PeDeseVfteDNWzbg8JAPyXtgzMlMb0VnpUnNs+S4DaN+kp8WOEl+v9bAhZ76oRO1cuIIAA+RWzEyYtr7bxmn3F0uka+Ido0hyiEqZvYFfv44eaLF9caaLTrh2F2TSwBhIA+B9PajWgldJ/0BPc4VoN2IxK/ASnMno/H9L2zK09fxx6dhhj8RIIxvH/iA9w4/a3Wuk/jbrCcr7MCRI7k0zorPFHRt7ColrwVUgA4Fv5GwqtrHN3I49OIZZfUBegB/PH+umKDIfvqR+C6UyQX8dNjO9ihc7TIsDeWguoohKn74cllu214pl/Yhc/+DZIAOB7PdCY2tKxdJEYPljLnSW+bWn7GuafMdNEIe/2kUOiHxB8zdG3r+4dNpHBIrSJvvn7fvl1MXaesWaet1100YQhGBj2Vf7WyuaN+L6epbO1Bb07dQVC/2GHznWqK58otd0coXQgAYC18ncWjCQyv9aWz6VC0gV2MeMmPbCfYyd03kHb0zvdfaqgvxHQpxu1bilkDiPh3fRLA/TDH99Rqc9V+2qQQjapyVNcn7cFHsndkdqq+xA4tOTfIDVea2KsPm8n6LG/MXUBhuhZ65hLVlZVPD2pnj0C+A5IACBr02ald/EcPkM7EQ/oEmubE2n/J18QqQ79/eeDuKj7wBeDvyTt0kRisOfRydrz+5tcbqtJ03xNm8ZVUvSRa47hbrdIjP/cfdqS2FGI/6TH+n7UFfivGcut2uqfiOQNsoEEAHLy6CvSN+llLtNDx58l0BX2NE8ah+5iz147YkjFe92lGjB6vPZRO/Fh2hy8kCzvqO/0nOen+yvFibU3UMRMGP+76KLuMoBMn7seHEoepBfP1Vb/FlTi/FH+WsJ5nRy6ZL3qyn/FushWzlB8SAAgZ4+/Jb0Tcfd4y3IEd4ktTv35zzSbjdw2QCL3DynzPu5DG8Tp2RL/uQbsizQwbEudWpxGW5JsGzJUdfbEo/wpl+Vt7N/iG1iXf6fJ7Ql6tfQXxfJfH5Jn9PMVE46ufIEAcoDNgCBn+23NTRU2dL0hPlabhDP0FFnqLQ6/u2IPsXzRYnHPoDLXqy39Q+36uFaD/2Dq9Htcalj4NxFJnEZlbvRdyc28jExkpnP06oZU+iti+mtgXGDClcci+ENHoAIAHeZvgOJsHe9HbeFzNMocpcmAPzWq1FtMzcRyv8P28g2k4qNyqwb4g9bc1uR0EdmV8/hasLY0PUMH3HZk9IVy6grwF/Y54x6qWp1M/Jwd8xci6697UeIbY7WX+BtZ7Liq5qanrjl1ADbGgg5BAgCd1jBPIpGW9AgxdJYY3rYLTBf09NB/kdm7OFNZ8VL9oPIZMDX2jtYjLZmJFACN+nMiIffwm46oe5fKQPtAv9bWgSTmZGH+pT7A3lTivtjB7+mQ8Ck3HVP5EQF0AroAoNP8dfjTtZFpxOYMsjRJ08oUlTZt4clPRMzN4UT6XH9gI5WB0XcnNhJ2jqCAaGthk4wX6hoj4rOwpCW1n4hzqbA5vAsEf82/+G2y8pcqyRyD4A/5gAoA5FXDS7JBKOL+P7FysfallvxUQfKnCrI8ww6fP3L7yGvUhY2+vfUITcIu1YvrUTC0uEDTKCTHT/hd9afURe1/vVQMqE4cpxf9cQ3rUxdoCGn0fzFkneMToci7d43iJAHkASoAkFf1u/GSEIVuNUx/1HrlEip9lSS8v2T4lqlz3QMbtElIXRQ7jr9KXZBTM42mAJsShYNKMAI36s6WvgNq2i5tnyGxZqBf6Z8Dxd4fNvZXNx8TeRPBH/IJCQDk3YghHB/548gES3a4CN2vrZdSX5ffaBVgFytyX/QV96IHGmVL6mJG39fcR5uJ/rS1MAVrPSed2ZC6GH/A6ug7kj+LiPMv7fM/RUTqqLRleM0OfkeE6qqPuXlUzVJs5AP5hgQAAvOrIRXvRCl8Mhm+XKsBK6jUidS4Vs5zOHPuA3NlWz9oUBcRiktPKkBQ04DUy1pT6sHza04bL32ebokfqUnedRpBd6Ku4TEhe9x6m0axJDMEBgkABOrnO/HS3s2hy41Yv8+1S/Sxi6VfG8ncE9rEO9TfB4G6gIzj1AgHf1+FJGSNV+rbQ//X6InNW7aGklcI8ZWaIJV8ZYfbF16iy8kxp044uuaJ2DBsbQ3B6TJvZOi6hq05iT0w+fXUOybFp3qGfsulPVUwrJFuayZ7WSQuO0x5VS4ZuT2vIugy2jdA2qDtp2TNJdrq35qoCwxIFfpYmG5piyRu/vvh6zQTQMBQAYCCOWS7irfS1eGxRugPVPrVAL2btJElOUPczPNTX5XdSrkaIC59ymQ+oYAxU8KETEmXpP3lfD/dKP5XMs7D+hoOKf2Nq7hN/7knROanE46uHIfgD4WCBAAKyl8zwB8gKGzPF+FZ+qWusHHJ1mIzfw+1Zg7XakBPKkGRHtVtYqWF2meMBUdL6Z9xujTHc8RmSOiYifFdxJWL9Ng6R7srKqjEaUL1MbHclDb2zJuPib5PAAWEBACKwvuw4nETDv1GI8qtGlRKfqtesbSxvlsuJZu5auqs1FZUYvyBYmJ4Pkt7azJI77skJReoRjdIj08/Sh5mPLldj6ffUYnT18kVodnk0WkVkcqL7xpV0+22q4biQwIARVFfz97Bg+kjqghfTFYuYJJFVPp6aiLwG2vorqmN6Z2pxLDluWLkMwqKv+mTpfdW96gsqUWARk/7pMq0Jc8kTy4TZj85K/mlqC3Lww7RH5p6VE674XBGyR+KAisBQkl4aK4M9Kx7n17cTtvbpX4C9984zcJ0QS2F/7bPEC6ZdQ7G3tl2qxUeQ4Hgt4XsabcdXf0YlYBDGyTSs61tK+OZ6/W12JNKn95NWc7Mf7n1qKobCaDIUAGAknDQjvy+Q6HfiXh305ougZJe9ETvXJ3ezz+3SOayh+Ykt5g3r0SSFid8p/4byIwFZu+JaFvVM1QCjrpjeW3P5sQhLKGJGlX3oBKnCaOrdf/5xOY0BH8oFUgAoGQc9GP+j2cqTheWC/Tq61TqRHrov0d75Ex4N5U+sKEEkoBbj4jMZpHr9WJ+tzlmni8Z5+obTuKib/Q0dmJiY4eqzzNM15DYwVT6lcxVluzfHEcOW2+T6D8JoESgCwBKzowZEm2pywzOePYyZvMT6gKYab5+ujFD4fvqi9wlcMy9sqFJJa7WiwdTfpYGXm6Yf33rUZVFb/0fe2diLxb6q564dhSSSip9CbY8OhVK/uuuUb2wlgSUFCQAULIenRXfMOk4x2m9/SiNsP2p9CU0EZiqb6rrDtoxPEf7ei0Vib81MLlyMguP7Wig1MeR0vL6GyJ06QZHVT4UK+Lj8TfxccSMNGRO0dJLF9irgZPM8hp7fE7/UHRWDJv4QAlCAgAlrbFRwkuMt7/17AVCvHXpL+rSPj7gHcPmnMy6zvT6AZygIjn6dukdMskT9WK9rFkGN+u9DTRxaBVDzxsrsVuPqZpNRXTc3xOb2jSdTZZ+o8lMyS/NrEng53o/G/QYuPzWUZULCaBEIQGALmHK7PRgbY2epEfsb6m0lxFux8TN2u97jeHIPSOH8AdURNpnPlQTgIM1gdqXRDal758mt0ID2Czy7GQnRI/dXMT56aM1+eM3U/vofT9T7/de1AXoCfV1NvZaU139ADbxgVKHBAC6jCmvysbkuaM1GBwrwe57ny8JYvMIi73i4CHhxqJ1CYjwUdNW1EQ+j/7YkuNXUQaR8Gb6nTXb+jKt0qRqsX59viYJbxn23pJMzXsTxnB+BxLm4OSJK3vGpeL3enGU3rfB1AVoq386kbmSt4s+O2FI8Z47gGwhAYAuQ1uCPGku1YUk80u9erJ+bEOlL6k14dfI8hWH7BSaTEV2aINU9m1r60FeqCbjuO3ldCOSdshpoUTlyn7LKR6LFa+v33f8xNb+1po/WpLjNCGp45I/T2l/P8kUz9pxtx9b8wYBdBFIAKBLevg12cDNuDdpkDiA8zPSPXDaQrwoVBu5asQW1KrVgJJe56AYRo+XKo60/USsuUGvDqSSxx6TfdU4FFtRVfXkpHruCvtaAPwXEgDosl5aJJWffuZeoC3YX8qagFHq61q4mgZMcdjesgFFXxiCMvF/jf2bbGDdxKF6Qjqva3TvsCZx9jl2+KJbjyjuIEmAjkICAF3ao+9JRWq16w8QO1Vb2MO6wABBy0wfCtlb3HUrbinmLIFSEIuJWfKD+I5GnDM1OfqZdvPUUelbLMy3MZuGCaMq3iGALgoJAHR5/gp8JpMZZNJ0nB7Rx1JXwLxcA96DVenwefvtxk3UTY25PfETfc2u0OTNH+hX8rM7/P0QSOSvoVTltJuOpzZ05UBXhgQAysqUOenRGkxiemj3oxzmvReJ1WDytufY4+pC0Vf23S7wrXxLQkODOE+4bX1MyjmZPTpRuAvM7Sfyl0B+gcOVh936e15GAGUAewFAWXl9SPh2JnOYJgFT9axd9HXr18JoJWBQSJw7Eyl7xFNvyrpU5vwd/J5oTe5lkuZm7a75Y6kHf/aTNKL3mWRc1erKAxH8oZygAgBl6aG5yYHWOidoC/sIYepFpY5ptcaaSQ5XXObvjEhlyA/+vVuT9ZqcnaSF8+21dh6i0uYP2pyrZf4rJZN8csKY3iWz7TNAPiABgLL1ZKP0aLXpA8WYcZoIbEClz9U35AuWzE0/GOI8NITLZ5aAv5Z/RJwzNBk7Wlv+vakrYL5Xg/+f1/uo4oNir40AEAQkAFDWZsyQ0Oqe7k6eJ1dpq3MX6ho+0t6BP7v9nX+UwyyB0eOTm3FYrheh3bVF3YNKHBOnNEm5yHG8icVcChkgaEgAoFt4ZLb0z3D6VG1d/0aD0IbUFQhPIQ79yR1Cb9cze9TFHN8gNW5r8td68WytwGxGXQI/K2Sv3qe26pH6+q73nAPkAgkAdBv+dMFwIjNG+55P1RbextQVCD/Hhi7uWRl6adigrrO5zNiJiY3Fo8PFyGn6XPekksdxwzJVyLl4/FEV8wmgG0ACAN3OQ7Myw/ypdyTmQOKS317YXzjoY32r3ktO6KqR2/MqKmGHNojTqyX5EyY5SYj36wrbN2uC8jEZuokyleMnjGEM9INuAwkAdEvTX5R+8Qr3ZCtyvL4JSr5fWq3SSsC/Mm74T/U78wIqQUdOlGhEkof7/eeaAPQr9VH+2tfvCsurYcunS13LKzfX98P2vdCtIAGAbm3y7MxezHKlZdqWS38ZYX9LxIXMzp8qK51H9tu6NFYQjM2Q0LJF6R96nneeWPotdQVMTZoA3Jiuid44sd5flRGg+0ECAN3e1FdkK89N/5nZDNMIW/JT1PRN2ywkN0QkcufPf0yaEBRvipq/gx+FUntoEnWOiOxJJb76onaneCT8H33+bkubylvvGsVJAuimkABAt6eBi6fOTW1qhX9n2Byr19ejUn9vMLWylekmxOMO2iHSSEVwSoNUJppTR1tj/bn921LJryzqb9crz2u159bVNZXTsH0vdHdIAAC+0DBPapy4tzeRd4GWh4dQ6fOnqb0tRv70yx0rplABndKwundba+RmPYHs30V28Evp2e5mw3z959XRRZMwxQ8ACQDAV/kb1ZiBme2NlVPbZwmQVFOJv0+0C+AzLWNMcqx39YidK793gKBf7Rh2F1V82/f6VlPm+wKjf9sz7qGqVV58L2PpFG3w/0S/WuLjJvzHIwuY5IoqcR+45pge3XbnRYBvQgIA8C2mNUqVtakjLfHxGmG3pNLfWTCj9/MhFrqp55DQC8OY3S+/cehNUtPcnOqf8WxvcmxP48oW+rPtj0eE+vuftW9cPLLLHTZLtY6vn2VJIl3z8czY/609cOLE1JZp6x6m1ZFjhdbcrpRpYtSsScuTISOX9Tuyam6MsZwvwFchAQD4DjNmSHR1nbuXWDpdSIZTFyBM72swv/yND8LTX3g3uZFn3B1YZHsmZ0t9DAP1R/yNkb4vmUlq4PxEf9O7IvZtJvNKxnr/HjSgss713NM0+B/QNZbzpc81A7jesXzfzcdEy3JzJYDOQgIAsBb+zoKemDNJ6Hd6taQXtnG1jfvup96y2e/bT1pTVKdBfz19k1dSB/hb4Yq//oDQR9WVXLtOLW8Sdkq+EuLTgM+j0ibaiFH+AN8NCQBAFh56R2qlzTvAWhvTq1tSCdEyN6W14L/oc6G3Fnu0ooUo5Ypf3s8brSpQSPsGqiuYelQRhUMld+qwWrloteI9bIivXe+oqldQ8gf4fkgAAHIw5dXMUO0sP02j635UIivdLVu9JvC/t9RSpgBj26Nhoh6VTNVaCzGmZE4h2vXBd1Zy9JZrR5X2cskApQIJAECO/J0FU8b1N7n5rba/16Mi8evzftB/baFHy1vy2NzPgh/367RjoUeV0WoAFZUWJp71iP/K20WfnTCEMwQAWUECANABU16Vnp6X+bUROl6vbkMFltYS/3ufCc39wKPmZGGD/5f8boEa7RLoWU1UES7GqYTjJPYRDf5X3nFM1WwCgJwgAQDooEdnSV3KcXewIpdqMPQXDipIW9jzhN5cZOmVhZbi6eIE/y/5lYDKCFPfOqZQQYcHymqtwNxoperW24/lxQQAOUMCANBJLy2SyqVL0+fp2+lwvTqAAlwS17NE8xZbevFdt/1yqYhq6tO3BwdeCWDihKY8z3shueCOI9DqB+gMJAAAedAwTyKRlvQIMXSWGN6WAthZ8Ms+/2fmlVbw/1KVdgf0C7YS0CQkD+ofuPK2I6LvEgB0ChIAgDzxlxF2fpjZgTN0rNYAjsh3EvD+Z5Zeelf7/BPFLft/F39MQG2UqU8tk8lvDUQfML9FIhNCjn3gpiOrP2Pm0nwSALoQJAAAeRQTMdu8SgOMTf/OWj5Pg2JeFg5qSQo9/ZZLi5tKO+45ekZZRxOA2kpuTwjyQ14XjhwfToTeuPmE/1uaGAA6BwkAQECmzk3sKdZcJ8xbaRu2oqO/J+MKzVmwZrqf7QLt3gp/PIB2BUQjnTq9iKYQbdrx8Y/xR1ePJgDIuxLfvxug6zp4x8rntRV8hEbtRzXXbqYO8uf4L1phOx38jWYhYYfSkTB94jjUqPdt5pcfhmm+YVmlnzu9lFDKJWpLaeju4DgFTRtc/WeR/oYzxE2dQQAQCFQAAAL2YKOsZyTz/4T4NG3YbpjLbf2V/Z5/x6X5Szo+6s9/k1eEqTkSMv+qjNCcvtXmHa5wX73usJrPvvyZX17ftn0mQ9tnXN5cU419XY8GieYL1EGONi3W72X8v9uBO2zvN+RM+Lwm+sKkek4TAAQCCQBAAfizBEItyZ3E8F+ZzV7Z3m5VXOj+lzOdWuK3dzW/5ll72Xo9nRdvPqpq0ff97JGxBdGWmnU2Tlizf8byxZ4nHdpIyNeziqlPXfanGC35p0js1Y4j1988qmYpAUCgkAAAFNADjaktWfgELbWP0hZ29dp+/t/veTRnQe7R339ja5m/rXclX1nXw7lnwpHRD3K5/dCJEq1d1bpbOm2ucT3ZUjowo8FfJGjjviaLGQGc1Fb/O5oAjFsvU/lwbAzHCQAChwQAoMD8akA4kTlOg+oxenXr7/o5Dbx013MuJTO5d/5rX39bj0q6ZdM+7iXjfttzJXXQiGviuyfTdLHn2j30XuQ8w99fF6Cu6vtOM5xmlscs29hto2peIwAoGCQAAEUyZXbip8Kh44nkAL36P9MF/Sl/Uxtz39tGW97pvj3MLRvUepdc+fvaZdRJI65qGZbM8L2uR+tTjvy9Avr35G8/0wh9TMy3eLXRCXfUcxMBQEFhFgBAkWQWRmdyKHSasJmo5e8V3/z+J00dG/hXG+VPe0bNLfkI/r5pp9XOqDAyjjogY4Uy3rdUMJjf1HrCOVSbuAXBH6A4kAAAFEl9PXsjt+eFXqVzppbA/6hR8WuB8NPVHUsA+vagCbccHf0P5VFL35rbImHKOaHwvDXTAr/kT/FjpsleyBxWsW7lgxPqe68mACgKdAEAlIhp/5ZNPHavE6bdVyds78dfd2l5c279/71refEDJ1UPoAAccFnrqLTHt1uRrBsO/gDAnpXsrw6oN6NFHJJLIs1Vf7vhJE4RABRVQbYvBYC1G7EzL3h0lhwfN+kTW+IyyvW4b/uCeDmIsEyioBhvvhGz0nq8TrY3ES1iuJb8TYtf1qsTxh9ZfR8BQElAFwBACTlgF15sqyKXL1xh70tkbEsutw0ZklaXn6aAVJiKlSHjvJHLbfz6RcqV/7jEF62sq3yAAKBkIAEAKDH1W3PT/MV2btI1OS0fXBHmVMQxHV5yeG1CPSpWaIt+LuUo7dKSpZ97b2NVP4DSggQAoASlLW1I1tbkchvtb7dhhwLbLmjSMdyUtvIOAUBZQAIAUIosJdn/t4T4ywQbIzklJQBQupAAAJQgw7RMmHJaEleETMYLbmbP6uo+dWHmzQkAygISAIASJGz94O/mcptkRiKuZ7MeoZ8rNyq99dNgypElWR2PV68gACgpSAAAShE7S1gokctNXI9MTaUZQQGxaertkWxBOWIxiZkxzimZAYDgIQEAKEEepZdr6GyjHMUT9sCzGqQHBUGcn2dcyqnCoP0RTczyJgFAyUECAFCCZp7Ta6EwfUw5WhWXPp+vjJ9IeTZ6vFR5Lh1GORKiZj3N5Pw4ACB4SAAASpWlV6kDPmulI0+7N7UV5dGS1raLMp5sTDnyNzkKscE2vwAlCAkAQIliYydTB8STMvDdz9wz/nDv53WUByOva/l1OkXHdGSBARF5e9dUxYcEACUHmwEBlLC9L2l9Tevo21GOIiHyqiuooW8vc0b/31d+GmPOeU2BA2NSRdWJY5KunO1ZWY86wGE+6Mlzq6cRAJQcbAYEUMqEJ+k/OScAaZcc/VTvrpA29/a2G/RyTmv4H3p9S99kKn5I0qVTOxr81YpMZfo5AoCShAoAQAnb5/LkD63rPiVCG1EH+H18kQjNWafO3FcXde+56Yi6z9d2m0OuahvRlqHfW5HhnqVOzCiQi545rzZGAFCSUAEAKGFi48tEwo9orn4cdYBf909neMflq2TgaseMPPr2+NzaME269oiql7/6c/tfLxUVNnFsOu0NbcnwdtbazTTp6HgDgXmxJftPAoCShQoAQIkb+te2IQ7bGzQe70J5EnLI6xE18aRrP065FHEthZm4j6YclSLidOrUwJRhoSu99av/PHMUJwkAShIqAAAlrtatmt8WaXuQhLfWAJ2XzXhcj5zP22ytXhz05dfkvxsJdqpdICwyS3/HPxH8AUobpgEClLiHYxy3jvmnxmV/QF1pL6nL9Bmxc33vH1bPIwAoaUgAALqAmWdVLTaunK0N7FKeU5/S0v/EqnTlo5Pq2SMAKGlIAAC6iCcvqH6L2TlPm9klt7MeE6f1n4ZQpXelX7EgACh5SAAAughmFr91zUxaCaCSSQL84C8iT2nr/4zpp/ZoIgDoEjALAKCLGXqT1JiVrUdqNeAPQvaHVMT3cXvLX+xzIcunT7+g+g3NUjqyYjAAFAEqAABdzMwTuNWEau4hhy4kssXcaU9b/vZvVoP/rrb6TQR/gK4FFQCALmrXq6Wytq11V8/ha0VoGyooTpDIdSFXrtmNalbEYrnvNQAAxYUEAKCL2/+Slr5JobEsfCgzbaHN8AgFww/yzVr2f9qwveHJc2ufJQDospAAAJSBoTEJkdO6hwmZ/6ct8wOog3sHfBcN+nH95xlhO906/MDMM2uWEgB0aUgAAMqIJgJRDrftbqzsJYb21sD9485UBLSi8KmeJJ4Xdqbp5eefOruymGMOACCPkAAAlBsRHnrRqh4UcfqHrLOFZW8vYrO3dhH8SEiySQY+EaG39OTwmCHbmAg7H754VvUnBABlBQkAQDex/x+kItOvdVNxzBaaCGzc/kWRnu2fWZLsOe8wu0sNhZeko26ipbU23nghJRij+wEAAAAAAAAAAAAAAAAAAAAAAAAAAAAAAAAAAAAAAAAAAAAAAAAAAAAAAAAAAAAAAAAAAAAAAAAAAAAAAAAAAAAAAAAAAAAAAAAAAAAAAAAAAAAAAAAAAAAAAAAAAAAAAAAAAAAAAAAAAAAAAAAAAAAAAAAAAAAAAAAAAAAAAAAAAAAAAAAAAAAAAAAAAAAAAAAAAAAAAAAAAAAAAAAAAAAAAAAAAAAAAAAAAAAAAAAAAAAAAAAAAAAAAAAAAAAAAAAAAAAAAAAAAAAAAAAAAAAAAAAAAAAAAAAAAAAAAAAAAAAAAAAAAAAAAAAAAAAAAAAAAAAAAAAAAAAAAAAAAAAAAAAAAAAAAAAAAAAAAAAAAAAAAAAAAAAAAAAAAAAAAAAAAAAAAAAAAAAAAAAAAAAAAAAAAAAAAAAAAAAAAAAAAAAAAAAAAAAAAAAAAAAAAAAAAAAAAAAAAAAAAAAAAAAAAAAAAAAAAAAAAAAAAAAAAAAAAAAAAAAAACC//j+iReetk2HwtgAAAABJRU5ErkJggg==;" parent="1" vertex="1">
          <mxGeometry x="681.5" y="125" width="112" height="112" as="geometry" />
        </mxCell>
        <mxCell id="i5Sq17mRc4E7U_H6DiuM-21" value="&lt;span style=&quot;font-size: 15px;&quot;&gt;Os &lt;b&gt;áudios &lt;/b&gt;passarão pelo modelo &lt;b&gt;Google Speech to Text&lt;/b&gt;, onde poderemos &lt;b&gt;converter a conversa (mesmo ruidosa e com diferentes sotaques)&lt;/b&gt; para um &lt;b&gt;dado no formato de texto&lt;/b&gt;, que será&lt;b&gt; armazenado &lt;/b&gt;novamente no&lt;b&gt; Google Cloud Storage&lt;/b&gt;&lt;/span&gt;" style="text;html=1;align=center;verticalAlign=middle;whiteSpace=wrap;rounded=0;" parent="1" vertex="1">
          <mxGeometry x="637.5" y="210" width="200" height="240" as="geometry" />
        </mxCell>
        <mxCell id="i5Sq17mRc4E7U_H6DiuM-22" value="" style="rounded=1;whiteSpace=wrap;html=1;fillColor=#f8cecc;strokeColor=#b85450;fillStyle=auto;" parent="1" vertex="1">
          <mxGeometry x="1150" y="40" width="200" height="410" as="geometry" />
        </mxCell>
        <mxCell id="i5Sq17mRc4E7U_H6DiuM-24" value="&lt;span style=&quot;font-size: 21px;&quot;&gt;&lt;b&gt;Plataforma WEB&lt;/b&gt;&lt;/span&gt;" style="text;html=1;align=center;verticalAlign=middle;whiteSpace=wrap;rounded=0;" parent="1" vertex="1">
          <mxGeometry x="1170" y="60" width="160" height="60" as="geometry" />
        </mxCell>
        <mxCell id="i5Sq17mRc4E7U_H6DiuM-25" value="" style="shape=image;verticalLabelPosition=bottom;labelBackgroundColor=default;verticalAlign=top;aspect=fixed;imageAspect=0;image=https://seeklogo.com/images/S/streamlit-logo-1A3B208AE4-seeklogo.com.png;" parent="1" vertex="1">
          <mxGeometry x="1194.79" y="140" width="110.43" height="60" as="geometry" />
        </mxCell>
        <mxCell id="i5Sq17mRc4E7U_H6DiuM-26" value="&lt;span style=&quot;font-size: 15px;&quot;&gt;Na &lt;b&gt;plataforma web&lt;/b&gt;, será possível tanto &lt;b&gt;analisar as notas de um áudio individual &lt;/b&gt;que pode ser enviado, quanto ver um &lt;b&gt;overview das notas que foram extraídas de todos os áudios&lt;/b&gt; enviados. A solução será feita no &lt;b&gt;Streamlit &lt;/b&gt;e será &lt;b&gt;executada via Google Compute Engine&lt;/b&gt;&lt;/span&gt;" style="text;html=1;align=center;verticalAlign=middle;whiteSpace=wrap;rounded=0;" parent="1" vertex="1">
          <mxGeometry x="1150" y="230" width="200" height="220" as="geometry" />
        </mxCell>
        <mxCell id="i5Sq17mRc4E7U_H6DiuM-29" value="" style="shape=image;verticalLabelPosition=bottom;labelBackgroundColor=default;verticalAlign=top;aspect=fixed;imageAspect=0;image=https://k21academy.com/wp-content/uploads/2021/01/Google_Compute_Engine-Logo.png;" parent="1" vertex="1">
          <mxGeometry x="1275" y="185" width="75" height="50" as="geometry" />
        </mxCell>
        <mxCell id="KWvplseUJ8ZIvvT5c59l-1" value="" style="shape=image;verticalLabelPosition=bottom;labelBackgroundColor=default;verticalAlign=top;aspect=fixed;imageAspect=0;image=data:image/png,iVBORw0KGgoAAAANSUhEUgAAAgAAAAIACAYAAAD0eNT6AAAAAXNSR0IArs4c6QAAIABJREFUeAHt3XuQPWldHvDvwnINggQQEGNSgMhVTSAxRDRyMyq3UlJGhFKwiGAgolwS1ruxpFDLEk0oJGhAxJQFKwIbCIakEgv+kEpBgSZWxHAxgOEmUVBgd4XNvFNzdH67/cxMz+n3THefz6namtnTPed0f96n336mzznzq3IjQIAAAQIECBAgQIAAAQIECBAgQIAAAQIECBAgQIAAAQIECBAgQIAAAQIECBAgQIAAAQIECBAgQIAAAQIECBAgQIAAAQIECBAgQIAAAQIECBAgQIAAAQIECBAgQIAAAQIECBAgQIAAAQIECBAgQIAAAQIECBAgQIAAAQIECBAgQIAAAQIECBAgQIAAAQIECBAgQIAAAQIECBAgQIAAAQIECBAgQIAAAQIECBAgQIAAAQIECBAgQIAAAQIECBAgQIAAAQIECBAgQIAAAQIECBAgQIAAAQIECBAgQIAAAQIECBAgQIAAAQIECBAgQIAAAQIECBAgQIAAAQIECBAgQIAAAQIECBAgQIAAAQIECBAgQIAAAQIECBAgQIAAAQIECBAgQIAAAQIECBAgQIAAAQIECBAgQIAAAQIECBAgQIAAAQIECBAgQIAAAQIECBAgQIAAAQIECBAgQIAAAQIECBAgQIAAAQIECBAgQIAAAQIECBAgQIAAAQIECBAgQIAAAQIECBAgQIAAAQIECBAgQIAAAQIECBAgQIAAAQIECBAgQIAAAQIECBAgQIAAAQIECBAgQIAAAQIECBAgQIAAAQIECBAgQIAAAQIECBAgQIAAAQIECBAgQIAAAQIECBAgQIAAAQIECBAgQIAAAQIECBAgQIAAAQIECBAgQIAAAQIECBAgQIAAAQIECBAgQIAAAQIECBAgQIAAAQIECBAgQIAAAQIECBAgQIAAAQIECBAgQIAAAQIECBAgQIAAAQIECBAgQIAAAQIECBAgQIAAAQIECBAgQIAAAQIECBAgQIAAAQIECBAgQIAAAQIECBAgQIAAAQIECBAgQIAAAQIECBAgQIAAAQIECBAgQIAAAQIECBAgQIAAAQIECBAgQIAAAQIECBAgQIAAAQIECBAgQIAAAQIECBAgQIAAAQIECBAgQIAAAQIECBAgQIAAAQIECBAgQIAAAQIECBAgQIAAAQIECBAgQIAAAQIECBAgQIAAAQIECBAgQIAAAQIECBAgQIAAAQIECBAgQIAAAQIECBAgQIAAAQIECBAgQIAAAQIECBAgQIAAAQIE/krgy6rqKVX1oqq6sqreVFVXVdXLq+r7q+phVXWLv1rddwQIECBAgMBSBdoJ/dlV9XtVdd0Z/vuTqnpxVd1jqTtsuwkQIECAwL4LfH1VvfcMJ/2hYnB1VT2vqi7fd0T7T4AAAQIEliTwnVV17TlP/scLQXuZ4POWtOO2lQABAgQI7KvAYyY48R8vAa/eV0j7TYAAAQIEliJw+6r6yMQFoJWBJywFwHYSIECAAIF9FGhv+Dv+2/tU3//OPmLaZwIECBAgsBSBd3YqAK1ItI8RuhEgQIAAAQIzE7jxwef5r+lYAB4/s/21OQQIECBAgEBV3aXjyb9dAbiCMgECBAgQIDA/gXt2LgDt7wK4ESBAgAABAjMTUABmNiA2hwABAgQI7EJAAdiFsucgQIAAAQIzE1AAZjYgNocAAQIECOxCQAHYhbLnIECAAAECMxNQAGY2IDaHAAECBAjsQkAB2IWy5yBAgAABAjMTUABmNiA2hwABAgQI7EJAAdiFsucgQIAAAQIzE1AAZjYgNocAAQIECOxCQAHYhbLnIECAAAECMxNQAGY2IDaHAAECBAjsQkAB2IWy5yBAgAABAjMTUABmNiA2hwABAgQI7EJAAdiFsucgQIAAAQIzE1AAZjYgNocAAQIECOxCQAHYhbLnIECAAAECMxNQAGY2IDaHAAECBAjsQkAB2IWy5yBAgAABAjMTUABmNiA2hwABAgQI7EJAAdiFsucgQIAAAQIzE1AAZjYgNocAAQIECOxCQAHYhbLnIECAAAECMxNQAGY2IDaHAAECBAjsQkAB2IWy5yBAgAABAjMTUABmNiA2hwABAgQI7EJAAdiFsucgQIAAAQIzE1AAZjYgNocAAQIECOxCQAHYhbLnIECAAAECMxNQAGY2IDaHAAECBAjsQkAB2IWy5yBAgAABAjMTUABmNiA2hwABAr0EblRVt6uqu1bVHarqJr2eyOMuQmBfCsBNq+qOVXWnqrr5IkbGRhIgQGBLgXbCf/jBxPcLVfWOqrq2qq479t/nqup/HRSCl1fVY6vqZls+nx9flsBaC0A72X9vVb22qj50LO+b7H+sqt5QVVdU1d9Y1pDZWgIECJwscFlVPaGq/nBg8ttMgkNf28T4LFcGTsZd0dK1FYC7VNUrBoruUNY39332qCjcfUXjalcIENhTgc+vqjeNPPFvJsPN19+pqr+1p377tNtrKgDfelBeP7lF7j9TVU/bp8G3rwQIrEugva7/u1tMgpsC0L5+sKraCcJtvQJrKQDtxN1+kz+e3/N+/2PrHW57RoDAmgWunGgS3Eye/8ObptYcl8OCtxnrHl+ftwO9B1TVNRPn/lE72G5PQYAAgckEHjPxJLg5IfyLybbQA81NYA1XAKa64rXJe/v6R1XVPjngRoAAgUUIvL5TAXhXVbU3FbqtT2DpBeAfdMp8KwHfvL7htkcECKxRoH22+fof8Tv+G822399njWj2afEvAfxUxwLwK/JBgACBJQh8SceJsJWHRy4BwTaOFlj6FYBXdcz9m0dr+gECBAhcgMDXdJwIWwF4ygXsk6fsL7D0AvCWjrl/b39+z0CAAIHtBR7acSJsBeDp22+iR5ihwNILwFs75v4DMxwvm0SAAIEbCCgANyBxxxkEFID8twMUgDMEyCoECFy8gAJw8WOwxC1QABSAJebWNhMgcExAATiG4dszCygACsCZw2JFAgTmKaAAzHNc5r5VCoACMPeM2j4CBE4RUABOAbJ4UEABUAAGg+FOAgSWI6AALGes5rSlCoACMKc82hYCBM4hoACcA82PLP4vAfoYoBATILD3AgrA3kfgXACuALgCcK7g+CECBOYjoADMZyyWtCUKgAKwpLzaVgIEBgQUgAEUd50qoAAoAKeGxAoECMxbQAGY9/jMdesUAAVgrtm0XQQInFFAATgjlNUuEVAAFIBLAuF/CBBYnoACsLwxm8MWKwAKwBxyaBsIENhCQAHYAm+Pf1QBUAD2OP52ncA6BBSAdYzjrvdCAVAAdp05z0eAwMQCCsDEoHvycAqAArAnUbebBNYroACsd2x77pkCoAD0zJfHJkBgBwIKwA6QV/gUCoACsMJY2yUC+yWgAOzXeE+1twqAAjBVljwOAQIXJKAAXBD8wp9WAVAAFh5hm0+AgAIgA+cRUAAUgPPkxs8QIDAjAQVgRoOxoE1RABSABcXVphIgMCSgAAypuO80AQVAATgtI5YTIDBzAQVg5gM0081TABSAmUbTZhEgcFYBBeCsUtY7LqAAKADH8+B7AgQWKKAALHDQZrDJCoACMIMY2gQCBLYRUAC20ev/szeqqi+qqvtW1f2r6h5Vddv+T3vqMygACsCpIbECAQLzFlAA5jc+d6qqZ1bVf6mqP63hE817D8rAv6+qx1TVTS5gFxSA4XG5rqo+cAHj4SkJECAwWkABGE3W7QduV1Uvrqprw0m/nVyG/vujqnpiVV3Wbctu+MAKwPBYKAA3zIp7COytwI2r6ssOfit4clU9/2iCf2lV/WxVXVFVDz/4/jYXqKMAXCD+saf+6qr6aDjBD530h+570w6zpAAoAMfiO9m3t66qNif9y6r6map6SVW9qKqeV1XfWVX3qar2spgbgVkLfPHRCf+DZ5jUr6mq11TVIy5gjxSAC0C/3lP+o4MJ79NnyMnQSf/6971jRyVAAVAArhfjrf73G6vqNw5+Kbr6DMfB+w9e9vqJo/fGbPWkfpjA1AKXV9UPVtWfnyHI15+82/+33+K+ZOqNOuHxFIATcHaw6Auq6kPnzMpQftp9L9/BdisACsAUMbt7Vf2nc+b/z46uorarrG4ELlzglgfv1L7qnGE+Ppl//OANYO2S8C5uCsAulPNz/OIEeTmenc33vfOjACgAOdVnW/KVE7zs1fL+uqpqc68bgQsTaG/AmuLkv5nA2xWEe+1gbxSAHSCHp7jVwbv9P9GpALwsPOdUdysACsA2WWpz23mvkm7myONf20uobgQuTOC7Okzkb6uq9pJCz5sC0FP35Md+ZIfMbCbF9obCnjcFQAE4b77anNbmtk1Wp/ra3mjtRmDnAu23/3d3CHQ7MNpJoudNAeipe/JjP61TZjYTarvC0OumAOQTmL8DcHLqHt0p9+1vY/iEwMn2lnYQ6HkSvbLD9h5/yJ7b3k5ETz/+ZL6/RODHO02EmwLQ/mpgr5sCoACcN1u/3jH3X3vejfJzBM4r8JyOgX7PeTfqjD+nAJwRqsNq7bPNm5N1j68930OiAOSxcwXg5IPlfR1z3/6CphuBnQr8fMdAt78R0PNjLgrATqNyyZMpAPkk2mx63t7a8ZhVAPLItUv0bU7rUXjbY74gP7UlBPoI/HLHQLdQt7+O1eumAPSSPf1xFYB8IlAATs/PEtf4vM5zZZuL3QjsVEAByBO59wDkKCoAOTcKQM7NkpcoAEsePds+KKAA5IlcARiMzOGdCkDOjQKQc7PkJQrAkkfPtg8KKAB5IlcABiNzeKcCkHOjAOTcLHmJArDk0bPtgwIKQJ7IFYDByBzeqQDk3CgAOTdLXqIALHn0bPuggAKQJ3IFYDAyh3cqADk3CkDOzZKXKABLHj3bPiigAOSJXAEYjMzhnQpAzo0CkHOz5CUKwJJHz7YPCigAeSJXAAYjc3inApBzowDk3Cx5iQKw5NGz7YMCCkCeyBWAwcgc3qkA5NwoADk3S16iACx59Gz7oIACkCdyBWAwMod3KgA5NwpAzs2SlygASx492z4ooADkiVwBGIzM4Z0KQM6NApBzs+QlCsCSR8+2DwooAHkiVwAGI3N4pwKQc6MA5NwseYkCsOTRs+2DAgpAnsgVgMHIHN6pAOTcKAA5N0teogAsefRs+6CAApAncgVgMDKHdyoAOTcKQM7NkpcoAEsePds+KKAA5IlcARiMzOGdCkDOjQKQc7PkJQrAkkfPtg8KKAB5IlcABiNzeKcCkHOjAOTcLHmJArDk0bPtgwIKQJ7IFYDByBzeqQDk3CgAOTdLXqIALHn0bPuggAKQJ3IFYDAyh3cqADk3CkDOzZKXKABLHj3bPiigAOSJXAEYjMzhnQpAzo0CkHOz5CUKwJJHz7YPCigAeSJXAAYjc3inApBzowDk3Cx5iQKw5NG7oG2/SVU9oKq+++D5f7Sqfq6qfrqqfqCqHldVd7ug7do8rQKQJ3IFYJOSG35VAHJuFIAb5uWs93x+VX1dVX1fVf1YVT2/qn64qtqx+KCquuVZH6jDemsvAO1c9G1H56Z2jmrnqnbOeurROaydy9zOKPCVVfXvquoTlSeK646Wvfso5Hc+42NPuZoCkMdHAchJUwBybhSAnJuhJTetqu+oqv92MA9+7pT58pqqek1VPeqgIFw29GAd71tjAWjnnB+pqvec4t7OVe1c9ktV9fc6Gi/+oe9UVb96hiBvTv7HvzbgZ1fVjXeooADkiVwByEFUAHJuFICcm+svab/t//4ZTj7H58nN92+pqi+//gN2/P81FYB2jnlOVX3yHPatpL2iqu7Y0XqRD33vqvrDc4BuAr35+tqqusWOBBSAPJErADmECkDOjQKQc3N8yTOq6rNbzpefqap/fPxBO36/lgJw86p61Zbu7Vz1waq6X0fvRT30Fx28TvWxCVA3JeB1O7rEpQDkiVwByIegApBzowDk3GyWtJP/Zq7b9utfHL1vYPPYvb6uoQC0l03eMKH9R6rqC3uBL+VxG+qbJkTdHBDtzRe9bwpAnogUgJw+BSDnRgHIuWlL7ltVn554vmy/jd7u5KfdeukaCsDTJnZv56o3bi278Ado707dnLSn/PqBHbwfQAHIY6cA5ANTAci5UQBybtqS9h6pKefJzWNdcfLTbr106QXg8qPL9huvKb8+cGvdBT/ASzoFug3QN3R2UQDyZKQA5PApADk3CkDOzW2q6lOd5st35aedZMnSC8AjOrm389SLJxFe6IO8syNs+wxsz5sCkCdyBSAnTwHIuVEAcm6+uuNc2U5Et81PvfWSpReA9pn+KX/rP/5Yb99ad8EP8PGOsO3qQs+bApAPiosuADc7+sztNx18uuRJR5+VfszB56C/oqra5byLvCkAOTcKQE5m+0Mzx08cU3/f82OBSy8A7TP8U3tvHq+9AX5vbxuEHl9f3VlVAcgHxUUUgFsfvE73T6vqt6rq6hMO2D8/evPN43f4kdHjUVQAcm4UgONJufT7Hm9COz7vPuTSp5v0/5ZeANq55LjV1N9Pir2kB5sa8vjjKQA5CQ/tHOhdFoAbHfw1rm+vqvaxmuPjf5bv2zug28/u8i+jKQB5nBSAfMy2Y+osmT7vOm1O6HVTAE4eu17us3/c84b1LD+nAOThX0sBaH/f/KoJJsaXVdWu/l63ApAnQwUgH7MKQM5Nuxrb8+YKQCfds5zIz7uOApAHbQ0FoL2W/+YJTv6bfP1a5pp0iQKQJ3IFIEdNAci5UQBybma9ZDP59viqAOShX0MB+FcTnvw3+XtyJptsiQKQJ3IFIMdMAci5UQBybma9ZDPx9viqAOShX3oBuMMpb/Q7b54+WlXtX1jreVMA8kSuAOTkKQA5NwpAzs2sl5x3oj7LzykAeeiXXgDav3l+lgycZ53HZrZJligAeewUgBwxBSDnRgHIuZn1kvNM0Gf9GQUgD/3SC0D7Vx/PmoOx6/3rzDbJEgUgj50CkCOmAOTcKAA5N7NeMnZyHrO+ApCHfukFoP31rDFZGLNuKxc9bwpAHjsFICdPAci5UQBybma9ZMzEPHZdBSAP/dILwPs7FoDfzmyTLFEA8kSuAOSIKQA5NwpAzs2sl4w9qY9ZXwHIQ7/0AtD+tccxWRiz7lsz2yRLFIA8dgpAjpgCkHOjAOTczHrJmIl57LoKQB56BSBPJgpAzs09OxavdnwrANleAcjHrAKQczPrJWNP6mPWVwDy0CsAeTJRAHJuFICcm3ZVqudNAcj2CkDP5HV87DEn9LHrKgB54BSAPJkoADk3CkDOjQKQc+PfAsi5aee1vb2NPamPWV8ByLFSAPIBqQDk3CgAOTcKQM6NApBzowB0el1RAcgHpAKQD0gFIOdGAci5UQBybhSAnBsFQAEYfEd7+/fte90UgHxAKgA5dQpAzo0CkHOjAOTcKAAKgAKQ547BJW2yHfNy0Jh1FYBB8sM7FYCcOwUg50YByLlRADpN5l4CyAekKwD5gFQAcm4UgJwbBSDnRgHIuVEAFIDB32a9BJAnFFcA8oRyr8y29RIFILsrADleCkDOjQKgACgAee4YXKIA5AlFARiMzOGd7erOmJeDxqyrAGR3BeDk3GW5lS8Zc4CNXddLADk8XgLIB6SXAHJuXAHIuVEAcm4UgJybdl7b29vYk/qY9RWAHCsFIB+QCkDOjQKQc6MA5NwoADk3CkCny3IKQD4gFYB8QCoAOTcKQM6NApBzowDk3CgACsDg65LeBJgnlDbZjrkaNGZdBSC7KwA5dwpAzo0CkHOjAHSazF0ByAekKwD5gFQAcm4UgJwbBSDnRgHIuVEAFIDB32ZdAcgTiisAeULxKYCcm1buxlwNGrOuApDdFYCTc5flVr5kzAE2dl1XAHJ4XAHIB6QrADk3rgDk3CgAOTcKQM5NO6/t7W3sSX3M+gpAjpUCkA9IBSDnRgHIuVEAcm4UgJwbBaDTZTkFIB+QCkA+IBWAnBsFIOdGAci5UQBybhQABWDwdUnvAcgTSptsx1wNGrOuApDdFYCcOwUg50YByLlRADpN5q4A5APSFYB8QCoAOTcKQM6NApBzowDk3CgACsDgb7OuAOQJxRWAPKH4FEDOTSt3Y64GjVlXAcjuCsDJuctyK18y5gAbu64rADk8rgDkA9IVgJwbVwBybhSAnBsFIOemndf29jb2pD5mfQUgx0oByAekApBzowDk3CgAOTcKQM6NAtDpspwCkA9IBSAfkApAzo0CkHOjAOTcKAA5NwqAAjD4uqT3AOQJpU22Y64GjVlXAcjuCkDOnQKQc6MA5NwoAJ0mc1cA8gHpCkA+IBWAnBsFIOdGAci5UQBybhQABWDwt1lXAPKE4gpAnlB8CiDnppW7MVeDxqyrAGR3BeDk3GW5lS8Zc4CNXdcVgBweVwDyAekKQM6NKwA5NwpAzo0CkHPTzmt7ext7Uh+zvgKQY6UA5ANSAci5UQBybhSAnBsFIOdGAeh0WU4ByAekApAPSAUg50YByLlRAHJuFICcGwVAARh8XdJ7APKE0ibbMVeDxqyrAGR3BSDnTgHIuVEAcm4UgE6TuSsA+YB0BSAfkApAzo0CkHOjAOTcKAA5NwqAAjD426wrAHlCcQUgTyg+BZBz08rdmKtBY9ZVALK7AnBy7rLcypeMOcDGrusKQA6PKwD5gHQFIOfGFYCcGwUg50YByLlp57W9vY09qY9ZXwHIsVIA8gGpAOTcKAA5NwpAzo0CkHOjAHS6LKcA5ANSAcgHpAKQc6MA5NwoADk3CkDOjQKgAAy+Luk9AHlCaZPtmKtBY9ZVALK7ApBzpwDk3CgAOTcKQKfJ3BWAfEC6ApAPSAUg50YByLlRAHJuFICcGwVAARj8bdYVgDyhuAKQJxSfAsi5aeVuzNWgMesqANldATg5d1lu5UvGHGBj13UFIIfHFYB8QLoCkHPjCkDOjQKQc6MA5Ny089re3sae1MesrwDkWCkA+YBUAHJuFICcGwUg50YByLlRADpdllMA8gGpAOQDUgHIuVEAcm4UgJwbBSDnRgFQAAZfl/QegDyhtMl2zNWgMesqANldAci5UwBybhSAnBsFoNNk7gpAPiBdAcgHpAKQc6MA5NwoADk3CkDOjQKgAAz+NusKQJ5QXAHIE4pPAeTctHI35mrQmHUVgOyuAJycuyy38iVjDrCx67oCkMPjCkA+IF0ByLlxBSDnRgHIuVEAcm7aeW1vb2NP6mPWVwByrBSAfEAqADk3CkDOjQKQc6MA5NwoAJ0uyykA+YBUAPIBqQDk3CgAOTcKQM6NApBzowAoAIOvS3oPQJ5Q2mQ75mrQmHUVgOyuAOTcKQA5NwpAzo0C0GkydwUgH5CuAOQDUgHIuVEAcm4UgJwbBSDnRgFQAAZ/m3UFIE8orgDkCcWnAHJuWrkbczVozLoKQHZXAE7OXZZb+ZIxB9jYdV0ByOFxBSAfkK4A5Ny4ApBzowDk3CgAOTftvLa3t7En9THrKwA5VgpAPiAVgJwbBSDnRgHIuVEAcm4UgE6X5RSAfEAqAPmAVABybhSAnBsFIOdGAci5UQAUgMHXJb0HIE8obbIdczVozLoKQHZXAHLuFICcGwUg50YB6DSZuwKQD0hXAPIBqQDk3CgAOTcKQM6NApBzowAoAIO/zboCkCcUVwDyhOJTADk3rdyNuRo0Zl0FILsrACfnLsutfMmYA2zsuq4A5PC4ApAPSFcAcm5cAci5UQBybhSAnJt2Xtvb29iT+pj1FYAcKwUgH5AKQM6NApBzowDk3CgAOTcKQKfLcgpAPiAVgHxAKgA5NwpAzo0CkHOjAOTcKAAKwODrkt4DkCeUNtmOuRo0Zl0FILsrADl3CkDOjQKQc6MAdJrMXQHIB6QrAPmAVABybhSAnBsFIOdGAci5UQAUgMHfZl0ByBOKKwB5QvEpgJybVu7GXA0as64CkN0VgJNzl+VWvmTMATZ2XVcAcnhcAcgHpCsAOTeuAOTcKAA5NwpAzk07r+3tbexJfcz6CkCO1dILwPs7/ib325ltkiXP67jt7fhwBSAPkysA+UTU5oReNwUguysAnSZEBSAfzksvAG/rlJl2ML42s02yRAHIk2Gz6XlTALK9ApCT184lY375HLtufuaVLxkLNWZ9BSCHZ+kF4Dc6HpA/n9kmWaIA5MlUAcgRe3rHzLd5VQHI9gpAttlqyZgT+th1FYA8NEsvAN/bcTL85sw2yRIFQAE4T5AUgJybXz4P6IifUQBGYI1ZdexJfcz6CkAeiaUXgNtX1dUdSsBHquqmmW2SJQpAnshdAcgRUwBybhSAnJtZLxlzQh+7rgKQh37pBaDt2Y90KABPymSTLVEA8kSuAOSYKQA5NwpAzs2sl4w9qY9ZXwHIQ7+GAnB5Vf3XCUvAr2auSZcoAHkiVwBy1BSAnBsFIOdm1kvGnNDHrqsA5KFfQwFoe3ezqnrVBCXgpVXVCsUubgpAnsgVgJxABSDnRgHIuZn1krEn9THrKwB56NdSANoeXlZV315VHz5HEWh/T6D97C5vCkCeyBWAnEQFIOdGAci5mfWSMSf0sesqAHno11QANnt5q6pqr+G3lwU+fUIZ+GRVvb6qvuXoCsLm53f1VQHIE7kCkFP4tBMyPXZuHFr/Ifmpt17iDwHlzLex2NvbH3cM9Us6q7bWOXQgTXWffwvg/AN4k6p6QFU9uqqeePRb/iOr6n5VdePzP+wkP6kA5ONGAcgRe1zn+ebL81NvvWTpBeAXO9p/bGvdBT/AOzrC/lBnFwUgT+TtcqXbsIACkHOjAAxnpt37oI5zZful5bb5qbdesvQC0OMTR5tfFN++te6CH+Dfdgz113d2UQDyRK4A5PApADk3CkDOTbsi+KlO8+Xv56edZMnSC8A3dnJvJeAXJhFe6IN8VSfY9i9z9b7UqwDkiVwByAekApBzowDk3LQlr+g0Xz735KfdeunSC0D7hNAHO9n//a11F/4Av9kB9rt2YKIA5IlcAcgBVABybhRY+pScAAAQjElEQVSAnJu25N6nvMF1c1l5zNf2y9JfP/lpt1669ALQAJ7a4Tz1hq1lV/AAX1hV7U+wjgntSeu+ZkcmCkAeMwUgh1AByLlRAHJuNkvasXXS/Ddm2bVV9bDNA3f8uoYC0D5ufNWE9h86uPx/p47mi3ro9m+Yv28C3Hbyv8WO9lwByBORApBDqADk3CgAOTfHl3xPVX12y/nyM1X12OMP2vH7NRSAxtP+8Ngrt3RvBa2d6760o/ciH/qOVfXyqvrcOYD/pKq+bwev+x+HVQDyRK4AHE/Kpd8rADk3CsClWTnp/9rf8vi9c8yV7QT0W0cfiT3p8adctpYC0Ezae8ueeXC++dNz2Ldz28uq6gumxF3bY92/ql5cVe2kftrlrHdV1fdfEKgCkMdHAchHpQKQc6MA5NwMLWl/7+LxBx8R/M9nuCLQfuO/sqq+4eivZw49Xq/71lQANkbtF9YfOPD/gzOcp9q5rL3b/+9sftjX0wXaOy//dlU95eCqwA9X1Quq6qeqqr1jtf0Vt795+kN0XUMByBO5ApCjpwDk3CgAOTenLWkfE2x/za+9PNA+t/78qvrBozevPfDg/29+2gN0XL7GAnCcq52L/snBP1F+xdE56mePzlntzehfscN/Z+T4Nvm+s4ACkCdyBSCHTwHIuVEAcm6WvGTtBWDJY2PbzymgAOSJXAHIoVIAcm4UgJybJS9RAJY8erZ9UEAByBO5AjAYmcM7FYCcGwUg52bJSxSAJY+ebR8UUADyRK4ADEbm8E4FIOdGAci5WfISBWDJo2fbBwUUgDyRKwCDkTm8UwHIuVEAcm6WvEQBWPLo2fZBAQUgT+QKwGBkDu9UAHJuFICcmyUvUQCWPHq2fVBAAcgTuQIwGJnDOxWAnBsFIOdmyUsUgCWPnm0fFFAA8kSuAAxG5vBOBSDnRgHIuVnyEgVgyaNn2wcFFIA8kSsAg5E5vFMByLlRAHJulrxEAVjy6Nn2QQEFIE/kCsBgZA7vVABybhSAnJslL1EAljx6tn1QQAHIE7kCMBiZwzsVgJwbBSDnZslLFIAlj55tHxRQAPJErgAMRubwTgUg50YByLlZ8hIFYMmjZ9sHBRSAPJErAIORObxTAci5UQBybpa8RAFY8ujZ9kEBBSBP5ArAYGQO71QAcm4UgJybJS9RAJY8erZ9UEAByBO5AjAYmcM7FYCcGwUg52bJSxSAJY+ebR8UUADyRK4ADEbm8E4FIOdGAci5WfISBWDJo2fbBwUUgDyRKwCDkTm8UwHIuVEAcm6WvEQBWPLo2fZBAQUgT+QKwGBkDu9UAHJuFICcmyUvUQCWPHq2fVBAAcgTuQIwGJnDOxWAnBsFIOdmyUsUgCWPnm0fFFAA8kSuAAxG5vBOBSDnRgHIuVnyEgVgyaNn2wcFfq7yRHbdlsuuqaobDz7rNHc+dMvtO23/FIA8TgpAPm4UgJybJS+5UVVd3XHOecGScWz7MgWe3THQ7+lMogB0Bj7h4RUABeCEeKx2UZvTTvvF4bzLn7laNTs2W4GHdAz0lZ33WgHoDHzCw/94x9y0CfQeJzz3tovu2XnbXQHYdoTm+/NtTjvvCf60n/uH891tW7ZWgcuq6t2dQv2IzmgKQGfgEx7+n3XKzGaSvNUJz73tIgUgn8Q+sC3uyn/+UZ1y364stJcY3AjsXODJHUL936vq8s57ogB0Bj7h4Vu525ysp/760ROed4pFCkAeOwXg5IS1Oa3NbVNn/kknP62lBPoKvHbCUH+yqr607+YeProCsAPk8BR/rao+MWFmjk+oLw3POdXdCkA+gSkAp6eszW1/NmH2f/30p7QGgb4CN6uqV00Q6j+uqq/qu6l/+egKwF9SXMg3L5kgL8dP/JvvH9R5bxQABWDbiP3dqvrIBPl/TVXdYtuN8fMEphBoH9l7blW13+A3k/GYr/+xqu42xYac8TEUgDNCdVrtDlX1f8+ZlZSr3r/9NwoFIB/frgCc/WC5a1W9/pz5b1fPntP5Y9Jn3xNrEjgmcJeDYLZ3ef+fM4S7fS62vTP24cd+flffKgC7ks7P08b9U2fISTrhH7//bVV16/xUky1RABSAycJUVQ+rqlce/PL0mTMcB+87eOIfrao7T7kBHotAD4H2rtT7VFV7g8pPVNWLquqXqupnjtrrgw++b38d66JuCsBFyV/6vO0ln20vh75xh1lSABSASxM8zf+1T6587cEV1GdV1U8fnORfXFUvPPpl6juq6l7e6T8NtEch0AQUgPnk4LZV9W/O8ZfS3l9VT6iq9nHUXd0UAAVgV1nzPAQIdBJQADrBbvGwt6+qZ1TVbx58/X/hkugfHLxX5FcOPk7VPkrY809Fp91QABSAlA33EyCwEAEFYN4D1X6rb6913ruq7l9Vd9/hZf6TZBQABeCkfFhGgMACBBSABQzSDDdRAVAAZhhLm0SAwBgBBWCMlnU3AgqAArDJgq8ECCxUQAFY6MBd8GYrAArABUfQ0xMgsK2AArCt4H7+vAKgAOxn8u01gRUJKAArGswd7ooCoADsMG6eigCBHgIKQA/V9T+mAqAArD/l9pDAygUUgJUPcKfdUwAUgE7R8rAECOxKQAHYlfS6nkcBUADWlWh7Q2APBRSAPRz0CXZZAVAAJoiRhyBA4CIFFICL1F/ucysACsBy02vLCRA4FFAABOE8AgqAAnCe3PgZAgRmJKAAzGgwFrQpCoACsKC42lQCBIYEFIAhFfedJqAAKACnZcRyAgRmLqAAzHyAZrp5CoACMNNo2iwCBM4qoACcVcp6xwUUAAXgeB58T4DAAgUUgAUO2gw2WQFQAGYQQ5tAgMA2AgrANnr7+7MKgAKwv+m35wRWIqAArGQgd7wbCoACsOPIeToCBKYWUACmFt2Px1MAFID9SLq9JLBiAQVgxYPbcdcUAAWgY7w8NAECuxBQAHahvL7nUAAUgPWl2h4R2DMBBWDPBnyi3VUAFICJouRhCBC4KAEF4KLkl/28CoACsOwE23oCBEoBEILzCCgACsB5cuNnCBCYkYACMKPBWNCmKAAKwILialMJEBgSUACGVNx3moACoACclhHLCRCYuYACMPMBmunmKQAKwEyjabMIEDirwNdUnsium2DZU866IdZblMDSC8BbJsh2Oj7eu6iRtLEECOytwN07ToRtgnzE3sque8eXXgBe2TH3b1730Ns7AgTWInCzqrq242R4n7VA2Y9LBJZeAH6yY+ZffomU/yFAgMCMBf5Dp8nwXVV12Yz326adX2DpBeCBnTLfrnp90/lZ/SQBAgR2K/DoTpPhc3a7G55thwJLLwCN6p0dcv/BqrrpDsfBUxEgQGBrgalfE327iXDrMZnzA6yhANy/qq6ZsAR8rqoeOedBs20ECBAYErjdhL8RfaCq7jH0JO5bjcAaCkAbjKdW1WcnKgE/tJrRtSMECOydwG2q6o1bTobvqKov3ju5/dvhtRSANnLfUlWf2CL3n66q796/CNhjAgTWKPCtVfXukRPih6rqe6rq8jWC2KcbCKypALSdu3NVvayqrh6R+7+oqiur6q430HEHAQIEFizQ3r3/4Kp6YVW9beCjgu2y6f+sqpdW1WOq6iYL3lebPl5gbQVgI3D7qvrnVfXqqmpv6Lv+H/v5cFVdVVXtDa532fyQrwQIEFi7wG2Pfttpk+SN1r6z9u9EgbUWgOvvdLuidYequqOSe30a/0+AAAEC+yiwLwVgH8fWPhMgQIAAgSigAEQaCwgQIECAwHoFFID1jq09I0CAAAECUUABiDQWECBAgACB9QooAOsdW3tGgAABAgSigAIQaSwgQIAAAQLrFVAA1ju29owAAQIECEQBBSDSWECAAAECBNYroACsd2ztGQECBAgQiAIKQKSxgAABAgQIrFdAAVjv2NozAgQIECAQBRSASGMBAQIECBBYr4ACsN6xtWcECBAgQCAKKACRxgICBAgQILBeAQVgvWNrzwgQIECAQBRQACKNBQQIECBAYL0CCsB6x9aeESBAgACBKKAARBoLCBAgQIDAegUUgPWOrT0jQIAAAQJRQAGINBYQIECAAIH1CigA6x1be0aAAAECBKKAAhBpLCBAgAABAusVUADWO7b2jAABAgQIRAEFINJYQIAAAQIE1iugAKx3bO0ZAQIECBCIAgpApLGAAAECBAisV0ABWO/Y2jMCBAgQIBAFFIBIYwEBAgQIEFivgAKw3rG1ZwQIECBAIAooAJHGAgIECBAgsF4BBWC9Y2vPCBAgQIBAFFAAIo0FBAgQIEBgvQJ3qarrOv53xXrp7BkBAgQIEFiuwI2q6uqOBeDblktjywkQIECAwLoF3tGxANxv3XT2jgABAgQILFfgWZ0KwDuXS2LLCRAgQIDA+gVuV1Uf7lACHrd+OntIgAABAgSWLfDoiQvAry2bw9YTIECAAIH9EXhiVV07QRG4qqpuuT9s9pQAAQIECCxf4Ouq6n+fswR8uqp+vKouXz6DPSBAgAABAvsncPOqekZV/e4Zi8DHq+qFVXW3/aOyxwQIECBAYJ0C962qJx+d4K+sqjdV1euq6mVV9dyqenBVtcLgRoAAAQIECBAgQIAAAQIECBAgQIAAAQIECBAgQIAAAQIECBAgQIAAAQIECBAgQIAAAQIECBAgQIAAAQIECBAgQIAAAQIECBAgQIAAAQIECBAgQIAAAQIECBAgQIAAAQIECBAgQIAAAQIECBAgQIAAAQIECBAgQIAAAQIECBAgQIAAAQIECBAgQIAAAQIECBAgQIAAAQIECBAgQIAAAQIECBAgQIAAAQIECBAgQIAAAQIECBAgQIAAAQIECBAgQIAAAQIECBAgQIAAAQIECBAgQIAAAQIECBAgQIAAAQIECBAgQIAAAQIECBAgQIAAAQIECBAgQIAAAQIECBAgQIAAAQIECBAgQIAAAQIECBAgQIAAAQIECBAgQIAAAQIECBAgQIAAAQIECBAgQIAAAQIECBAgQIAAAQIECBAgQIAAAQIECBAgQIAAAQIECBAgQIAAAQIECBAgQIAAAQIECBAgQIAAAQIECBAgQIAAAQIECBAgQIAAAQIECBAgQIAAAQIECBAgQIAAAQIECBAgQIAAAQIECBAgQIAAAQIECBAgQIAAAQIECBAgQIAAAQIECBAgQIAAAQIECBAgQIAAAQIECBAgQIAAAQIECBAgQIAAAQIECBAgQIAAAQIECBAgQIAAAQIECBAgQIAAAQIECBAgQIAAAQIECBAgQIAAAQIECBAgQIAAAQIECBAgQIAAAQIECBAgQIAAAQIECBAgQIAAAQIECBAgQIAAAQIECBAgQIAAAQIECBAgQIAAAQIECBAgQIAAAQIECBAgQIAAAQIECBAgQIAAAQIECBAgQIAAAQIECBAgQIAAAQIECBAgQIAAAQIECBAgQIAAAQIECBAgQIAAAQIECBAgQIAAAQIECBAgQIAAAQIECBAgQIAAAQIECBAgQIAAAQIECBAgQIAAAQIECBAgQIAAAQIECBAgQIAAAQIECBAgQIAAAQIECBAgQIAAAQIECBAgQIAAAQIECBAgQIAAAQIECBAgQIAAAQIECBAgQIAAAQIECBAgQIAAAQIECBAgQIAAAQIECBAgQIAAAQIECBAgQIAAAQIECBAgQIAAAQIEJhL4/65njfP3X77QAAAAAElFTkSuQmCC;" vertex="1" parent="1">
          <mxGeometry x="140" y="84" width="80" height="80" as="geometry" />
        </mxCell>
        <mxCell id="KWvplseUJ8ZIvvT5c59l-2" value="" style="shape=image;verticalLabelPosition=bottom;labelBackgroundColor=default;verticalAlign=top;aspect=fixed;imageAspect=0;image=https://seeklogo.com/images/S/streamlit-logo-1A3B208AE4-seeklogo.com.png;" vertex="1" parent="1">
          <mxGeometry x="210" y="94" width="27.61" height="15" as="geometry" />
        </mxCell>
        <mxCell id="KWvplseUJ8ZIvvT5c59l-3" value="" style="rounded=1;whiteSpace=wrap;html=1;fillColor=#f5f5f5;strokeColor=#666666;fillStyle=solid;fontColor=#333333;" vertex="1" parent="1">
          <mxGeometry x="80" y="270" width="200" height="229" as="geometry" />
        </mxCell>
        <mxCell id="KWvplseUJ8ZIvvT5c59l-4" value="&lt;span style=&quot;font-size: 24px;&quot;&gt;&lt;b&gt;Conjunto de Áudios&lt;/b&gt;&lt;/span&gt;" style="text;html=1;align=center;verticalAlign=middle;whiteSpace=wrap;rounded=0;" vertex="1" parent="1">
          <mxGeometry x="100" y="289" width="160" height="60" as="geometry" />
        </mxCell>
        <mxCell id="KWvplseUJ8ZIvvT5c59l-5" value="&lt;span style=&quot;font-size: 15px;&quot;&gt;&lt;b&gt;Grupo de Áudios &lt;/b&gt;coletados do&lt;b&gt; Google Cloud Storage&lt;/b&gt;&lt;/span&gt;" style="text;html=1;align=center;verticalAlign=middle;whiteSpace=wrap;rounded=0;" vertex="1" parent="1">
          <mxGeometry x="80" y="374" width="200" height="180" as="geometry" />
        </mxCell>
        <mxCell id="KWvplseUJ8ZIvvT5c59l-6" value="" style="shape=image;verticalLabelPosition=bottom;labelBackgroundColor=default;verticalAlign=top;aspect=fixed;imageAspect=0;image=data:image/png,iVBORw0KGgoAAAANSUhEUgAAAgAAAAIACAYAAAD0eNT6AAAAAXNSR0IArs4c6QAAIABJREFUeAHt3XuQPWldHvDvwnINggQQEGNSgMhVTSAxRDRyMyq3UlJGhFKwiGAgolwS1ruxpFDLEk0oJGhAxJQFKwIbCIakEgv+kEpBgSZWxHAxgOEmUVBgd4XNvFNzdH67/cxMz+n3THefz6namtnTPed0f96n336mzznzq3IjQIAAAQIECBAgQIAAAQIECBAgQIAAAQIECBAgQIAAAQIECBAgQIAAAQIECBAgQIAAAQIECBAgQIAAAQIECBAgQIAAAQIECBAgQIAAAQIECBAgQIAAAQIECBAgQIAAAQIECBAgQIAAAQIECBAgQIAAAQIECBAgQIAAAQIECBAgQIAAAQIECBAgQIAAAQIECBAgQIAAAQIECBAgQIAAAQIECBAgQIAAAQIECBAgQIAAAQIECBAgQIAAAQIECBAgQIAAAQIECBAgQIAAAQIECBAgQIAAAQIECBAgQIAAAQIECBAgQIAAAQIECBAgQIAAAQIECBAgQIAAAQIECBAgQIAAAQIECBAgQIAAAQIECBAgQIAAAQIECBAgQIAAAQIECBAgQIAAAQIECBAgQIAAAQIECBAgQIAAAQIECBAgQIAAAQIECBAgQIAAAQIECBAgQIAAAQIECBAgQIAAAQIECBAgQIAAAQIECBAgQIAAAQIECBAgQIAAAQIECBAgQIAAAQIECBAgQIAAAQIECBAgQIAAAQIECBAgQIAAAQIECBAgQIAAAQIECBAgQIAAAQIECBAgQIAAAQIECBAgQIAAAQIECBAgQIAAAQIECBAgQIAAAQIECBAgQIAAAQIECBAgQIAAAQIECBAgQIAAAQIECBAgQIAAAQIECBAgQIAAAQIECBAgQIAAAQIECBAgQIAAAQIECBAgQIAAAQIECBAgQIAAAQIECBAgQIAAAQIECBAgQIAAAQIECBAgQIAAAQIECBAgQIAAAQIECBAgQIAAAQIECBAgQIAAAQIECBAgQIAAAQIECBAgQIAAAQIECBAgQIAAAQIECBAgQIAAAQIECBAgQIAAAQIECBAgQIAAAQIECBAgQIAAAQIECBAgQIAAAQIECBAgQIAAAQIECBAgQIAAAQIECBAgQIAAAQIECBAgQIAAAQIECBAgQIAAAQIECBAgQIAAAQIECBAgQIAAAQIECBAgQIAAAQIECBAgQIAAAQIECBAgQIAAAQIECBAgQIAAAQIECBAgQIAAAQIECBAgQIAAAQIECBAgQIAAAQIECBAgQIAAAQIE/krgy6rqKVX1oqq6sqreVFVXVdXLq+r7q+phVXWLv1rddwQIECBAgMBSBdoJ/dlV9XtVdd0Z/vuTqnpxVd1jqTtsuwkQIECAwL4LfH1VvfcMJ/2hYnB1VT2vqi7fd0T7T4AAAQIEliTwnVV17TlP/scLQXuZ4POWtOO2lQABAgQI7KvAYyY48R8vAa/eV0j7TYAAAQIEliJw+6r6yMQFoJWBJywFwHYSIECAAIF9FGhv+Dv+2/tU3//OPmLaZwIECBAgsBSBd3YqAK1ItI8RuhEgQIAAAQIzE7jxwef5r+lYAB4/s/21OQQIECBAgEBV3aXjyb9dAbiCMgECBAgQIDA/gXt2LgDt7wK4ESBAgAABAjMTUABmNiA2hwABAgQI7EJAAdiFsucgQIAAAQIzE1AAZjYgNocAAQIECOxCQAHYhbLnIECAAAECMxNQAGY2IDaHAAECBAjsQkAB2IWy5yBAgAABAjMTUABmNiA2hwABAgQI7EJAAdiFsucgQIAAAQIzE1AAZjYgNocAAQIECOxCQAHYhbLnIECAAAECMxNQAGY2IDaHAAECBAjsQkAB2IWy5yBAgAABAjMTUABmNiA2hwABAgQI7EJAAdiFsucgQIAAAQIzE1AAZjYgNocAAQIECOxCQAHYhbLnIECAAAECMxNQAGY2IDaHAAECBAjsQkAB2IWy5yBAgAABAjMTUABmNiA2hwABAgQI7EJAAdiFsucgQIAAAQIzE1AAZjYgNocAAQIECOxCQAHYhbLnIECAAAECMxNQAGY2IDaHAAECBAjsQkAB2IWy5yBAgAABAjMTUABmNiA2hwABAgQI7EJAAdiFsucgQIAAAQIzE1AAZjYgNocAAQIECOxCQAHYhbLnIECAAAECMxNQAGY2IDaHAAECBAjsQkAB2IWy5yBAgAABAjMTUABmNiA2hwABAr0EblRVt6uqu1bVHarqJr2eyOMuQmBfCsBNq+qOVXWnqrr5IkbGRhIgQGBLgXbCf/jBxPcLVfWOqrq2qq479t/nqup/HRSCl1fVY6vqZls+nx9flsBaC0A72X9vVb22qj50LO+b7H+sqt5QVVdU1d9Y1pDZWgIECJwscFlVPaGq/nBg8ttMgkNf28T4LFcGTsZd0dK1FYC7VNUrBoruUNY39332qCjcfUXjalcIENhTgc+vqjeNPPFvJsPN19+pqr+1p377tNtrKgDfelBeP7lF7j9TVU/bp8G3rwQIrEugva7/u1tMgpsC0L5+sKraCcJtvQJrKQDtxN1+kz+e3/N+/2PrHW57RoDAmgWunGgS3Eye/8ObptYcl8OCtxnrHl+ftwO9B1TVNRPn/lE72G5PQYAAgckEHjPxJLg5IfyLybbQA81NYA1XAKa64rXJe/v6R1XVPjngRoAAgUUIvL5TAXhXVbU3FbqtT2DpBeAfdMp8KwHfvL7htkcECKxRoH22+fof8Tv+G822399njWj2afEvAfxUxwLwK/JBgACBJQh8SceJsJWHRy4BwTaOFlj6FYBXdcz9m0dr+gECBAhcgMDXdJwIWwF4ygXsk6fsL7D0AvCWjrl/b39+z0CAAIHtBR7acSJsBeDp22+iR5ihwNILwFs75v4DMxwvm0SAAIEbCCgANyBxxxkEFID8twMUgDMEyCoECFy8gAJw8WOwxC1QABSAJebWNhMgcExAATiG4dszCygACsCZw2JFAgTmKaAAzHNc5r5VCoACMPeM2j4CBE4RUABOAbJ4UEABUAAGg+FOAgSWI6AALGes5rSlCoACMKc82hYCBM4hoACcA82PLP4vAfoYoBATILD3AgrA3kfgXACuALgCcK7g+CECBOYjoADMZyyWtCUKgAKwpLzaVgIEBgQUgAEUd50qoAAoAKeGxAoECMxbQAGY9/jMdesUAAVgrtm0XQQInFFAATgjlNUuEVAAFIBLAuF/CBBYnoACsLwxm8MWKwAKwBxyaBsIENhCQAHYAm+Pf1QBUAD2OP52ncA6BBSAdYzjrvdCAVAAdp05z0eAwMQCCsDEoHvycAqAArAnUbebBNYroACsd2x77pkCoAD0zJfHJkBgBwIKwA6QV/gUCoACsMJY2yUC+yWgAOzXeE+1twqAAjBVljwOAQIXJKAAXBD8wp9WAVAAFh5hm0+AgAIgA+cRUAAUgPPkxs8QIDAjAQVgRoOxoE1RABSABcXVphIgMCSgAAypuO80AQVAATgtI5YTIDBzAQVg5gM0081TABSAmUbTZhEgcFYBBeCsUtY7LqAAKADH8+B7AgQWKKAALHDQZrDJCoACMIMY2gQCBLYRUAC20ev/szeqqi+qqvtW1f2r6h5Vddv+T3vqMygACsCpIbECAQLzFlAA5jc+d6qqZ1bVf6mqP63hE817D8rAv6+qx1TVTS5gFxSA4XG5rqo+cAHj4SkJECAwWkABGE3W7QduV1Uvrqprw0m/nVyG/vujqnpiVV3Wbctu+MAKwPBYKAA3zIp7COytwI2r6ssOfit4clU9/2iCf2lV/WxVXVFVDz/4/jYXqKMAXCD+saf+6qr6aDjBD530h+570w6zpAAoAMfiO9m3t66qNif9y6r6map6SVW9qKqeV1XfWVX3qar2spgbgVkLfPHRCf+DZ5jUr6mq11TVIy5gjxSAC0C/3lP+o4MJ79NnyMnQSf/6971jRyVAAVAArhfjrf73G6vqNw5+Kbr6DMfB+w9e9vqJo/fGbPWkfpjA1AKXV9UPVtWfnyHI15+82/+33+K+ZOqNOuHxFIATcHaw6Auq6kPnzMpQftp9L9/BdisACsAUMbt7Vf2nc+b/z46uorarrG4ELlzglgfv1L7qnGE+Ppl//OANYO2S8C5uCsAulPNz/OIEeTmenc33vfOjACgAOdVnW/KVE7zs1fL+uqpqc68bgQsTaG/AmuLkv5nA2xWEe+1gbxSAHSCHp7jVwbv9P9GpALwsPOdUdysACsA2WWpz23mvkm7myONf20uobgQuTOC7Okzkb6uq9pJCz5sC0FP35Md+ZIfMbCbF9obCnjcFQAE4b77anNbmtk1Wp/ra3mjtRmDnAu23/3d3CHQ7MNpJoudNAeipe/JjP61TZjYTarvC0OumAOQTmL8DcHLqHt0p9+1vY/iEwMn2lnYQ6HkSvbLD9h5/yJ7b3k5ETz/+ZL6/RODHO02EmwLQ/mpgr5sCoACcN1u/3jH3X3vejfJzBM4r8JyOgX7PeTfqjD+nAJwRqsNq7bPNm5N1j68930OiAOSxcwXg5IPlfR1z3/6CphuBnQr8fMdAt78R0PNjLgrATqNyyZMpAPkk2mx63t7a8ZhVAPLItUv0bU7rUXjbY74gP7UlBPoI/HLHQLdQt7+O1eumAPSSPf1xFYB8IlAATs/PEtf4vM5zZZuL3QjsVEAByBO59wDkKCoAOTcKQM7NkpcoAEsePds+KKAA5IlcARiMzOGdCkDOjQKQc7PkJQrAkkfPtg8KKAB5IlcABiNzeKcCkHOjAOTcLHmJArDk0bPtgwIKQJ7IFYDByBzeqQDk3CgAOTdLXqIALHn0bPuggAKQJ3IFYDAyh3cqADk3CkDOzZKXKABLHj3bPiigAOSJXAEYjMzhnQpAzo0CkHOz5CUKwJJHz7YPCigAeSJXAAYjc3inApBzowDk3Cx5iQKw5NGz7YMCCkCeyBWAwcgc3qkA5NwoADk3S16iACx59Gz7oIACkCdyBWAwMod3KgA5NwpAzs2SlygASx492z4ooADkiVwBGIzM4Z0KQM6NApBzs+QlCsCSR8+2DwooAHkiVwAGI3N4pwKQc6MA5NwseYkCsOTRs+2DAgpAnsgVgMHIHN6pAOTcKAA5N0teogAsefRs+6CAApAncgVgMDKHdyoAOTcKQM7NkpcoAEsePds+KKAA5IlcARiMzOGdCkDOjQKQc7PkJQrAkkfPtg8KKAB5IlcABiNzeKcCkHOjAOTcLHmJArDk0bPtgwIKQJ7IFYDByBzeqQDk3CgAOTdLXqIALHn0bPuggAKQJ3IFYDAyh3cqADk3CkDOzZKXKABLHj3bPiigAOSJXAEYjMzhnQpAzo0CkHOz5CUKwJJHz7YPCigAeSJXAAYjc3inApBzowDk3Cx5iQKw5NG7oG2/SVU9oKq+++D5f7Sqfq6qfrqqfqCqHldVd7ug7do8rQKQJ3IFYJOSG35VAHJuFIAb5uWs93x+VX1dVX1fVf1YVT2/qn64qtqx+KCquuVZH6jDemsvAO1c9G1H56Z2jmrnqnbOeurROaydy9zOKPCVVfXvquoTlSeK646Wvfso5Hc+42NPuZoCkMdHAchJUwBybhSAnJuhJTetqu+oqv92MA9+7pT58pqqek1VPeqgIFw29GAd71tjAWjnnB+pqvec4t7OVe1c9ktV9fc6Gi/+oe9UVb96hiBvTv7HvzbgZ1fVjXeooADkiVwByEFUAHJuFICcm+svab/t//4ZTj7H58nN92+pqi+//gN2/P81FYB2jnlOVX3yHPatpL2iqu7Y0XqRD33vqvrDc4BuAr35+tqqusWOBBSAPJErADmECkDOjQKQc3N8yTOq6rNbzpefqap/fPxBO36/lgJw86p61Zbu7Vz1waq6X0fvRT30Fx28TvWxCVA3JeB1O7rEpQDkiVwByIegApBzowDk3GyWtJP/Zq7b9utfHL1vYPPYvb6uoQC0l03eMKH9R6rqC3uBL+VxG+qbJkTdHBDtzRe9bwpAnogUgJw+BSDnRgHIuWlL7ltVn554vmy/jd7u5KfdeukaCsDTJnZv56o3bi278Ado707dnLSn/PqBHbwfQAHIY6cA5ANTAci5UQBybtqS9h6pKefJzWNdcfLTbr106QXg8qPL9huvKb8+cGvdBT/ASzoFug3QN3R2UQDyZKQA5PApADk3CkDOzW2q6lOd5st35aedZMnSC8AjOrm389SLJxFe6IO8syNs+wxsz5sCkCdyBSAnTwHIuVEAcm6+uuNc2U5Et81PvfWSpReA9pn+KX/rP/5Yb99ad8EP8PGOsO3qQs+bApAPiosuADc7+sztNx18uuRJR5+VfszB56C/oqra5byLvCkAOTcKQE5m+0Mzx08cU3/f82OBSy8A7TP8U3tvHq+9AX5vbxuEHl9f3VlVAcgHxUUUgFsfvE73T6vqt6rq6hMO2D8/evPN43f4kdHjUVQAcm4UgONJufT7Hm9COz7vPuTSp5v0/5ZeANq55LjV1N9Pir2kB5sa8vjjKQA5CQ/tHOhdFoAbHfw1rm+vqvaxmuPjf5bv2zug28/u8i+jKQB5nBSAfMy2Y+osmT7vOm1O6HVTAE4eu17us3/c84b1LD+nAOThX0sBaH/f/KoJJsaXVdWu/l63ApAnQwUgH7MKQM5Nuxrb8+YKQCfds5zIz7uOApAHbQ0FoL2W/+YJTv6bfP1a5pp0iQKQJ3IFIEdNAci5UQBybma9ZDP59viqAOShX0MB+FcTnvw3+XtyJptsiQKQJ3IFIMdMAci5UQBybma9ZDPx9viqAOShX3oBuMMpb/Q7b54+WlXtX1jreVMA8kSuAOTkKQA5NwpAzs2sl5x3oj7LzykAeeiXXgDav3l+lgycZ53HZrZJligAeewUgBwxBSDnRgHIuZn1kvNM0Gf9GQUgD/3SC0D7Vx/PmoOx6/3rzDbJEgUgj50CkCOmAOTcKAA5N7NeMnZyHrO+ApCHfukFoP31rDFZGLNuKxc9bwpAHjsFICdPAci5UQBybma9ZMzEPHZdBSAP/dILwPs7FoDfzmyTLFEA8kSuAOSIKQA5NwpAzs2sl4w9qY9ZXwHIQ7/0AtD+tccxWRiz7lsz2yRLFIA8dgpAjpgCkHOjAOTczHrJmIl57LoKQB56BSBPJgpAzs09OxavdnwrANleAcjHrAKQczPrJWNP6mPWVwDy0CsAeTJRAHJuFICcm3ZVqudNAcj2CkDP5HV87DEn9LHrKgB54BSAPJkoADk3CkDOjQKQc+PfAsi5aee1vb2NPamPWV8ByLFSAPIBqQDk3CgAOTcKQM6NApBzowB0el1RAcgHpAKQD0gFIOdGAci5UQBybhSAnBsFQAEYfEd7+/fte90UgHxAKgA5dQpAzo0CkHOjAOTcKAAKgAKQ547BJW2yHfNy0Jh1FYBB8sM7FYCcOwUg50YByLlRADpN5l4CyAekKwD5gFQAcm4UgJwbBSDnRgHIuVEAFIDB32a9BJAnFFcA8oRyr8y29RIFILsrADleCkDOjQKgACgAee4YXKIA5AlFARiMzOGd7erOmJeDxqyrAGR3BeDk3GW5lS8Zc4CNXddLADk8XgLIB6SXAHJuXAHIuVEAcm4UgJybdl7b29vYk/qY9RWAHCsFIB+QCkDOjQKQc6MA5NwoADk3CkCny3IKQD4gFYB8QCoAOTcKQM6NApBzowDk3CgACsDg65LeBJgnlDbZjrkaNGZdBSC7KwA5dwpAzo0CkHOjAHSazF0ByAekKwD5gFQAcm4UgJwbBSDnRgHIuVEAFIDB32ZdAcgTiisAeULxKYCcm1buxlwNGrOuApDdFYCTc5flVr5kzAE2dl1XAHJ4XAHIB6QrADk3rgDk3CgAOTcKQM5NO6/t7W3sSX3M+gpAjpUCkA9IBSDnRgHIuVEAcm4UgJwbBaDTZTkFIB+QCkA+IBWAnBsFIOdGAci5UQBybhQABWDwdUnvAcgTSptsx1wNGrOuApDdFYCcOwUg50YByLlRADpN5q4A5APSFYB8QCoAOTcKQM6NApBzowDk3CgACsDgb7OuAOQJxRWAPKH4FEDOTSt3Y64GjVlXAcjuCsDJuctyK18y5gAbu64rADk8rgDkA9IVgJwbVwBybhSAnBsFIOemndf29jb2pD5mfQUgx0oByAekApBzowDk3CgAOTcKQM6NAtDpspwCkA9IBSAfkApAzo0CkHOjAOTcKAA5NwqAAjD4uqT3AOQJpU22Y64GjVlXAcjuCkDOnQKQc6MA5NwoAJ0mc1cA8gHpCkA+IBWAnBsFIOdGAci5UQBybhQABWDwt1lXAPKE4gpAnlB8CiDnppW7MVeDxqyrAGR3BeDk3GW5lS8Zc4CNXdcVgBweVwDyAekKQM6NKwA5NwpAzo0CkHPTzmt7ext7Uh+zvgKQY6UA5ANSAci5UQBybhSAnBsFIOdGAeh0WU4ByAekApAPSAUg50YByLlRAHJuFICcGwVAARh8XdJ7APKE0ibbMVeDxqyrAGR3BSDnTgHIuVEAcm4UgE6TuSsA+YB0BSAfkApAzo0CkHOjAOTcKAA5NwqAAjD426wrAHlCcQUgTyg+BZBz08rdmKtBY9ZVALK7AnBy7rLcypeMOcDGrusKQA6PKwD5gHQFIOfGFYCcGwUg50YByLlp57W9vY09qY9ZXwHIsVIA8gGpAOTcKAA5NwpAzo0CkHOjAHS6LKcA5ANSAcgHpAKQc6MA5NwoADk3CkDOjQKgAAy+Luk9AHlCaZPtmKtBY9ZVALK7ApBzpwDk3CgAOTcKQKfJ3BWAfEC6ApAPSAUg50YByLlRAHJuFICcGwVAARj8bdYVgDyhuAKQJxSfAsi5aeVuzNWgMesqANldATg5d1lu5UvGHGBj13UFIIfHFYB8QLoCkHPjCkDOjQKQc6MA5Ny089re3sae1MesrwDkWCkA+YBUAHJuFICcGwUg50YByLlRADpdllMA8gGpAOQDUgHIuVEAcm4UgJwbBSDnRgFQAAZfl/QegDyhtMl2zNWgMesqANldAci5UwBybhSAnBsFoNNk7gpAPiBdAcgHpAKQc6MA5NwoADk3CkDOjQKgAAz+NusKQJ5QXAHIE4pPAeTctHI35mrQmHUVgOyuAJycuyy38iVjDrCx67oCkMPjCkA+IF0ByLlxBSDnRgHIuVEAcm7aeW1vb2NP6mPWVwByrBSAfEAqADk3CkDOjQKQc6MA5NwoAJ0uyykA+YBUAPIBqQDk3CgAOTcKQM6NApBzowAoAIOvS3oPQJ5Q2mQ75mrQmHUVgOyuAOTcKQA5NwpAzo0C0GkydwUgH5CuAOQDUgHIuVEAcm4UgJwbBSDnRgFQAAZ/m3UFIE8orgDkCcWnAHJuWrkbczVozLoKQHZXAE7OXZZb+ZIxB9jYdV0ByOFxBSAfkK4A5Ny4ApBzowDk3CgAOTftvLa3t7En9THrKwA5VgpAPiAVgJwbBSDnRgHIuVEAcm4UgE6X5RSAfEAqAPmAVABybhSAnBsFIOdGAci5UQAUgMHXJb0HIE8obbIdczVozLoKQHZXAHLuFICcGwUg50YB6DSZuwKQD0hXAPIBqQDk3CgAOTcKQM6NApBzowAoAIO/zboCkCcUVwDyhOJTADk3rdyNuRo0Zl0FILsrACfnLsutfMmYA2zsuq4A5PC4ApAPSFcAcm5cAci5UQBybhSAnJt2Xtvb29iT+pj1FYAcKwUgH5AKQM6NApBzowDk3CgAOTcKQKfLcgpAPiAVgHxAKgA5NwpAzo0CkHOjAOTcKAAKwODrkt4DkCeUNtmOuRo0Zl0FILsrADl3CkDOjQKQc6MAdJrMXQHIB6QrAPmAVABybhSAnBsFIOdGAci5UQAUgMHfZl0ByBOKKwB5QvEpgJybVu7GXA0as64CkN0VgJNzl+VWvmTMATZ2XVcAcnhcAcgHpCsAOTeuAOTcKAA5NwpAzk07r+3tbexJfcz6CkCO1dILwPs7/ib325ltkiXP67jt7fhwBSAPkysA+UTU5oReNwUguysAnSZEBSAfzksvAG/rlJl2ML42s02yRAHIk2Gz6XlTALK9ApCT184lY375HLtufuaVLxkLNWZ9BSCHZ+kF4Dc6HpA/n9kmWaIA5MlUAcgRe3rHzLd5VQHI9gpAttlqyZgT+th1FYA8NEsvAN/bcTL85sw2yRIFQAE4T5AUgJybXz4P6IifUQBGYI1ZdexJfcz6CkAeiaUXgNtX1dUdSsBHquqmmW2SJQpAnshdAcgRUwBybhSAnJtZLxlzQh+7rgKQh37pBaDt2Y90KABPymSTLVEA8kSuAOSYKQA5NwpAzs2sl4w9qY9ZXwHIQ7+GAnB5Vf3XCUvAr2auSZcoAHkiVwBy1BSAnBsFIOdm1kvGnNDHrqsA5KFfQwFoe3ezqnrVBCXgpVXVCsUubgpAnsgVgJxABSDnRgHIuZn1krEn9THrKwB56NdSANoeXlZV315VHz5HEWh/T6D97C5vCkCeyBWAnEQFIOdGAci5mfWSMSf0sesqAHno11QANnt5q6pqr+G3lwU+fUIZ+GRVvb6qvuXoCsLm53f1VQHIE7kCkFP4tBMyPXZuHFr/Ifmpt17iDwHlzLex2NvbH3cM9Us6q7bWOXQgTXWffwvg/AN4k6p6QFU9uqqeePRb/iOr6n5VdePzP+wkP6kA5ONGAcgRe1zn+ebL81NvvWTpBeAXO9p/bGvdBT/AOzrC/lBnFwUgT+TtcqXbsIACkHOjAAxnpt37oI5zZful5bb5qbdesvQC0OMTR5tfFN++te6CH+Dfdgz113d2UQDyRK4A5PApADk3CkDOTbsi+KlO8+Xv56edZMnSC8A3dnJvJeAXJhFe6IN8VSfY9i9z9b7UqwDkiVwByAekApBzowDk3LQlr+g0Xz735KfdeunSC0D7hNAHO9n//a11F/4Av9kB9rt2YKIA5IlcAcgBVABybhRY+pScAAAQjElEQVSAnJu25N6nvMF1c1l5zNf2y9JfP/lpt1669ALQAJ7a4Tz1hq1lV/AAX1hV7U+wjgntSeu+ZkcmCkAeMwUgh1AByLlRAHJuNkvasXXS/Ddm2bVV9bDNA3f8uoYC0D5ufNWE9h86uPx/p47mi3ro9m+Yv28C3Hbyv8WO9lwByBORApBDqADk3CgAOTfHl3xPVX12y/nyM1X12OMP2vH7NRSAxtP+8Ngrt3RvBa2d6760o/ciH/qOVfXyqvrcOYD/pKq+bwev+x+HVQDyRK4AHE/Kpd8rADk3CsClWTnp/9rf8vi9c8yV7QT0W0cfiT3p8adctpYC0Ezae8ueeXC++dNz2Ldz28uq6gumxF3bY92/ql5cVe2kftrlrHdV1fdfEKgCkMdHAchHpQKQc6MA5NwMLWl/7+LxBx8R/M9nuCLQfuO/sqq+4eivZw49Xq/71lQANkbtF9YfOPD/gzOcp9q5rL3b/+9sftjX0wXaOy//dlU95eCqwA9X1Quq6qeqqr1jtf0Vt795+kN0XUMByBO5ApCjpwDk3CgAOTenLWkfE2x/za+9PNA+t/78qvrBozevPfDg/29+2gN0XL7GAnCcq52L/snBP1F+xdE56mePzlntzehfscN/Z+T4Nvm+s4ACkCdyBSCHTwHIuVEAcm6WvGTtBWDJY2PbzymgAOSJXAHIoVIAcm4UgJybJS9RAJY8erZ9UEAByBO5AjAYmcM7FYCcGwUg52bJSxSAJY+ebR8UUADyRK4ADEbm8E4FIOdGAci5WfISBWDJo2fbBwUUgDyRKwCDkTm8UwHIuVEAcm6WvEQBWPLo2fZBAQUgT+QKwGBkDu9UAHJuFICcmyUvUQCWPHq2fVBAAcgTuQIwGJnDOxWAnBsFIOdmyUsUgCWPnm0fFFAA8kSuAAxG5vBOBSDnRgHIuVnyEgVgyaNn2wcFFIA8kSsAg5E5vFMByLlRAHJulrxEAVjy6Nn2QQEFIE/kCsBgZA7vVABybhSAnJslL1EAljx6tn1QQAHIE7kCMBiZwzsVgJwbBSDnZslLFIAlj55tHxRQAPJErgAMRubwTgUg50YByLlZ8hIFYMmjZ9sHBRSAPJErAIORObxTAci5UQBybpa8RAFY8ujZ9kEBBSBP5ArAYGQO71QAcm4UgJybJS9RAJY8erZ9UEAByBO5AjAYmcM7FYCcGwUg52bJSxSAJY+ebR8UUADyRK4ADEbm8E4FIOdGAci5WfISBWDJo2fbBwUUgDyRKwCDkTm8UwHIuVEAcm6WvEQBWPLo2fZBAQUgT+QKwGBkDu9UAHJuFICcmyUvUQCWPHq2fVBAAcgTuQIwGJnDOxWAnBsFIOdmyUsUgCWPnm0fFFAA8kSuAAxG5vBOBSDnRgHIuVnyEgVgyaNn2wcFfq7yRHbdlsuuqaobDz7rNHc+dMvtO23/FIA8TgpAPm4UgJybJS+5UVVd3XHOecGScWz7MgWe3THQ7+lMogB0Bj7h4RUABeCEeKx2UZvTTvvF4bzLn7laNTs2W4GHdAz0lZ33WgHoDHzCw/94x9y0CfQeJzz3tovu2XnbXQHYdoTm+/NtTjvvCf60n/uH891tW7ZWgcuq6t2dQv2IzmgKQGfgEx7+n3XKzGaSvNUJz73tIgUgn8Q+sC3uyn/+UZ1y364stJcY3AjsXODJHUL936vq8s57ogB0Bj7h4Vu525ysp/760ROed4pFCkAeOwXg5IS1Oa3NbVNn/kknP62lBPoKvHbCUH+yqr607+YeProCsAPk8BR/rao+MWFmjk+oLw3POdXdCkA+gSkAp6eszW1/NmH2f/30p7QGgb4CN6uqV00Q6j+uqq/qu6l/+egKwF9SXMg3L5kgL8dP/JvvH9R5bxQABWDbiP3dqvrIBPl/TVXdYtuN8fMEphBoH9l7blW13+A3k/GYr/+xqu42xYac8TEUgDNCdVrtDlX1f8+ZlZSr3r/9NwoFIB/frgCc/WC5a1W9/pz5b1fPntP5Y9Jn3xNrEjgmcJeDYLZ3ef+fM4S7fS62vTP24cd+flffKgC7ks7P08b9U2fISTrhH7//bVV16/xUky1RABSAycJUVQ+rqlce/PL0mTMcB+87eOIfrao7T7kBHotAD4H2rtT7VFV7g8pPVNWLquqXqupnjtrrgw++b38d66JuCsBFyV/6vO0ln20vh75xh1lSABSASxM8zf+1T6587cEV1GdV1U8fnORfXFUvPPpl6juq6l7e6T8NtEch0AQUgPnk4LZV9W/O8ZfS3l9VT6iq9nHUXd0UAAVgV1nzPAQIdBJQADrBbvGwt6+qZ1TVbx58/X/hkugfHLxX5FcOPk7VPkrY809Fp91QABSAlA33EyCwEAEFYN4D1X6rb6913ruq7l9Vd9/hZf6TZBQABeCkfFhGgMACBBSABQzSDDdRAVAAZhhLm0SAwBgBBWCMlnU3AgqAArDJgq8ECCxUQAFY6MBd8GYrAArABUfQ0xMgsK2AArCt4H7+vAKgAOxn8u01gRUJKAArGswd7ooCoADsMG6eigCBHgIKQA/V9T+mAqAArD/l9pDAygUUgJUPcKfdUwAUgE7R8rAECOxKQAHYlfS6nkcBUADWlWh7Q2APBRSAPRz0CXZZAVAAJoiRhyBA4CIFFICL1F/ucysACsBy02vLCRA4FFAABOE8AgqAAnCe3PgZAgRmJKAAzGgwFrQpCoACsKC42lQCBIYEFIAhFfedJqAAKACnZcRyAgRmLqAAzHyAZrp5CoACMNNo2iwCBM4qoACcVcp6xwUUAAXgeB58T4DAAgUUgAUO2gw2WQFQAGYQQ5tAgMA2AgrANnr7+7MKgAKwv+m35wRWIqAArGQgd7wbCoACsOPIeToCBKYWUACmFt2Px1MAFID9SLq9JLBiAQVgxYPbcdcUAAWgY7w8NAECuxBQAHahvL7nUAAUgPWl2h4R2DMBBWDPBnyi3VUAFICJouRhCBC4KAEF4KLkl/28CoACsOwE23oCBEoBEILzCCgACsB5cuNnCBCYkYACMKPBWNCmKAAKwILialMJEBgSUACGVNx3moACoACclhHLCRCYuYACMPMBmunmKQAKwEyjabMIEDirwNdUnsium2DZU866IdZblMDSC8BbJsh2Oj7eu6iRtLEECOytwN07ToRtgnzE3sque8eXXgBe2TH3b1730Ns7AgTWInCzqrq242R4n7VA2Y9LBJZeAH6yY+ZffomU/yFAgMCMBf5Dp8nwXVV12Yz326adX2DpBeCBnTLfrnp90/lZ/SQBAgR2K/DoTpPhc3a7G55thwJLLwCN6p0dcv/BqrrpDsfBUxEgQGBrgalfE327iXDrMZnzA6yhANy/qq6ZsAR8rqoeOedBs20ECBAYErjdhL8RfaCq7jH0JO5bjcAaCkAbjKdW1WcnKgE/tJrRtSMECOydwG2q6o1bTobvqKov3ju5/dvhtRSANnLfUlWf2CL3n66q796/CNhjAgTWKPCtVfXukRPih6rqe6rq8jWC2KcbCKypALSdu3NVvayqrh6R+7+oqiur6q430HEHAQIEFizQ3r3/4Kp6YVW9beCjgu2y6f+sqpdW1WOq6iYL3lebPl5gbQVgI3D7qvrnVfXqqmpv6Lv+H/v5cFVdVVXtDa532fyQrwQIEFi7wG2Pfttpk+SN1r6z9u9EgbUWgOvvdLuidYequqOSe30a/0+AAAEC+yiwLwVgH8fWPhMgQIAAgSigAEQaCwgQIECAwHoFFID1jq09I0CAAAECUUABiDQWECBAgACB9QooAOsdW3tGgAABAgSigAIQaSwgQIAAAQLrFVAA1ju29owAAQIECEQBBSDSWECAAAECBNYroACsd2ztGQECBAgQiAIKQKSxgAABAgQIrFdAAVjv2NozAgQIECAQBRSASGMBAQIECBBYr4ACsN6xtWcECBAgQCAKKACRxgICBAgQILBeAQVgvWNrzwgQIECAQBRQACKNBQQIECBAYL0CCsB6x9aeESBAgACBKKAARBoLCBAgQIDAegUUgPWOrT0jQIAAAQJRQAGINBYQIECAAIH1CigA6x1be0aAAAECBKKAAhBpLCBAgAABAusVUADWO7b2jAABAgQIRAEFINJYQIAAAQIE1iugAKx3bO0ZAQIECBCIAgpApLGAAAECBAisV0ABWO/Y2jMCBAgQIBAFFIBIYwEBAgQIEFivgAKw3rG1ZwQIECBAIAooAJHGAgIECBAgsF4BBWC9Y2vPCBAgQIBAFFAAIo0FBAgQIEBgvQJ3qarrOv53xXrp7BkBAgQIEFiuwI2q6uqOBeDblktjywkQIECAwLoF3tGxANxv3XT2jgABAgQILFfgWZ0KwDuXS2LLCRAgQIDA+gVuV1Uf7lACHrd+OntIgAABAgSWLfDoiQvAry2bw9YTIECAAIH9EXhiVV07QRG4qqpuuT9s9pQAAQIECCxf4Ouq6n+fswR8uqp+vKouXz6DPSBAgAABAvsncPOqekZV/e4Zi8DHq+qFVXW3/aOyxwQIECBAYJ0C962qJx+d4K+sqjdV1euq6mVV9dyqenBVtcLgRoAAAQIECBAgQIAAAQIECBAgQIAAAQIECBAgQIAAAQIECBAgQIAAAQIECBAgQIAAAQIECBAgQIAAAQIECBAgQIAAAQIECBAgQIAAAQIECBAgQIAAAQIECBAgQIAAAQIECBAgQIAAAQIECBAgQIAAAQIECBAgQIAAAQIECBAgQIAAAQIECBAgQIAAAQIECBAgQIAAAQIECBAgQIAAAQIECBAgQIAAAQIECBAgQIAAAQIECBAgQIAAAQIECBAgQIAAAQIECBAgQIAAAQIECBAgQIAAAQIECBAgQIAAAQIECBAgQIAAAQIECBAgQIAAAQIECBAgQIAAAQIECBAgQIAAAQIECBAgQIAAAQIECBAgQIAAAQIECBAgQIAAAQIECBAgQIAAAQIECBAgQIAAAQIECBAgQIAAAQIECBAgQIAAAQIECBAgQIAAAQIECBAgQIAAAQIECBAgQIAAAQIECBAgQIAAAQIECBAgQIAAAQIECBAgQIAAAQIECBAgQIAAAQIECBAgQIAAAQIECBAgQIAAAQIECBAgQIAAAQIECBAgQIAAAQIECBAgQIAAAQIECBAgQIAAAQIECBAgQIAAAQIECBAgQIAAAQIECBAgQIAAAQIECBAgQIAAAQIECBAgQIAAAQIECBAgQIAAAQIECBAgQIAAAQIECBAgQIAAAQIECBAgQIAAAQIECBAgQIAAAQIECBAgQIAAAQIECBAgQIAAAQIECBAgQIAAAQIECBAgQIAAAQIECBAgQIAAAQIECBAgQIAAAQIECBAgQIAAAQIECBAgQIAAAQIECBAgQIAAAQIECBAgQIAAAQIECBAgQIAAAQIECBAgQIAAAQIECBAgQIAAAQIECBAgQIAAAQIECBAgQIAAAQIECBAgQIAAAQIECBAgQIAAAQIECBAgQIAAAQIECBAgQIAAAQIECBAgQIAAAQIECBAgQIAAAQIECBAgQIAAAQIECBAgQIAAAQIECBAgQIAAAQIECBAgQIAAAQIECBAgQIAAAQIECBAgQIAAAQIECBAgQIAAAQIECBAgQIAAAQIECBAgQIAAAQIECBAgQIAAAQIEJhL4/65njfP3X77QAAAAAElFTkSuQmCC;" vertex="1" parent="1">
          <mxGeometry x="180" y="340" width="50" height="50" as="geometry" />
        </mxCell>
        <mxCell id="KWvplseUJ8ZIvvT5c59l-7" value="" style="shape=image;verticalLabelPosition=bottom;labelBackgroundColor=default;verticalAlign=top;aspect=fixed;imageAspect=0;image=data:image/png,iVBORw0KGgoAAAANSUhEUgAAAgAAAAIACAYAAAD0eNT6AAAAAXNSR0IArs4c6QAAIABJREFUeAHt3XuQPWldHvDvwnINggQQEGNSgMhVTSAxRDRyMyq3UlJGhFKwiGAgolwS1ruxpFDLEk0oJGhAxJQFKwIbCIakEgv+kEpBgSZWxHAxgOEmUVBgd4XNvFNzdH67/cxMz+n3THefz6namtnTPed0f96n336mzznzq3IjQIAAAQIECBAgQIAAAQIECBAgQIAAAQIECBAgQIAAAQIECBAgQIAAAQIECBAgQIAAAQIECBAgQIAAAQIECBAgQIAAAQIECBAgQIAAAQIECBAgQIAAAQIECBAgQIAAAQIECBAgQIAAAQIECBAgQIAAAQIECBAgQIAAAQIECBAgQIAAAQIECBAgQIAAAQIECBAgQIAAAQIECBAgQIAAAQIECBAgQIAAAQIECBAgQIAAAQIECBAgQIAAAQIECBAgQIAAAQIECBAgQIAAAQIECBAgQIAAAQIECBAgQIAAAQIECBAgQIAAAQIECBAgQIAAAQIECBAgQIAAAQIECBAgQIAAAQIECBAgQIAAAQIECBAgQIAAAQIECBAgQIAAAQIECBAgQIAAAQIECBAgQIAAAQIECBAgQIAAAQIECBAgQIAAAQIECBAgQIAAAQIECBAgQIAAAQIECBAgQIAAAQIECBAgQIAAAQIECBAgQIAAAQIECBAgQIAAAQIECBAgQIAAAQIECBAgQIAAAQIECBAgQIAAAQIECBAgQIAAAQIECBAgQIAAAQIECBAgQIAAAQIECBAgQIAAAQIECBAgQIAAAQIECBAgQIAAAQIECBAgQIAAAQIECBAgQIAAAQIECBAgQIAAAQIECBAgQIAAAQIECBAgQIAAAQIECBAgQIAAAQIECBAgQIAAAQIECBAgQIAAAQIECBAgQIAAAQIECBAgQIAAAQIECBAgQIAAAQIECBAgQIAAAQIECBAgQIAAAQIECBAgQIAAAQIECBAgQIAAAQIECBAgQIAAAQIECBAgQIAAAQIECBAgQIAAAQIECBAgQIAAAQIECBAgQIAAAQIECBAgQIAAAQIECBAgQIAAAQIECBAgQIAAAQIECBAgQIAAAQIECBAgQIAAAQIECBAgQIAAAQIECBAgQIAAAQIECBAgQIAAAQIECBAgQIAAAQIECBAgQIAAAQIECBAgQIAAAQIECBAgQIAAAQIECBAgQIAAAQIECBAgQIAAAQIECBAgQIAAAQIECBAgQIAAAQIECBAgQIAAAQIECBAgQIAAAQIECBAgQIAAAQIE/krgy6rqKVX1oqq6sqreVFVXVdXLq+r7q+phVXWLv1rddwQIECBAgMBSBdoJ/dlV9XtVdd0Z/vuTqnpxVd1jqTtsuwkQIECAwL4LfH1VvfcMJ/2hYnB1VT2vqi7fd0T7T4AAAQIEliTwnVV17TlP/scLQXuZ4POWtOO2lQABAgQI7KvAYyY48R8vAa/eV0j7TYAAAQIEliJw+6r6yMQFoJWBJywFwHYSIECAAIF9FGhv+Dv+2/tU3//OPmLaZwIECBAgsBSBd3YqAK1ItI8RuhEgQIAAAQIzE7jxwef5r+lYAB4/s/21OQQIECBAgEBV3aXjyb9dAbiCMgECBAgQIDA/gXt2LgDt7wK4ESBAgAABAjMTUABmNiA2hwABAgQI7EJAAdiFsucgQIAAAQIzE1AAZjYgNocAAQIECOxCQAHYhbLnIECAAAECMxNQAGY2IDaHAAECBAjsQkAB2IWy5yBAgAABAjMTUABmNiA2hwABAgQI7EJAAdiFsucgQIAAAQIzE1AAZjYgNocAAQIECOxCQAHYhbLnIECAAAECMxNQAGY2IDaHAAECBAjsQkAB2IWy5yBAgAABAjMTUABmNiA2hwABAgQI7EJAAdiFsucgQIAAAQIzE1AAZjYgNocAAQIECOxCQAHYhbLnIECAAAECMxNQAGY2IDaHAAECBAjsQkAB2IWy5yBAgAABAjMTUABmNiA2hwABAgQI7EJAAdiFsucgQIAAAQIzE1AAZjYgNocAAQIECOxCQAHYhbLnIECAAAECMxNQAGY2IDaHAAECBAjsQkAB2IWy5yBAgAABAjMTUABmNiA2hwABAgQI7EJAAdiFsucgQIAAAQIzE1AAZjYgNocAAQIECOxCQAHYhbLnIECAAAECMxNQAGY2IDaHAAECBAjsQkAB2IWy5yBAgAABAjMTUABmNiA2hwABAr0EblRVt6uqu1bVHarqJr2eyOMuQmBfCsBNq+qOVXWnqrr5IkbGRhIgQGBLgXbCf/jBxPcLVfWOqrq2qq479t/nqup/HRSCl1fVY6vqZls+nx9flsBaC0A72X9vVb22qj50LO+b7H+sqt5QVVdU1d9Y1pDZWgIECJwscFlVPaGq/nBg8ttMgkNf28T4LFcGTsZd0dK1FYC7VNUrBoruUNY39332qCjcfUXjalcIENhTgc+vqjeNPPFvJsPN19+pqr+1p377tNtrKgDfelBeP7lF7j9TVU/bp8G3rwQIrEugva7/u1tMgpsC0L5+sKraCcJtvQJrKQDtxN1+kz+e3/N+/2PrHW57RoDAmgWunGgS3Eye/8ObptYcl8OCtxnrHl+ftwO9B1TVNRPn/lE72G5PQYAAgckEHjPxJLg5IfyLybbQA81NYA1XAKa64rXJe/v6R1XVPjngRoAAgUUIvL5TAXhXVbU3FbqtT2DpBeAfdMp8KwHfvL7htkcECKxRoH22+fof8Tv+G822399njWj2afEvAfxUxwLwK/JBgACBJQh8SceJsJWHRy4BwTaOFlj6FYBXdcz9m0dr+gECBAhcgMDXdJwIWwF4ygXsk6fsL7D0AvCWjrl/b39+z0CAAIHtBR7acSJsBeDp22+iR5ihwNILwFs75v4DMxwvm0SAAIEbCCgANyBxxxkEFID8twMUgDMEyCoECFy8gAJw8WOwxC1QABSAJebWNhMgcExAATiG4dszCygACsCZw2JFAgTmKaAAzHNc5r5VCoACMPeM2j4CBE4RUABOAbJ4UEABUAAGg+FOAgSWI6AALGes5rSlCoACMKc82hYCBM4hoACcA82PLP4vAfoYoBATILD3AgrA3kfgXACuALgCcK7g+CECBOYjoADMZyyWtCUKgAKwpLzaVgIEBgQUgAEUd50qoAAoAKeGxAoECMxbQAGY9/jMdesUAAVgrtm0XQQInFFAATgjlNUuEVAAFIBLAuF/CBBYnoACsLwxm8MWKwAKwBxyaBsIENhCQAHYAm+Pf1QBUAD2OP52ncA6BBSAdYzjrvdCAVAAdp05z0eAwMQCCsDEoHvycAqAArAnUbebBNYroACsd2x77pkCoAD0zJfHJkBgBwIKwA6QV/gUCoACsMJY2yUC+yWgAOzXeE+1twqAAjBVljwOAQIXJKAAXBD8wp9WAVAAFh5hm0+AgAIgA+cRUAAUgPPkxs8QIDAjAQVgRoOxoE1RABSABcXVphIgMCSgAAypuO80AQVAATgtI5YTIDBzAQVg5gM0081TABSAmUbTZhEgcFYBBeCsUtY7LqAAKADH8+B7AgQWKKAALHDQZrDJCoACMIMY2gQCBLYRUAC20ev/szeqqi+qqvtW1f2r6h5Vddv+T3vqMygACsCpIbECAQLzFlAA5jc+d6qqZ1bVf6mqP63hE817D8rAv6+qx1TVTS5gFxSA4XG5rqo+cAHj4SkJECAwWkABGE3W7QduV1Uvrqprw0m/nVyG/vujqnpiVV3Wbctu+MAKwPBYKAA3zIp7COytwI2r6ssOfit4clU9/2iCf2lV/WxVXVFVDz/4/jYXqKMAXCD+saf+6qr6aDjBD530h+570w6zpAAoAMfiO9m3t66qNif9y6r6map6SVW9qKqeV1XfWVX3qar2spgbgVkLfPHRCf+DZ5jUr6mq11TVIy5gjxSAC0C/3lP+o4MJ79NnyMnQSf/6971jRyVAAVAArhfjrf73G6vqNw5+Kbr6DMfB+w9e9vqJo/fGbPWkfpjA1AKXV9UPVtWfnyHI15+82/+33+K+ZOqNOuHxFIATcHaw6Auq6kPnzMpQftp9L9/BdisACsAUMbt7Vf2nc+b/z46uorarrG4ELlzglgfv1L7qnGE+Ppl//OANYO2S8C5uCsAulPNz/OIEeTmenc33vfOjACgAOdVnW/KVE7zs1fL+uqpqc68bgQsTaG/AmuLkv5nA2xWEe+1gbxSAHSCHp7jVwbv9P9GpALwsPOdUdysACsA2WWpz23mvkm7myONf20uobgQuTOC7Okzkb6uq9pJCz5sC0FP35Md+ZIfMbCbF9obCnjcFQAE4b77anNbmtk1Wp/ra3mjtRmDnAu23/3d3CHQ7MNpJoudNAeipe/JjP61TZjYTarvC0OumAOQTmL8DcHLqHt0p9+1vY/iEwMn2lnYQ6HkSvbLD9h5/yJ7b3k5ETz/+ZL6/RODHO02EmwLQ/mpgr5sCoACcN1u/3jH3X3vejfJzBM4r8JyOgX7PeTfqjD+nAJwRqsNq7bPNm5N1j68930OiAOSxcwXg5IPlfR1z3/6CphuBnQr8fMdAt78R0PNjLgrATqNyyZMpAPkk2mx63t7a8ZhVAPLItUv0bU7rUXjbY74gP7UlBPoI/HLHQLdQt7+O1eumAPSSPf1xFYB8IlAATs/PEtf4vM5zZZuL3QjsVEAByBO59wDkKCoAOTcKQM7NkpcoAEsePds+KKAA5IlcARiMzOGdCkDOjQKQc7PkJQrAkkfPtg8KKAB5IlcABiNzeKcCkHOjAOTcLHmJArDk0bPtgwIKQJ7IFYDByBzeqQDk3CgAOTdLXqIALHn0bPuggAKQJ3IFYDAyh3cqADk3CkDOzZKXKABLHj3bPiigAOSJXAEYjMzhnQpAzo0CkHOz5CUKwJJHz7YPCigAeSJXAAYjc3inApBzowDk3Cx5iQKw5NGz7YMCCkCeyBWAwcgc3qkA5NwoADk3S16iACx59Gz7oIACkCdyBWAwMod3KgA5NwpAzs2SlygASx492z4ooADkiVwBGIzM4Z0KQM6NApBzs+QlCsCSR8+2DwooAHkiVwAGI3N4pwKQc6MA5NwseYkCsOTRs+2DAgpAnsgVgMHIHN6pAOTcKAA5N0teogAsefRs+6CAApAncgVgMDKHdyoAOTcKQM7NkpcoAEsePds+KKAA5IlcARiMzOGdCkDOjQKQc7PkJQrAkkfPtg8KKAB5IlcABiNzeKcCkHOjAOTcLHmJArDk0bPtgwIKQJ7IFYDByBzeqQDk3CgAOTdLXqIALHn0bPuggAKQJ3IFYDAyh3cqADk3CkDOzZKXKABLHj3bPiigAOSJXAEYjMzhnQpAzo0CkHOz5CUKwJJHz7YPCigAeSJXAAYjc3inApBzowDk3Cx5iQKw5NG7oG2/SVU9oKq+++D5f7Sqfq6qfrqqfqCqHldVd7ug7do8rQKQJ3IFYJOSG35VAHJuFIAb5uWs93x+VX1dVX1fVf1YVT2/qn64qtqx+KCquuVZH6jDemsvAO1c9G1H56Z2jmrnqnbOeurROaydy9zOKPCVVfXvquoTlSeK646Wvfso5Hc+42NPuZoCkMdHAchJUwBybhSAnJuhJTetqu+oqv92MA9+7pT58pqqek1VPeqgIFw29GAd71tjAWjnnB+pqvec4t7OVe1c9ktV9fc6Gi/+oe9UVb96hiBvTv7HvzbgZ1fVjXeooADkiVwByEFUAHJuFICcm+svab/t//4ZTj7H58nN92+pqi+//gN2/P81FYB2jnlOVX3yHPatpL2iqu7Y0XqRD33vqvrDc4BuAr35+tqqusWOBBSAPJErADmECkDOjQKQc3N8yTOq6rNbzpefqap/fPxBO36/lgJw86p61Zbu7Vz1waq6X0fvRT30Fx28TvWxCVA3JeB1O7rEpQDkiVwByIegApBzowDk3GyWtJP/Zq7b9utfHL1vYPPYvb6uoQC0l03eMKH9R6rqC3uBL+VxG+qbJkTdHBDtzRe9bwpAnogUgJw+BSDnRgHIuWlL7ltVn554vmy/jd7u5KfdeukaCsDTJnZv56o3bi278Ado707dnLSn/PqBHbwfQAHIY6cA5ANTAci5UQBybtqS9h6pKefJzWNdcfLTbr106QXg8qPL9huvKb8+cGvdBT/ASzoFug3QN3R2UQDyZKQA5PApADk3CkDOzW2q6lOd5st35aedZMnSC8AjOrm389SLJxFe6IO8syNs+wxsz5sCkCdyBSAnTwHIuVEAcm6+uuNc2U5Et81PvfWSpReA9pn+KX/rP/5Yb99ad8EP8PGOsO3qQs+bApAPiosuADc7+sztNx18uuRJR5+VfszB56C/oqra5byLvCkAOTcKQE5m+0Mzx08cU3/f82OBSy8A7TP8U3tvHq+9AX5vbxuEHl9f3VlVAcgHxUUUgFsfvE73T6vqt6rq6hMO2D8/evPN43f4kdHjUVQAcm4UgONJufT7Hm9COz7vPuTSp5v0/5ZeANq55LjV1N9Pir2kB5sa8vjjKQA5CQ/tHOhdFoAbHfw1rm+vqvaxmuPjf5bv2zug28/u8i+jKQB5nBSAfMy2Y+osmT7vOm1O6HVTAE4eu17us3/c84b1LD+nAOThX0sBaH/f/KoJJsaXVdWu/l63ApAnQwUgH7MKQM5Nuxrb8+YKQCfds5zIz7uOApAHbQ0FoL2W/+YJTv6bfP1a5pp0iQKQJ3IFIEdNAci5UQBybma9ZDP59viqAOShX0MB+FcTnvw3+XtyJptsiQKQJ3IFIMdMAci5UQBybma9ZDPx9viqAOShX3oBuMMpb/Q7b54+WlXtX1jreVMA8kSuAOTkKQA5NwpAzs2sl5x3oj7LzykAeeiXXgDav3l+lgycZ53HZrZJligAeewUgBwxBSDnRgHIuZn1kvNM0Gf9GQUgD/3SC0D7Vx/PmoOx6/3rzDbJEgUgj50CkCOmAOTcKAA5N7NeMnZyHrO+ApCHfukFoP31rDFZGLNuKxc9bwpAHjsFICdPAci5UQBybma9ZMzEPHZdBSAP/dILwPs7FoDfzmyTLFEA8kSuAOSIKQA5NwpAzs2sl4w9qY9ZXwHIQ7/0AtD+tccxWRiz7lsz2yRLFIA8dgpAjpgCkHOjAOTczHrJmIl57LoKQB56BSBPJgpAzs09OxavdnwrANleAcjHrAKQczPrJWNP6mPWVwDy0CsAeTJRAHJuFICcm3ZVqudNAcj2CkDP5HV87DEn9LHrKgB54BSAPJkoADk3CkDOjQKQc+PfAsi5aee1vb2NPamPWV8ByLFSAPIBqQDk3CgAOTcKQM6NApBzowB0el1RAcgHpAKQD0gFIOdGAci5UQBybhSAnBsFQAEYfEd7+/fte90UgHxAKgA5dQpAzo0CkHOjAOTcKAAKgAKQ547BJW2yHfNy0Jh1FYBB8sM7FYCcOwUg50YByLlRADpN5l4CyAekKwD5gFQAcm4UgJwbBSDnRgHIuVEAFIDB32a9BJAnFFcA8oRyr8y29RIFILsrADleCkDOjQKgACgAee4YXKIA5AlFARiMzOGd7erOmJeDxqyrAGR3BeDk3GW5lS8Zc4CNXddLADk8XgLIB6SXAHJuXAHIuVEAcm4UgJybdl7b29vYk/qY9RWAHCsFIB+QCkDOjQKQc6MA5NwoADk3CkCny3IKQD4gFYB8QCoAOTcKQM6NApBzowDk3CgACsDg65LeBJgnlDbZjrkaNGZdBSC7KwA5dwpAzo0CkHOjAHSazF0ByAekKwD5gFQAcm4UgJwbBSDnRgHIuVEAFIDB32ZdAcgTiisAeULxKYCcm1buxlwNGrOuApDdFYCTc5flVr5kzAE2dl1XAHJ4XAHIB6QrADk3rgDk3CgAOTcKQM5NO6/t7W3sSX3M+gpAjpUCkA9IBSDnRgHIuVEAcm4UgJwbBaDTZTkFIB+QCkA+IBWAnBsFIOdGAci5UQBybhQABWDwdUnvAcgTSptsx1wNGrOuApDdFYCcOwUg50YByLlRADpN5q4A5APSFYB8QCoAOTcKQM6NApBzowDk3CgACsDgb7OuAOQJxRWAPKH4FEDOTSt3Y64GjVlXAcjuCsDJuctyK18y5gAbu64rADk8rgDkA9IVgJwbVwBybhSAnBsFIOemndf29jb2pD5mfQUgx0oByAekApBzowDk3CgAOTcKQM6NAtDpspwCkA9IBSAfkApAzo0CkHOjAOTcKAA5NwqAAjD4uqT3AOQJpU22Y64GjVlXAcjuCkDOnQKQc6MA5NwoAJ0mc1cA8gHpCkA+IBWAnBsFIOdGAci5UQBybhQABWDwt1lXAPKE4gpAnlB8CiDnppW7MVeDxqyrAGR3BeDk3GW5lS8Zc4CNXdcVgBweVwDyAekKQM6NKwA5NwpAzo0CkHPTzmt7ext7Uh+zvgKQY6UA5ANSAci5UQBybhSAnBsFIOdGAeh0WU4ByAekApAPSAUg50YByLlRAHJuFICcGwVAARh8XdJ7APKE0ibbMVeDxqyrAGR3BSDnTgHIuVEAcm4UgE6TuSsA+YB0BSAfkApAzo0CkHOjAOTcKAA5NwqAAjD426wrAHlCcQUgTyg+BZBz08rdmKtBY9ZVALK7AnBy7rLcypeMOcDGrusKQA6PKwD5gHQFIOfGFYCcGwUg50YByLlp57W9vY09qY9ZXwHIsVIA8gGpAOTcKAA5NwpAzo0CkHOjAHS6LKcA5ANSAcgHpAKQc6MA5NwoADk3CkDOjQKgAAy+Luk9AHlCaZPtmKtBY9ZVALK7ApBzpwDk3CgAOTcKQKfJ3BWAfEC6ApAPSAUg50YByLlRAHJuFICcGwVAARj8bdYVgDyhuAKQJxSfAsi5aeVuzNWgMesqANldATg5d1lu5UvGHGBj13UFIIfHFYB8QLoCkHPjCkDOjQKQc6MA5Ny089re3sae1MesrwDkWCkA+YBUAHJuFICcGwUg50YByLlRADpdllMA8gGpAOQDUgHIuVEAcm4UgJwbBSDnRgFQAAZfl/QegDyhtMl2zNWgMesqANldAci5UwBybhSAnBsFoNNk7gpAPiBdAcgHpAKQc6MA5NwoADk3CkDOjQKgAAz+NusKQJ5QXAHIE4pPAeTctHI35mrQmHUVgOyuAJycuyy38iVjDrCx67oCkMPjCkA+IF0ByLlxBSDnRgHIuVEAcm7aeW1vb2NP6mPWVwByrBSAfEAqADk3CkDOjQKQc6MA5NwoAJ0uyykA+YBUAPIBqQDk3CgAOTcKQM6NApBzowAoAIOvS3oPQJ5Q2mQ75mrQmHUVgOyuAOTcKQA5NwpAzo0C0GkydwUgH5CuAOQDUgHIuVEAcm4UgJwbBSDnRgFQAAZ/m3UFIE8orgDkCcWnAHJuWrkbczVozLoKQHZXAE7OXZZb+ZIxB9jYdV0ByOFxBSAfkK4A5Ny4ApBzowDk3CgAOTftvLa3t7En9THrKwA5VgpAPiAVgJwbBSDnRgHIuVEAcm4UgE6X5RSAfEAqAPmAVABybhSAnBsFIOdGAci5UQAUgMHXJb0HIE8obbIdczVozLoKQHZXAHLuFICcGwUg50YB6DSZuwKQD0hXAPIBqQDk3CgAOTcKQM6NApBzowAoAIO/zboCkCcUVwDyhOJTADk3rdyNuRo0Zl0FILsrACfnLsutfMmYA2zsuq4A5PC4ApAPSFcAcm5cAci5UQBybhSAnJt2Xtvb29iT+pj1FYAcKwUgH5AKQM6NApBzowDk3CgAOTcKQKfLcgpAPiAVgHxAKgA5NwpAzo0CkHOjAOTcKAAKwODrkt4DkCeUNtmOuRo0Zl0FILsrADl3CkDOjQKQc6MAdJrMXQHIB6QrAPmAVABybhSAnBsFIOdGAci5UQAUgMHfZl0ByBOKKwB5QvEpgJybVu7GXA0as64CkN0VgJNzl+VWvmTMATZ2XVcAcnhcAcgHpCsAOTeuAOTcKAA5NwpAzk07r+3tbexJfcz6CkCO1dILwPs7/ib325ltkiXP67jt7fhwBSAPkysA+UTU5oReNwUguysAnSZEBSAfzksvAG/rlJl2ML42s02yRAHIk2Gz6XlTALK9ApCT184lY375HLtufuaVLxkLNWZ9BSCHZ+kF4Dc6HpA/n9kmWaIA5MlUAcgRe3rHzLd5VQHI9gpAttlqyZgT+th1FYA8NEsvAN/bcTL85sw2yRIFQAE4T5AUgJybXz4P6IifUQBGYI1ZdexJfcz6CkAeiaUXgNtX1dUdSsBHquqmmW2SJQpAnshdAcgRUwBybhSAnJtZLxlzQh+7rgKQh37pBaDt2Y90KABPymSTLVEA8kSuAOSYKQA5NwpAzs2sl4w9qY9ZXwHIQ7+GAnB5Vf3XCUvAr2auSZcoAHkiVwBy1BSAnBsFIOdm1kvGnNDHrqsA5KFfQwFoe3ezqnrVBCXgpVXVCsUubgpAnsgVgJxABSDnRgHIuZn1krEn9THrKwB56NdSANoeXlZV315VHz5HEWh/T6D97C5vCkCeyBWAnEQFIOdGAci5mfWSMSf0sesqAHno11QANnt5q6pqr+G3lwU+fUIZ+GRVvb6qvuXoCsLm53f1VQHIE7kCkFP4tBMyPXZuHFr/Ifmpt17iDwHlzLex2NvbH3cM9Us6q7bWOXQgTXWffwvg/AN4k6p6QFU9uqqeePRb/iOr6n5VdePzP+wkP6kA5ONGAcgRe1zn+ebL81NvvWTpBeAXO9p/bGvdBT/AOzrC/lBnFwUgT+TtcqXbsIACkHOjAAxnpt37oI5zZful5bb5qbdesvQC0OMTR5tfFN++te6CH+Dfdgz113d2UQDyRK4A5PApADk3CkDOTbsi+KlO8+Xv56edZMnSC8A3dnJvJeAXJhFe6IN8VSfY9i9z9b7UqwDkiVwByAekApBzowDk3LQlr+g0Xz735KfdeunSC0D7hNAHO9n//a11F/4Av9kB9rt2YKIA5IlcAcgBVABybhRY+pScAAAQjElEQVSAnJu25N6nvMF1c1l5zNf2y9JfP/lpt1669ALQAJ7a4Tz1hq1lV/AAX1hV7U+wjgntSeu+ZkcmCkAeMwUgh1AByLlRAHJuNkvasXXS/Ddm2bVV9bDNA3f8uoYC0D5ufNWE9h86uPx/p47mi3ro9m+Yv28C3Hbyv8WO9lwByBORApBDqADk3CgAOTfHl3xPVX12y/nyM1X12OMP2vH7NRSAxtP+8Ngrt3RvBa2d6760o/ciH/qOVfXyqvrcOYD/pKq+bwev+x+HVQDyRK4AHE/Kpd8rADk3CsClWTnp/9rf8vi9c8yV7QT0W0cfiT3p8adctpYC0Ezae8ueeXC++dNz2Ldz28uq6gumxF3bY92/ql5cVe2kftrlrHdV1fdfEKgCkMdHAchHpQKQc6MA5NwMLWl/7+LxBx8R/M9nuCLQfuO/sqq+4eivZw49Xq/71lQANkbtF9YfOPD/gzOcp9q5rL3b/+9sftjX0wXaOy//dlU95eCqwA9X1Quq6qeqqr1jtf0Vt795+kN0XUMByBO5ApCjpwDk3CgAOTenLWkfE2x/za+9PNA+t/78qvrBozevPfDg/29+2gN0XL7GAnCcq52L/snBP1F+xdE56mePzlntzehfscN/Z+T4Nvm+s4ACkCdyBSCHTwHIuVEAcm6WvGTtBWDJY2PbzymgAOSJXAHIoVIAcm4UgJybJS9RAJY8erZ9UEAByBO5AjAYmcM7FYCcGwUg52bJSxSAJY+ebR8UUADyRK4ADEbm8E4FIOdGAci5WfISBWDJo2fbBwUUgDyRKwCDkTm8UwHIuVEAcm6WvEQBWPLo2fZBAQUgT+QKwGBkDu9UAHJuFICcmyUvUQCWPHq2fVBAAcgTuQIwGJnDOxWAnBsFIOdmyUsUgCWPnm0fFFAA8kSuAAxG5vBOBSDnRgHIuVnyEgVgyaNn2wcFFIA8kSsAg5E5vFMByLlRAHJulrxEAVjy6Nn2QQEFIE/kCsBgZA7vVABybhSAnJslL1EAljx6tn1QQAHIE7kCMBiZwzsVgJwbBSDnZslLFIAlj55tHxRQAPJErgAMRubwTgUg50YByLlZ8hIFYMmjZ9sHBRSAPJErAIORObxTAci5UQBybpa8RAFY8ujZ9kEBBSBP5ArAYGQO71QAcm4UgJybJS9RAJY8erZ9UEAByBO5AjAYmcM7FYCcGwUg52bJSxSAJY+ebR8UUADyRK4ADEbm8E4FIOdGAci5WfISBWDJo2fbBwUUgDyRKwCDkTm8UwHIuVEAcm6WvEQBWPLo2fZBAQUgT+QKwGBkDu9UAHJuFICcmyUvUQCWPHq2fVBAAcgTuQIwGJnDOxWAnBsFIOdmyUsUgCWPnm0fFFAA8kSuAAxG5vBOBSDnRgHIuVnyEgVgyaNn2wcFfq7yRHbdlsuuqaobDz7rNHc+dMvtO23/FIA8TgpAPm4UgJybJS+5UVVd3XHOecGScWz7MgWe3THQ7+lMogB0Bj7h4RUABeCEeKx2UZvTTvvF4bzLn7laNTs2W4GHdAz0lZ33WgHoDHzCw/94x9y0CfQeJzz3tovu2XnbXQHYdoTm+/NtTjvvCf60n/uH891tW7ZWgcuq6t2dQv2IzmgKQGfgEx7+n3XKzGaSvNUJz73tIgUgn8Q+sC3uyn/+UZ1y364stJcY3AjsXODJHUL936vq8s57ogB0Bj7h4Vu525ysp/760ROed4pFCkAeOwXg5IS1Oa3NbVNn/kknP62lBPoKvHbCUH+yqr607+YeProCsAPk8BR/rao+MWFmjk+oLw3POdXdCkA+gSkAp6eszW1/NmH2f/30p7QGgb4CN6uqV00Q6j+uqq/qu6l/+egKwF9SXMg3L5kgL8dP/JvvH9R5bxQABWDbiP3dqvrIBPl/TVXdYtuN8fMEphBoH9l7blW13+A3k/GYr/+xqu42xYac8TEUgDNCdVrtDlX1f8+ZlZSr3r/9NwoFIB/frgCc/WC5a1W9/pz5b1fPntP5Y9Jn3xNrEjgmcJeDYLZ3ef+fM4S7fS62vTP24cd+flffKgC7ks7P08b9U2fISTrhH7//bVV16/xUky1RABSAycJUVQ+rqlce/PL0mTMcB+87eOIfrao7T7kBHotAD4H2rtT7VFV7g8pPVNWLquqXqupnjtrrgw++b38d66JuCsBFyV/6vO0ln20vh75xh1lSABSASxM8zf+1T6587cEV1GdV1U8fnORfXFUvPPpl6juq6l7e6T8NtEch0AQUgPnk4LZV9W/O8ZfS3l9VT6iq9nHUXd0UAAVgV1nzPAQIdBJQADrBbvGwt6+qZ1TVbx58/X/hkugfHLxX5FcOPk7VPkrY809Fp91QABSAlA33EyCwEAEFYN4D1X6rb6913ruq7l9Vd9/hZf6TZBQABeCkfFhGgMACBBSABQzSDDdRAVAAZhhLm0SAwBgBBWCMlnU3AgqAArDJgq8ECCxUQAFY6MBd8GYrAArABUfQ0xMgsK2AArCt4H7+vAKgAOxn8u01gRUJKAArGswd7ooCoADsMG6eigCBHgIKQA/V9T+mAqAArD/l9pDAygUUgJUPcKfdUwAUgE7R8rAECOxKQAHYlfS6nkcBUADWlWh7Q2APBRSAPRz0CXZZAVAAJoiRhyBA4CIFFICL1F/ucysACsBy02vLCRA4FFAABOE8AgqAAnCe3PgZAgRmJKAAzGgwFrQpCoACsKC42lQCBIYEFIAhFfedJqAAKACnZcRyAgRmLqAAzHyAZrp5CoACMNNo2iwCBM4qoACcVcp6xwUUAAXgeB58T4DAAgUUgAUO2gw2WQFQAGYQQ5tAgMA2AgrANnr7+7MKgAKwv+m35wRWIqAArGQgd7wbCoACsOPIeToCBKYWUACmFt2Px1MAFID9SLq9JLBiAQVgxYPbcdcUAAWgY7w8NAECuxBQAHahvL7nUAAUgPWl2h4R2DMBBWDPBnyi3VUAFICJouRhCBC4KAEF4KLkl/28CoACsOwE23oCBEoBEILzCCgACsB5cuNnCBCYkYACMKPBWNCmKAAKwILialMJEBgSUACGVNx3moACoACclhHLCRCYuYACMPMBmunmKQAKwEyjabMIEDirwNdUnsium2DZU866IdZblMDSC8BbJsh2Oj7eu6iRtLEECOytwN07ToRtgnzE3sque8eXXgBe2TH3b1730Ns7AgTWInCzqrq242R4n7VA2Y9LBJZeAH6yY+ZffomU/yFAgMCMBf5Dp8nwXVV12Yz326adX2DpBeCBnTLfrnp90/lZ/SQBAgR2K/DoTpPhc3a7G55thwJLLwCN6p0dcv/BqrrpDsfBUxEgQGBrgalfE327iXDrMZnzA6yhANy/qq6ZsAR8rqoeOedBs20ECBAYErjdhL8RfaCq7jH0JO5bjcAaCkAbjKdW1WcnKgE/tJrRtSMECOydwG2q6o1bTobvqKov3ju5/dvhtRSANnLfUlWf2CL3n66q796/CNhjAgTWKPCtVfXukRPih6rqe6rq8jWC2KcbCKypALSdu3NVvayqrh6R+7+oqiur6q430HEHAQIEFizQ3r3/4Kp6YVW9beCjgu2y6f+sqpdW1WOq6iYL3lebPl5gbQVgI3D7qvrnVfXqqmpv6Lv+H/v5cFVdVVXtDa532fyQrwQIEFi7wG2Pfttpk+SN1r6z9u9EgbUWgOvvdLuidYequqOSe30a/0+AAAEC+yiwLwVgH8fWPhMgQIAAgSigAEQaCwgQIECAwHoFFID1jq09I0CAAAECUUABiDQWECBAgACB9QooAOsdW3tGgAABAgSigAIQaSwgQIAAAQLrFVAA1ju29owAAQIECEQBBSDSWECAAAECBNYroACsd2ztGQECBAgQiAIKQKSxgAABAgQIrFdAAVjv2NozAgQIECAQBRSASGMBAQIECBBYr4ACsN6xtWcECBAgQCAKKACRxgICBAgQILBeAQVgvWNrzwgQIECAQBRQACKNBQQIECBAYL0CCsB6x9aeESBAgACBKKAARBoLCBAgQIDAegUUgPWOrT0jQIAAAQJRQAGINBYQIECAAIH1CigA6x1be0aAAAECBKKAAhBpLCBAgAABAusVUADWO7b2jAABAgQIRAEFINJYQIAAAQIE1iugAKx3bO0ZAQIECBCIAgpApLGAAAECBAisV0ABWO/Y2jMCBAgQIBAFFIBIYwEBAgQIEFivgAKw3rG1ZwQIECBAIAooAJHGAgIECBAgsF4BBWC9Y2vPCBAgQIBAFFAAIo0FBAgQIEBgvQJ3qarrOv53xXrp7BkBAgQIEFiuwI2q6uqOBeDblktjywkQIECAwLoF3tGxANxv3XT2jgABAgQILFfgWZ0KwDuXS2LLCRAgQIDA+gVuV1Uf7lACHrd+OntIgAABAgSWLfDoiQvAry2bw9YTIECAAIH9EXhiVV07QRG4qqpuuT9s9pQAAQIECCxf4Ouq6n+fswR8uqp+vKouXz6DPSBAgAABAvsncPOqekZV/e4Zi8DHq+qFVXW3/aOyxwQIECBAYJ0C962qJx+d4K+sqjdV1euq6mVV9dyqenBVtcLgRoAAAQIECBAgQIAAAQIECBAgQIAAAQIECBAgQIAAAQIECBAgQIAAAQIECBAgQIAAAQIECBAgQIAAAQIECBAgQIAAAQIECBAgQIAAAQIECBAgQIAAAQIECBAgQIAAAQIECBAgQIAAAQIECBAgQIAAAQIECBAgQIAAAQIECBAgQIAAAQIECBAgQIAAAQIECBAgQIAAAQIECBAgQIAAAQIECBAgQIAAAQIECBAgQIAAAQIECBAgQIAAAQIECBAgQIAAAQIECBAgQIAAAQIECBAgQIAAAQIECBAgQIAAAQIECBAgQIAAAQIECBAgQIAAAQIECBAgQIAAAQIECBAgQIAAAQIECBAgQIAAAQIECBAgQIAAAQIECBAgQIAAAQIECBAgQIAAAQIECBAgQIAAAQIECBAgQIAAAQIECBAgQIAAAQIECBAgQIAAAQIECBAgQIAAAQIECBAgQIAAAQIECBAgQIAAAQIECBAgQIAAAQIECBAgQIAAAQIECBAgQIAAAQIECBAgQIAAAQIECBAgQIAAAQIECBAgQIAAAQIECBAgQIAAAQIECBAgQIAAAQIECBAgQIAAAQIECBAgQIAAAQIECBAgQIAAAQIECBAgQIAAAQIECBAgQIAAAQIECBAgQIAAAQIECBAgQIAAAQIECBAgQIAAAQIECBAgQIAAAQIECBAgQIAAAQIECBAgQIAAAQIECBAgQIAAAQIECBAgQIAAAQIECBAgQIAAAQIECBAgQIAAAQIECBAgQIAAAQIECBAgQIAAAQIECBAgQIAAAQIECBAgQIAAAQIECBAgQIAAAQIECBAgQIAAAQIECBAgQIAAAQIECBAgQIAAAQIECBAgQIAAAQIECBAgQIAAAQIECBAgQIAAAQIECBAgQIAAAQIECBAgQIAAAQIECBAgQIAAAQIECBAgQIAAAQIECBAgQIAAAQIECBAgQIAAAQIECBAgQIAAAQIECBAgQIAAAQIECBAgQIAAAQIECBAgQIAAAQIECBAgQIAAAQIECBAgQIAAAQIECBAgQIAAAQIECBAgQIAAAQIECBAgQIAAAQIECBAgQIAAAQIEJhL4/65njfP3X77QAAAAAElFTkSuQmCC;" vertex="1" parent="1">
          <mxGeometry x="120" y="345" width="50" height="50" as="geometry" />
        </mxCell>
        <mxCell id="KWvplseUJ8ZIvvT5c59l-8" value="" style="shape=image;verticalLabelPosition=bottom;labelBackgroundColor=default;verticalAlign=top;aspect=fixed;imageAspect=0;image=data:image/png,iVBORw0KGgoAAAANSUhEUgAAAgAAAAIACAYAAAD0eNT6AAAAAXNSR0IArs4c6QAAIABJREFUeAHt3XuQPWldHvDvwnINggQQEGNSgMhVTSAxRDRyMyq3UlJGhFKwiGAgolwS1ruxpFDLEk0oJGhAxJQFKwIbCIakEgv+kEpBgSZWxHAxgOEmUVBgd4XNvFNzdH67/cxMz+n3THefz6namtnTPed0f96n336mzznzq3IjQIAAAQIECBAgQIAAAQIECBAgQIAAAQIECBAgQIAAAQIECBAgQIAAAQIECBAgQIAAAQIECBAgQIAAAQIECBAgQIAAAQIECBAgQIAAAQIECBAgQIAAAQIECBAgQIAAAQIECBAgQIAAAQIECBAgQIAAAQIECBAgQIAAAQIECBAgQIAAAQIECBAgQIAAAQIECBAgQIAAAQIECBAgQIAAAQIECBAgQIAAAQIECBAgQIAAAQIECBAgQIAAAQIECBAgQIAAAQIECBAgQIAAAQIECBAgQIAAAQIECBAgQIAAAQIECBAgQIAAAQIECBAgQIAAAQIECBAgQIAAAQIECBAgQIAAAQIECBAgQIAAAQIECBAgQIAAAQIECBAgQIAAAQIECBAgQIAAAQIECBAgQIAAAQIECBAgQIAAAQIECBAgQIAAAQIECBAgQIAAAQIECBAgQIAAAQIECBAgQIAAAQIECBAgQIAAAQIECBAgQIAAAQIECBAgQIAAAQIECBAgQIAAAQIECBAgQIAAAQIECBAgQIAAAQIECBAgQIAAAQIECBAgQIAAAQIECBAgQIAAAQIECBAgQIAAAQIECBAgQIAAAQIECBAgQIAAAQIECBAgQIAAAQIECBAgQIAAAQIECBAgQIAAAQIECBAgQIAAAQIECBAgQIAAAQIECBAgQIAAAQIECBAgQIAAAQIECBAgQIAAAQIECBAgQIAAAQIECBAgQIAAAQIECBAgQIAAAQIECBAgQIAAAQIECBAgQIAAAQIECBAgQIAAAQIECBAgQIAAAQIECBAgQIAAAQIECBAgQIAAAQIECBAgQIAAAQIECBAgQIAAAQIECBAgQIAAAQIECBAgQIAAAQIECBAgQIAAAQIECBAgQIAAAQIECBAgQIAAAQIECBAgQIAAAQIECBAgQIAAAQIECBAgQIAAAQIECBAgQIAAAQIECBAgQIAAAQIECBAgQIAAAQIECBAgQIAAAQIECBAgQIAAAQIECBAgQIAAAQIECBAgQIAAAQIECBAgQIAAAQIECBAgQIAAAQIECBAgQIAAAQIECBAgQIAAAQIECBAgQIAAAQIE/krgy6rqKVX1oqq6sqreVFVXVdXLq+r7q+phVXWLv1rddwQIECBAgMBSBdoJ/dlV9XtVdd0Z/vuTqnpxVd1jqTtsuwkQIECAwL4LfH1VvfcMJ/2hYnB1VT2vqi7fd0T7T4AAAQIEliTwnVV17TlP/scLQXuZ4POWtOO2lQABAgQI7KvAYyY48R8vAa/eV0j7TYAAAQIEliJw+6r6yMQFoJWBJywFwHYSIECAAIF9FGhv+Dv+2/tU3//OPmLaZwIECBAgsBSBd3YqAK1ItI8RuhEgQIAAAQIzE7jxwef5r+lYAB4/s/21OQQIECBAgEBV3aXjyb9dAbiCMgECBAgQIDA/gXt2LgDt7wK4ESBAgAABAjMTUABmNiA2hwABAgQI7EJAAdiFsucgQIAAAQIzE1AAZjYgNocAAQIECOxCQAHYhbLnIECAAAECMxNQAGY2IDaHAAECBAjsQkAB2IWy5yBAgAABAjMTUABmNiA2hwABAgQI7EJAAdiFsucgQIAAAQIzE1AAZjYgNocAAQIECOxCQAHYhbLnIECAAAECMxNQAGY2IDaHAAECBAjsQkAB2IWy5yBAgAABAjMTUABmNiA2hwABAgQI7EJAAdiFsucgQIAAAQIzE1AAZjYgNocAAQIECOxCQAHYhbLnIECAAAECMxNQAGY2IDaHAAECBAjsQkAB2IWy5yBAgAABAjMTUABmNiA2hwABAgQI7EJAAdiFsucgQIAAAQIzE1AAZjYgNocAAQIECOxCQAHYhbLnIECAAAECMxNQAGY2IDaHAAECBAjsQkAB2IWy5yBAgAABAjMTUABmNiA2hwABAgQI7EJAAdiFsucgQIAAAQIzE1AAZjYgNocAAQIECOxCQAHYhbLnIECAAAECMxNQAGY2IDaHAAECBAjsQkAB2IWy5yBAgAABAjMTUABmNiA2hwABAr0EblRVt6uqu1bVHarqJr2eyOMuQmBfCsBNq+qOVXWnqrr5IkbGRhIgQGBLgXbCf/jBxPcLVfWOqrq2qq479t/nqup/HRSCl1fVY6vqZls+nx9flsBaC0A72X9vVb22qj50LO+b7H+sqt5QVVdU1d9Y1pDZWgIECJwscFlVPaGq/nBg8ttMgkNf28T4LFcGTsZd0dK1FYC7VNUrBoruUNY39332qCjcfUXjalcIENhTgc+vqjeNPPFvJsPN19+pqr+1p377tNtrKgDfelBeP7lF7j9TVU/bp8G3rwQIrEugva7/u1tMgpsC0L5+sKraCcJtvQJrKQDtxN1+kz+e3/N+/2PrHW57RoDAmgWunGgS3Eye/8ObptYcl8OCtxnrHl+ftwO9B1TVNRPn/lE72G5PQYAAgckEHjPxJLg5IfyLybbQA81NYA1XAKa64rXJe/v6R1XVPjngRoAAgUUIvL5TAXhXVbU3FbqtT2DpBeAfdMp8KwHfvL7htkcECKxRoH22+fof8Tv+G822399njWj2afEvAfxUxwLwK/JBgACBJQh8SceJsJWHRy4BwTaOFlj6FYBXdcz9m0dr+gECBAhcgMDXdJwIWwF4ygXsk6fsL7D0AvCWjrl/b39+z0CAAIHtBR7acSJsBeDp22+iR5ihwNILwFs75v4DMxwvm0SAAIEbCCgANyBxxxkEFID8twMUgDMEyCoECFy8gAJw8WOwxC1QABSAJebWNhMgcExAATiG4dszCygACsCZw2JFAgTmKaAAzHNc5r5VCoACMPeM2j4CBE4RUABOAbJ4UEABUAAGg+FOAgSWI6AALGes5rSlCoACMKc82hYCBM4hoACcA82PLP4vAfoYoBATILD3AgrA3kfgXACuALgCcK7g+CECBOYjoADMZyyWtCUKgAKwpLzaVgIEBgQUgAEUd50qoAAoAKeGxAoECMxbQAGY9/jMdesUAAVgrtm0XQQInFFAATgjlNUuEVAAFIBLAuF/CBBYnoACsLwxm8MWKwAKwBxyaBsIENhCQAHYAm+Pf1QBUAD2OP52ncA6BBSAdYzjrvdCAVAAdp05z0eAwMQCCsDEoHvycAqAArAnUbebBNYroACsd2x77pkCoAD0zJfHJkBgBwIKwA6QV/gUCoACsMJY2yUC+yWgAOzXeE+1twqAAjBVljwOAQIXJKAAXBD8wp9WAVAAFh5hm0+AgAIgA+cRUAAUgPPkxs8QIDAjAQVgRoOxoE1RABSABcXVphIgMCSgAAypuO80AQVAATgtI5YTIDBzAQVg5gM0081TABSAmUbTZhEgcFYBBeCsUtY7LqAAKADH8+B7AgQWKKAALHDQZrDJCoACMIMY2gQCBLYRUAC20ev/szeqqi+qqvtW1f2r6h5Vddv+T3vqMygACsCpIbECAQLzFlAA5jc+d6qqZ1bVf6mqP63hE817D8rAv6+qx1TVTS5gFxSA4XG5rqo+cAHj4SkJECAwWkABGE3W7QduV1Uvrqprw0m/nVyG/vujqnpiVV3Wbctu+MAKwPBYKAA3zIp7COytwI2r6ssOfit4clU9/2iCf2lV/WxVXVFVDz/4/jYXqKMAXCD+saf+6qr6aDjBD530h+570w6zpAAoAMfiO9m3t66qNif9y6r6map6SVW9qKqeV1XfWVX3qar2spgbgVkLfPHRCf+DZ5jUr6mq11TVIy5gjxSAC0C/3lP+o4MJ79NnyMnQSf/6971jRyVAAVAArhfjrf73G6vqNw5+Kbr6DMfB+w9e9vqJo/fGbPWkfpjA1AKXV9UPVtWfnyHI15+82/+33+K+ZOqNOuHxFIATcHaw6Auq6kPnzMpQftp9L9/BdisACsAUMbt7Vf2nc+b/z46uorarrG4ELlzglgfv1L7qnGE+Ppl//OANYO2S8C5uCsAulPNz/OIEeTmenc33vfOjACgAOdVnW/KVE7zs1fL+uqpqc68bgQsTaG/AmuLkv5nA2xWEe+1gbxSAHSCHp7jVwbv9P9GpALwsPOdUdysACsA2WWpz23mvkm7myONf20uobgQuTOC7Okzkb6uq9pJCz5sC0FP35Md+ZIfMbCbF9obCnjcFQAE4b77anNbmtk1Wp/ra3mjtRmDnAu23/3d3CHQ7MNpJoudNAeipe/JjP61TZjYTarvC0OumAOQTmL8DcHLqHt0p9+1vY/iEwMn2lnYQ6HkSvbLD9h5/yJ7b3k5ETz/+ZL6/RODHO02EmwLQ/mpgr5sCoACcN1u/3jH3X3vejfJzBM4r8JyOgX7PeTfqjD+nAJwRqsNq7bPNm5N1j68930OiAOSxcwXg5IPlfR1z3/6CphuBnQr8fMdAt78R0PNjLgrATqNyyZMpAPkk2mx63t7a8ZhVAPLItUv0bU7rUXjbY74gP7UlBPoI/HLHQLdQt7+O1eumAPSSPf1xFYB8IlAATs/PEtf4vM5zZZuL3QjsVEAByBO59wDkKCoAOTcKQM7NkpcoAEsePds+KKAA5IlcARiMzOGdCkDOjQKQc7PkJQrAkkfPtg8KKAB5IlcABiNzeKcCkHOjAOTcLHmJArDk0bPtgwIKQJ7IFYDByBzeqQDk3CgAOTdLXqIALHn0bPuggAKQJ3IFYDAyh3cqADk3CkDOzZKXKABLHj3bPiigAOSJXAEYjMzhnQpAzo0CkHOz5CUKwJJHz7YPCigAeSJXAAYjc3inApBzowDk3Cx5iQKw5NGz7YMCCkCeyBWAwcgc3qkA5NwoADk3S16iACx59Gz7oIACkCdyBWAwMod3KgA5NwpAzs2SlygASx492z4ooADkiVwBGIzM4Z0KQM6NApBzs+QlCsCSR8+2DwooAHkiVwAGI3N4pwKQc6MA5NwseYkCsOTRs+2DAgpAnsgVgMHIHN6pAOTcKAA5N0teogAsefRs+6CAApAncgVgMDKHdyoAOTcKQM7NkpcoAEsePds+KKAA5IlcARiMzOGdCkDOjQKQc7PkJQrAkkfPtg8KKAB5IlcABiNzeKcCkHOjAOTcLHmJArDk0bPtgwIKQJ7IFYDByBzeqQDk3CgAOTdLXqIALHn0bPuggAKQJ3IFYDAyh3cqADk3CkDOzZKXKABLHj3bPiigAOSJXAEYjMzhnQpAzo0CkHOz5CUKwJJHz7YPCigAeSJXAAYjc3inApBzowDk3Cx5iQKw5NG7oG2/SVU9oKq+++D5f7Sqfq6qfrqqfqCqHldVd7ug7do8rQKQJ3IFYJOSG35VAHJuFIAb5uWs93x+VX1dVX1fVf1YVT2/qn64qtqx+KCquuVZH6jDemsvAO1c9G1H56Z2jmrnqnbOeurROaydy9zOKPCVVfXvquoTlSeK646Wvfso5Hc+42NPuZoCkMdHAchJUwBybhSAnJuhJTetqu+oqv92MA9+7pT58pqqek1VPeqgIFw29GAd71tjAWjnnB+pqvec4t7OVe1c9ktV9fc6Gi/+oe9UVb96hiBvTv7HvzbgZ1fVjXeooADkiVwByEFUAHJuFICcm+svab/t//4ZTj7H58nN92+pqi+//gN2/P81FYB2jnlOVX3yHPatpL2iqu7Y0XqRD33vqvrDc4BuAr35+tqqusWOBBSAPJErADmECkDOjQKQc3N8yTOq6rNbzpefqap/fPxBO36/lgJw86p61Zbu7Vz1waq6X0fvRT30Fx28TvWxCVA3JeB1O7rEpQDkiVwByIegApBzowDk3GyWtJP/Zq7b9utfHL1vYPPYvb6uoQC0l03eMKH9R6rqC3uBL+VxG+qbJkTdHBDtzRe9bwpAnogUgJw+BSDnRgHIuWlL7ltVn554vmy/jd7u5KfdeukaCsDTJnZv56o3bi278Ado707dnLSn/PqBHbwfQAHIY6cA5ANTAci5UQBybtqS9h6pKefJzWNdcfLTbr106QXg8qPL9huvKb8+cGvdBT/ASzoFug3QN3R2UQDyZKQA5PApADk3CkDOzW2q6lOd5st35aedZMnSC8AjOrm389SLJxFe6IO8syNs+wxsz5sCkCdyBSAnTwHIuVEAcm6+uuNc2U5Et81PvfWSpReA9pn+KX/rP/5Yb99ad8EP8PGOsO3qQs+bApAPiosuADc7+sztNx18uuRJR5+VfszB56C/oqra5byLvCkAOTcKQE5m+0Mzx08cU3/f82OBSy8A7TP8U3tvHq+9AX5vbxuEHl9f3VlVAcgHxUUUgFsfvE73T6vqt6rq6hMO2D8/evPN43f4kdHjUVQAcm4UgONJufT7Hm9COz7vPuTSp5v0/5ZeANq55LjV1N9Pir2kB5sa8vjjKQA5CQ/tHOhdFoAbHfw1rm+vqvaxmuPjf5bv2zug28/u8i+jKQB5nBSAfMy2Y+osmT7vOm1O6HVTAE4eu17us3/c84b1LD+nAOThX0sBaH/f/KoJJsaXVdWu/l63ApAnQwUgH7MKQM5Nuxrb8+YKQCfds5zIz7uOApAHbQ0FoL2W/+YJTv6bfP1a5pp0iQKQJ3IFIEdNAci5UQBybma9ZDP59viqAOShX0MB+FcTnvw3+XtyJptsiQKQJ3IFIMdMAci5UQBybma9ZDPx9viqAOShX3oBuMMpb/Q7b54+WlXtX1jreVMA8kSuAOTkKQA5NwpAzs2sl5x3oj7LzykAeeiXXgDav3l+lgycZ53HZrZJligAeewUgBwxBSDnRgHIuZn1kvNM0Gf9GQUgD/3SC0D7Vx/PmoOx6/3rzDbJEgUgj50CkCOmAOTcKAA5N7NeMnZyHrO+ApCHfukFoP31rDFZGLNuKxc9bwpAHjsFICdPAci5UQBybma9ZMzEPHZdBSAP/dILwPs7FoDfzmyTLFEA8kSuAOSIKQA5NwpAzs2sl4w9qY9ZXwHIQ7/0AtD+tccxWRiz7lsz2yRLFIA8dgpAjpgCkHOjAOTczHrJmIl57LoKQB56BSBPJgpAzs09OxavdnwrANleAcjHrAKQczPrJWNP6mPWVwDy0CsAeTJRAHJuFICcm3ZVqudNAcj2CkDP5HV87DEn9LHrKgB54BSAPJkoADk3CkDOjQKQc+PfAsi5aee1vb2NPamPWV8ByLFSAPIBqQDk3CgAOTcKQM6NApBzowB0el1RAcgHpAKQD0gFIOdGAci5UQBybhSAnBsFQAEYfEd7+/fte90UgHxAKgA5dQpAzo0CkHOjAOTcKAAKgAKQ547BJW2yHfNy0Jh1FYBB8sM7FYCcOwUg50YByLlRADpN5l4CyAekKwD5gFQAcm4UgJwbBSDnRgHIuVEAFIDB32a9BJAnFFcA8oRyr8y29RIFILsrADleCkDOjQKgACgAee4YXKIA5AlFARiMzOGd7erOmJeDxqyrAGR3BeDk3GW5lS8Zc4CNXddLADk8XgLIB6SXAHJuXAHIuVEAcm4UgJybdl7b29vYk/qY9RWAHCsFIB+QCkDOjQKQc6MA5NwoADk3CkCny3IKQD4gFYB8QCoAOTcKQM6NApBzowDk3CgACsDg65LeBJgnlDbZjrkaNGZdBSC7KwA5dwpAzo0CkHOjAHSazF0ByAekKwD5gFQAcm4UgJwbBSDnRgHIuVEAFIDB32ZdAcgTiisAeULxKYCcm1buxlwNGrOuApDdFYCTc5flVr5kzAE2dl1XAHJ4XAHIB6QrADk3rgDk3CgAOTcKQM5NO6/t7W3sSX3M+gpAjpUCkA9IBSDnRgHIuVEAcm4UgJwbBaDTZTkFIB+QCkA+IBWAnBsFIOdGAci5UQBybhQABWDwdUnvAcgTSptsx1wNGrOuApDdFYCcOwUg50YByLlRADpN5q4A5APSFYB8QCoAOTcKQM6NApBzowDk3CgACsDgb7OuAOQJxRWAPKH4FEDOTSt3Y64GjVlXAcjuCsDJuctyK18y5gAbu64rADk8rgDkA9IVgJwbVwBybhSAnBsFIOemndf29jb2pD5mfQUgx0oByAekApBzowDk3CgAOTcKQM6NAtDpspwCkA9IBSAfkApAzo0CkHOjAOTcKAA5NwqAAjD4uqT3AOQJpU22Y64GjVlXAcjuCkDOnQKQc6MA5NwoAJ0mc1cA8gHpCkA+IBWAnBsFIOdGAci5UQBybhQABWDwt1lXAPKE4gpAnlB8CiDnppW7MVeDxqyrAGR3BeDk3GW5lS8Zc4CNXdcVgBweVwDyAekKQM6NKwA5NwpAzo0CkHPTzmt7ext7Uh+zvgKQY6UA5ANSAci5UQBybhSAnBsFIOdGAeh0WU4ByAekApAPSAUg50YByLlRAHJuFICcGwVAARh8XdJ7APKE0ibbMVeDxqyrAGR3BSDnTgHIuVEAcm4UgE6TuSsA+YB0BSAfkApAzo0CkHOjAOTcKAA5NwqAAjD426wrAHlCcQUgTyg+BZBz08rdmKtBY9ZVALK7AnBy7rLcypeMOcDGrusKQA6PKwD5gHQFIOfGFYCcGwUg50YByLlp57W9vY09qY9ZXwHIsVIA8gGpAOTcKAA5NwpAzo0CkHOjAHS6LKcA5ANSAcgHpAKQc6MA5NwoADk3CkDOjQKgAAy+Luk9AHlCaZPtmKtBY9ZVALK7ApBzpwDk3CgAOTcKQKfJ3BWAfEC6ApAPSAUg50YByLlRAHJuFICcGwVAARj8bdYVgDyhuAKQJxSfAsi5aeVuzNWgMesqANldATg5d1lu5UvGHGBj13UFIIfHFYB8QLoCkHPjCkDOjQKQc6MA5Ny089re3sae1MesrwDkWCkA+YBUAHJuFICcGwUg50YByLlRADpdllMA8gGpAOQDUgHIuVEAcm4UgJwbBSDnRgFQAAZfl/QegDyhtMl2zNWgMesqANldAci5UwBybhSAnBsFoNNk7gpAPiBdAcgHpAKQc6MA5NwoADk3CkDOjQKgAAz+NusKQJ5QXAHIE4pPAeTctHI35mrQmHUVgOyuAJycuyy38iVjDrCx67oCkMPjCkA+IF0ByLlxBSDnRgHIuVEAcm7aeW1vb2NP6mPWVwByrBSAfEAqADk3CkDOjQKQc6MA5NwoAJ0uyykA+YBUAPIBqQDk3CgAOTcKQM6NApBzowAoAIOvS3oPQJ5Q2mQ75mrQmHUVgOyuAOTcKQA5NwpAzo0C0GkydwUgH5CuAOQDUgHIuVEAcm4UgJwbBSDnRgFQAAZ/m3UFIE8orgDkCcWnAHJuWrkbczVozLoKQHZXAE7OXZZb+ZIxB9jYdV0ByOFxBSAfkK4A5Ny4ApBzowDk3CgAOTftvLa3t7En9THrKwA5VgpAPiAVgJwbBSDnRgHIuVEAcm4UgE6X5RSAfEAqAPmAVABybhSAnBsFIOdGAci5UQAUgMHXJb0HIE8obbIdczVozLoKQHZXAHLuFICcGwUg50YB6DSZuwKQD0hXAPIBqQDk3CgAOTcKQM6NApBzowAoAIO/zboCkCcUVwDyhOJTADk3rdyNuRo0Zl0FILsrACfnLsutfMmYA2zsuq4A5PC4ApAPSFcAcm5cAci5UQBybhSAnJt2Xtvb29iT+pj1FYAcKwUgH5AKQM6NApBzowDk3CgAOTcKQKfLcgpAPiAVgHxAKgA5NwpAzo0CkHOjAOTcKAAKwODrkt4DkCeUNtmOuRo0Zl0FILsrADl3CkDOjQKQc6MAdJrMXQHIB6QrAPmAVABybhSAnBsFIOdGAci5UQAUgMHfZl0ByBOKKwB5QvEpgJybVu7GXA0as64CkN0VgJNzl+VWvmTMATZ2XVcAcnhcAcgHpCsAOTeuAOTcKAA5NwpAzk07r+3tbexJfcz6CkCO1dILwPs7/ib325ltkiXP67jt7fhwBSAPkysA+UTU5oReNwUguysAnSZEBSAfzksvAG/rlJl2ML42s02yRAHIk2Gz6XlTALK9ApCT184lY375HLtufuaVLxkLNWZ9BSCHZ+kF4Dc6HpA/n9kmWaIA5MlUAcgRe3rHzLd5VQHI9gpAttlqyZgT+th1FYA8NEsvAN/bcTL85sw2yRIFQAE4T5AUgJybXz4P6IifUQBGYI1ZdexJfcz6CkAeiaUXgNtX1dUdSsBHquqmmW2SJQpAnshdAcgRUwBybhSAnJtZLxlzQh+7rgKQh37pBaDt2Y90KABPymSTLVEA8kSuAOSYKQA5NwpAzs2sl4w9qY9ZXwHIQ7+GAnB5Vf3XCUvAr2auSZcoAHkiVwBy1BSAnBsFIOdm1kvGnNDHrqsA5KFfQwFoe3ezqnrVBCXgpVXVCsUubgpAnsgVgJxABSDnRgHIuZn1krEn9THrKwB56NdSANoeXlZV315VHz5HEWh/T6D97C5vCkCeyBWAnEQFIOdGAci5mfWSMSf0sesqAHno11QANnt5q6pqr+G3lwU+fUIZ+GRVvb6qvuXoCsLm53f1VQHIE7kCkFP4tBMyPXZuHFr/Ifmpt17iDwHlzLex2NvbH3cM9Us6q7bWOXQgTXWffwvg/AN4k6p6QFU9uqqeePRb/iOr6n5VdePzP+wkP6kA5ONGAcgRe1zn+ebL81NvvWTpBeAXO9p/bGvdBT/AOzrC/lBnFwUgT+TtcqXbsIACkHOjAAxnpt37oI5zZful5bb5qbdesvQC0OMTR5tfFN++te6CH+Dfdgz113d2UQDyRK4A5PApADk3CkDOTbsi+KlO8+Xv56edZMnSC8A3dnJvJeAXJhFe6IN8VSfY9i9z9b7UqwDkiVwByAekApBzowDk3LQlr+g0Xz735KfdeunSC0D7hNAHO9n//a11F/4Av9kB9rt2YKIA5IlcAcgBVABybhRY+pScAAAQjElEQVSAnJu25N6nvMF1c1l5zNf2y9JfP/lpt1669ALQAJ7a4Tz1hq1lV/AAX1hV7U+wjgntSeu+ZkcmCkAeMwUgh1AByLlRAHJuNkvasXXS/Ddm2bVV9bDNA3f8uoYC0D5ufNWE9h86uPx/p47mi3ro9m+Yv28C3Hbyv8WO9lwByBORApBDqADk3CgAOTfHl3xPVX12y/nyM1X12OMP2vH7NRSAxtP+8Ngrt3RvBa2d6760o/ciH/qOVfXyqvrcOYD/pKq+bwev+x+HVQDyRK4AHE/Kpd8rADk3CsClWTnp/9rf8vi9c8yV7QT0W0cfiT3p8adctpYC0Ezae8ueeXC++dNz2Ldz28uq6gumxF3bY92/ql5cVe2kftrlrHdV1fdfEKgCkMdHAchHpQKQc6MA5NwMLWl/7+LxBx8R/M9nuCLQfuO/sqq+4eivZw49Xq/71lQANkbtF9YfOPD/gzOcp9q5rL3b/+9sftjX0wXaOy//dlU95eCqwA9X1Quq6qeqqr1jtf0Vt795+kN0XUMByBO5ApCjpwDk3CgAOTenLWkfE2x/za+9PNA+t/78qvrBozevPfDg/29+2gN0XL7GAnCcq52L/snBP1F+xdE56mePzlntzehfscN/Z+T4Nvm+s4ACkCdyBSCHTwHIuVEAcm6WvGTtBWDJY2PbzymgAOSJXAHIoVIAcm4UgJybJS9RAJY8erZ9UEAByBO5AjAYmcM7FYCcGwUg52bJSxSAJY+ebR8UUADyRK4ADEbm8E4FIOdGAci5WfISBWDJo2fbBwUUgDyRKwCDkTm8UwHIuVEAcm6WvEQBWPLo2fZBAQUgT+QKwGBkDu9UAHJuFICcmyUvUQCWPHq2fVBAAcgTuQIwGJnDOxWAnBsFIOdmyUsUgCWPnm0fFFAA8kSuAAxG5vBOBSDnRgHIuVnyEgVgyaNn2wcFFIA8kSsAg5E5vFMByLlRAHJulrxEAVjy6Nn2QQEFIE/kCsBgZA7vVABybhSAnJslL1EAljx6tn1QQAHIE7kCMBiZwzsVgJwbBSDnZslLFIAlj55tHxRQAPJErgAMRubwTgUg50YByLlZ8hIFYMmjZ9sHBRSAPJErAIORObxTAci5UQBybpa8RAFY8ujZ9kEBBSBP5ArAYGQO71QAcm4UgJybJS9RAJY8erZ9UEAByBO5AjAYmcM7FYCcGwUg52bJSxSAJY+ebR8UUADyRK4ADEbm8E4FIOdGAci5WfISBWDJo2fbBwUUgDyRKwCDkTm8UwHIuVEAcm6WvEQBWPLo2fZBAQUgT+QKwGBkDu9UAHJuFICcmyUvUQCWPHq2fVBAAcgTuQIwGJnDOxWAnBsFIOdmyUsUgCWPnm0fFFAA8kSuAAxG5vBOBSDnRgHIuVnyEgVgyaNn2wcFfq7yRHbdlsuuqaobDz7rNHc+dMvtO23/FIA8TgpAPm4UgJybJS+5UVVd3XHOecGScWz7MgWe3THQ7+lMogB0Bj7h4RUABeCEeKx2UZvTTvvF4bzLn7laNTs2W4GHdAz0lZ33WgHoDHzCw/94x9y0CfQeJzz3tovu2XnbXQHYdoTm+/NtTjvvCf60n/uH891tW7ZWgcuq6t2dQv2IzmgKQGfgEx7+n3XKzGaSvNUJz73tIgUgn8Q+sC3uyn/+UZ1y364stJcY3AjsXODJHUL936vq8s57ogB0Bj7h4Vu525ysp/760ROed4pFCkAeOwXg5IS1Oa3NbVNn/kknP62lBPoKvHbCUH+yqr607+YeProCsAPk8BR/rao+MWFmjk+oLw3POdXdCkA+gSkAp6eszW1/NmH2f/30p7QGgb4CN6uqV00Q6j+uqq/qu6l/+egKwF9SXMg3L5kgL8dP/JvvH9R5bxQABWDbiP3dqvrIBPl/TVXdYtuN8fMEphBoH9l7blW13+A3k/GYr/+xqu42xYac8TEUgDNCdVrtDlX1f8+ZlZSr3r/9NwoFIB/frgCc/WC5a1W9/pz5b1fPntP5Y9Jn3xNrEjgmcJeDYLZ3ef+fM4S7fS62vTP24cd+flffKgC7ks7P08b9U2fISTrhH7//bVV16/xUky1RABSAycJUVQ+rqlce/PL0mTMcB+87eOIfrao7T7kBHotAD4H2rtT7VFV7g8pPVNWLquqXqupnjtrrgw++b38d66JuCsBFyV/6vO0ln20vh75xh1lSABSASxM8zf+1T6587cEV1GdV1U8fnORfXFUvPPpl6juq6l7e6T8NtEch0AQUgPnk4LZV9W/O8ZfS3l9VT6iq9nHUXd0UAAVgV1nzPAQIdBJQADrBbvGwt6+qZ1TVbx58/X/hkugfHLxX5FcOPk7VPkrY809Fp91QABSAlA33EyCwEAEFYN4D1X6rb6913ruq7l9Vd9/hZf6TZBQABeCkfFhGgMACBBSABQzSDDdRAVAAZhhLm0SAwBgBBWCMlnU3AgqAArDJgq8ECCxUQAFY6MBd8GYrAArABUfQ0xMgsK2AArCt4H7+vAKgAOxn8u01gRUJKAArGswd7ooCoADsMG6eigCBHgIKQA/V9T+mAqAArD/l9pDAygUUgJUPcKfdUwAUgE7R8rAECOxKQAHYlfS6nkcBUADWlWh7Q2APBRSAPRz0CXZZAVAAJoiRhyBA4CIFFICL1F/ucysACsBy02vLCRA4FFAABOE8AgqAAnCe3PgZAgRmJKAAzGgwFrQpCoACsKC42lQCBIYEFIAhFfedJqAAKACnZcRyAgRmLqAAzHyAZrp5CoACMNNo2iwCBM4qoACcVcp6xwUUAAXgeB58T4DAAgUUgAUO2gw2WQFQAGYQQ5tAgMA2AgrANnr7+7MKgAKwv+m35wRWIqAArGQgd7wbCoACsOPIeToCBKYWUACmFt2Px1MAFID9SLq9JLBiAQVgxYPbcdcUAAWgY7w8NAECuxBQAHahvL7nUAAUgPWl2h4R2DMBBWDPBnyi3VUAFICJouRhCBC4KAEF4KLkl/28CoACsOwE23oCBEoBEILzCCgACsB5cuNnCBCYkYACMKPBWNCmKAAKwILialMJEBgSUACGVNx3moACoACclhHLCRCYuYACMPMBmunmKQAKwEyjabMIEDirwNdUnsium2DZU866IdZblMDSC8BbJsh2Oj7eu6iRtLEECOytwN07ToRtgnzE3sque8eXXgBe2TH3b1730Ns7AgTWInCzqrq242R4n7VA2Y9LBJZeAH6yY+ZffomU/yFAgMCMBf5Dp8nwXVV12Yz326adX2DpBeCBnTLfrnp90/lZ/SQBAgR2K/DoTpPhc3a7G55thwJLLwCN6p0dcv/BqrrpDsfBUxEgQGBrgalfE327iXDrMZnzA6yhANy/qq6ZsAR8rqoeOedBs20ECBAYErjdhL8RfaCq7jH0JO5bjcAaCkAbjKdW1WcnKgE/tJrRtSMECOydwG2q6o1bTobvqKov3ju5/dvhtRSANnLfUlWf2CL3n66q796/CNhjAgTWKPCtVfXukRPih6rqe6rq8jWC2KcbCKypALSdu3NVvayqrh6R+7+oqiur6q430HEHAQIEFizQ3r3/4Kp6YVW9beCjgu2y6f+sqpdW1WOq6iYL3lebPl5gbQVgI3D7qvrnVfXqqmpv6Lv+H/v5cFVdVVXtDa532fyQrwQIEFi7wG2Pfttpk+SN1r6z9u9EgbUWgOvvdLuidYequqOSe30a/0+AAAEC+yiwLwVgH8fWPhMgQIAAgSigAEQaCwgQIECAwHoFFID1jq09I0CAAAECUUABiDQWECBAgACB9QooAOsdW3tGgAABAgSigAIQaSwgQIAAAQLrFVAA1ju29owAAQIECEQBBSDSWECAAAECBNYroACsd2ztGQECBAgQiAIKQKSxgAABAgQIrFdAAVjv2NozAgQIECAQBRSASGMBAQIECBBYr4ACsN6xtWcECBAgQCAKKACRxgICBAgQILBeAQVgvWNrzwgQIECAQBRQACKNBQQIECBAYL0CCsB6x9aeESBAgACBKKAARBoLCBAgQIDAegUUgPWOrT0jQIAAAQJRQAGINBYQIECAAIH1CigA6x1be0aAAAECBKKAAhBpLCBAgAABAusVUADWO7b2jAABAgQIRAEFINJYQIAAAQIE1iugAKx3bO0ZAQIECBCIAgpApLGAAAECBAisV0ABWO/Y2jMCBAgQIBAFFIBIYwEBAgQIEFivgAKw3rG1ZwQIECBAIAooAJHGAgIECBAgsF4BBWC9Y2vPCBAgQIBAFFAAIo0FBAgQIEBgvQJ3qarrOv53xXrp7BkBAgQIEFiuwI2q6uqOBeDblktjywkQIECAwLoF3tGxANxv3XT2jgABAgQILFfgWZ0KwDuXS2LLCRAgQIDA+gVuV1Uf7lACHrd+OntIgAABAgSWLfDoiQvAry2bw9YTIECAAIH9EXhiVV07QRG4qqpuuT9s9pQAAQIECCxf4Ouq6n+fswR8uqp+vKouXz6DPSBAgAABAvsncPOqekZV/e4Zi8DHq+qFVXW3/aOyxwQIECBAYJ0C962qJx+d4K+sqjdV1euq6mVV9dyqenBVtcLgRoAAAQIECBAgQIAAAQIECBAgQIAAAQIECBAgQIAAAQIECBAgQIAAAQIECBAgQIAAAQIECBAgQIAAAQIECBAgQIAAAQIECBAgQIAAAQIECBAgQIAAAQIECBAgQIAAAQIECBAgQIAAAQIECBAgQIAAAQIECBAgQIAAAQIECBAgQIAAAQIECBAgQIAAAQIECBAgQIAAAQIECBAgQIAAAQIECBAgQIAAAQIECBAgQIAAAQIECBAgQIAAAQIECBAgQIAAAQIECBAgQIAAAQIECBAgQIAAAQIECBAgQIAAAQIECBAgQIAAAQIECBAgQIAAAQIECBAgQIAAAQIECBAgQIAAAQIECBAgQIAAAQIECBAgQIAAAQIECBAgQIAAAQIECBAgQIAAAQIECBAgQIAAAQIECBAgQIAAAQIECBAgQIAAAQIECBAgQIAAAQIECBAgQIAAAQIECBAgQIAAAQIECBAgQIAAAQIECBAgQIAAAQIECBAgQIAAAQIECBAgQIAAAQIECBAgQIAAAQIECBAgQIAAAQIECBAgQIAAAQIECBAgQIAAAQIECBAgQIAAAQIECBAgQIAAAQIECBAgQIAAAQIECBAgQIAAAQIECBAgQIAAAQIECBAgQIAAAQIECBAgQIAAAQIECBAgQIAAAQIECBAgQIAAAQIECBAgQIAAAQIECBAgQIAAAQIECBAgQIAAAQIECBAgQIAAAQIECBAgQIAAAQIECBAgQIAAAQIECBAgQIAAAQIECBAgQIAAAQIECBAgQIAAAQIECBAgQIAAAQIECBAgQIAAAQIECBAgQIAAAQIECBAgQIAAAQIECBAgQIAAAQIECBAgQIAAAQIECBAgQIAAAQIECBAgQIAAAQIECBAgQIAAAQIECBAgQIAAAQIECBAgQIAAAQIECBAgQIAAAQIECBAgQIAAAQIECBAgQIAAAQIECBAgQIAAAQIECBAgQIAAAQIECBAgQIAAAQIECBAgQIAAAQIECBAgQIAAAQIECBAgQIAAAQIECBAgQIAAAQIECBAgQIAAAQIECBAgQIAAAQIECBAgQIAAAQIECBAgQIAAAQIEJhL4/65njfP3X77QAAAAAElFTkSuQmCC;direction=south;rotation=90;" vertex="1" parent="1">
          <mxGeometry x="150" y="374" width="53" height="53" as="geometry" />
        </mxCell>
        <mxCell id="KWvplseUJ8ZIvvT5c59l-9" value="" style="shape=image;verticalLabelPosition=bottom;labelBackgroundColor=default;verticalAlign=top;aspect=fixed;imageAspect=0;image=https://estuary.dev/static/af2d249f72d99043c1683315b24d1c14/c0d5f/b5359d_image_12513891_300x300_15c289455c.png;" vertex="1" parent="1">
          <mxGeometry x="211.31" y="380" width="25" height="25" as="geometry" />
        </mxCell>
        <mxCell id="KWvplseUJ8ZIvvT5c59l-23" style="edgeStyle=orthogonalEdgeStyle;rounded=0;orthogonalLoop=1;jettySize=auto;html=1;strokeColor=#FFFFFF;" edge="1" parent="1" source="KWvplseUJ8ZIvvT5c59l-10" target="i5Sq17mRc4E7U_H6DiuM-22">
          <mxGeometry relative="1" as="geometry" />
        </mxCell>
        <mxCell id="KWvplseUJ8ZIvvT5c59l-10" value="" style="rounded=1;whiteSpace=wrap;html=1;fillColor=#dae8fc;strokeColor=#6c8ebf;fillStyle=auto;" vertex="1" parent="1">
          <mxGeometry x="890" y="40" width="200" height="410" as="geometry" />
        </mxCell>
        <mxCell id="KWvplseUJ8ZIvvT5c59l-11" value="&lt;b&gt;&lt;font style=&quot;font-size: 21px;&quot;&gt;Análise do texto via IA&lt;/font&gt;&lt;/b&gt;" style="text;html=1;align=center;verticalAlign=middle;whiteSpace=wrap;rounded=0;" vertex="1" parent="1">
          <mxGeometry x="910" y="60" width="160" height="60" as="geometry" />
        </mxCell>
        <mxCell id="KWvplseUJ8ZIvvT5c59l-14" value="" style="shape=image;verticalLabelPosition=bottom;labelBackgroundColor=default;verticalAlign=top;aspect=fixed;imageAspect=0;image=https://estuary.dev/static/af2d249f72d99043c1683315b24d1c14/c0d5f/b5359d_image_12513891_300x300_15c289455c.png;" vertex="1" parent="1">
          <mxGeometry x="770" y="190" width="40" height="40" as="geometry" />
        </mxCell>
        <mxCell id="KWvplseUJ8ZIvvT5c59l-15" value="" style="shape=image;verticalLabelPosition=bottom;labelBackgroundColor=default;verticalAlign=top;aspect=fixed;imageAspect=0;image=data:image/png,iVBORw0KGgoAAAANSUhEUgAAAgAAAAIACAYAAAD0eNT6AAAACXBIWXMAAAsTAAALEwEAmpwYAAAAAXNSR0IArs4c6QAAAARnQU1BAACxjwv8YQUAAGLVSURBVHgB7d0HgFTV9T/wc+6bmZ2tFAGxYCxEjVhQid0IBmNJRDFx/4kxUSyAJcbejWMSFXsvYMGoMXFRQIwFG9gJLHbQ2EABRcAFtkx9757/eYvmp0ZlZnfezOzs96PLzuzu7E5588655zYiAAAAAAAAAAAAAAAAAAAAAAAAAAAAAAAAAAAAAAAAAAAAAAAAAAAAAAAAAAAAAAAAAAAAAAAAAAAAAAAAAAAAAAAAAAAAAAAAAAAAAAAAAAAAAAAAAAAAAAAAAAAAAAAAAAAAAAAAAAAAAAAAAAAAAAAAAAAAAAAAAAAAAAAAAAAAAAAAAAAAAAAAAAAAAAAAAAAAAAAAAAAAAAAAAAAAAAAAAAAAAAAAAAAAAAAAAAAAAAAAAAAAAAAAAAAAAAAAAAAAAAAAAAAAAAAAAAAAAAAAAAAAAAAAAAAAAAAAAAAAAAAAAAAAAAAAAAAAAAAAAAAAAAAAAAAAAAAAAAAAAAAAAAAAAAAAAAAAAAAAAAAAAAAAAAAAAAAAAAAAAAAAAAAAAAAAAAAAAAAAAAAAAAAAAAAAAAAAAAAAAAAAAAAAAAAAAAAAAAAAAAAAAAAAAAAAAAAAAAAAAAAAAAAAAAAAAAAAAAAAAAAAAAAAAAAAAAAAAAAAAICiYQLoJBExU16iPlThbq4H1FD9yjZiaaev/gwbmm1J3rRsnw2Z6JsHD6ZmZrYEADR8XFMPj0P92aVdmc0e+qXthaj3l99noY/13zeZ7HPkhGa560aXzRzFSQLoBCQA0ClPNkqPOHl7aBIw2jLtrdlAzffegCmtP/tUiJzxFRnnhf124yYC6KYObRCn6f3WLfTib/XNcbgIbbTWGzG/b6zcFDGhR+Ppig9nxjRtAOgAJADQYQ80prYMkTlOrPxOmHrlcltmWiVi79dLN7oLIm/X17NHAN3I0JjUcCh+mLbqT9Q3xDaUG1dP3q8SmavZST721Nm9VxNAjpAAQM60Bc8PzXF39ZjOYJLh+qWaDv6qtB6Cj+tReMXIHUMvapeAEEA3cMDlrf2TGTpCE+HjtdU/gDpyLtY3n/7zAVt7Q2+35tZJMU4TQA5CBJCjKW9QXyG5VM9Yu+tVhzouounEz5l4k2mv0n56/RMCKHPa8o+m3JajmMx5GvyrqKPETxpkoFYPLv28Iu4H/1sJIAeGAHLw0iKp5HR6vLZcfkKdC/5fcrSisI1n0+Mb5klHKwkAXQZXJA/Tw/5P2nzvePD/Cv/3sCdX7X1pYm8CyAESAMjJp8u8/bThcTDlm/AvQnHvFwRQxg68Uvqw2HM06a2gPBLWJMB6pw7VrgUCyBISAMjaI7OlP1sZTYGREx9uTKx9FDRAF9WWbjucRMv2AdBKwO4mLb8igCwhAYCsueTtxixbUXA2yUh4OAGUoT0vaemrUTqwKhcT1bExP933mrb1CCALSAAgKzNEQpbtyKzmKXeYrE9s953WKHnpGwUoJWHi/TRKb0EB0QqA0Y/BXtIE9jegvCABgKwsn0vraz/j+hQ41r+TKsDfASgs9miQdtb3pCAJ9Rd2MQ4AsoIEALKU7qGnsB4UMCbpba3pTQBlZFBMIuKYARqhA57pIlHyeAN/qiEBrAUSAMhKhccVJMGfVES4TrsBgm0lARRY35qWOqLCHNfM1KcnrUICAGuFBACy4hnuJcyBn8C0DzNk2MFxCWXFSRlnzcI9AKUDJ1rIjpDT/gEAOWOnOqlN8zYqAGvZTfXuiZ02Ya2QAAAABOyps3m1hubl5M+mDRKTx8YuTjRRnADWAgkAAEAhWP5Q/22lAGkfw+fGM4uwRTBkAwkAAEABsENv6b8rKEAitFgotIAAsoAEAACgAJ4+p+ZxYplDwUlogvHvTRdF3ieALCABAAAoECZ7i/6boUDwe9bahgkTgvr9UG6QAAAAFIiXrn2Zme6kAAjL38mreYEAsoQEAACgQPzBeR551wrxLMojIXkxEvVux+A/yAUSAACAApp5bt07THSCMM2kTmLiNDH/SypqDp5+ao8mAsgBEgAAgAJ75rzqV8TaC3hNEtBCHcKtQvYhS94ZM08PdnYBlCckAAAARTDz/LoXQhw6VgP51dqKz23kvvBcvc1FNuSc6lcUCKADQgQAAEUx/Zzo+/vH5OpERdssh2gf7czfU4h20G99y7Lb3KqRf75+PGbJPlW7Tu0rD49hrPgHHYYEAACgiB6LcbN+enzXqxc9W2F7VDvpin5svR9Zkr7Etj+xWSIeLQmR+17SMavi6Zq2uTEEfug8JAAAACXg5VMHJKh9MR/y+/PnE0DAMAYAAACgG0ICAAAA0A0hAQAAAOiGkAAAAAB0Q0gAAAAAuiEkAAAAAN0QEgAAAIBuCAkAAABAN4QEAAAAoBvCSoAAACVm/9jndVJR1fvL61wd/fSxkzhFAHmEBADgOzTMk0golfkRe7SzMG31tW8KL2GiOZmqUGP9IH+TFiiG/S+Lb5h2vT00RO7ytW+wrPbIzKmIui9NP7VHE3UB+16aHJix3lBm2SMtvDlZr/LL70lLW/NPL2ldxJafc1z3gemxrvGYoLQxAWRh8uzMfhoEJzJJfwqQEC8NGRp10I7hx6lIZsyQaFON9wvDcpyI/ZH2lFXrlyPf+DFX722bvoUW6wn7jkxl+B4kAoUxNCahUCi5i2X3NCaznZDtpa9R9Ks/o8epFaI2vbBMX5/JxiRvffKsvp9QCRoaW9nTVITPF8uH6P3Wx0I19C2NMybWvEASmnwuJ5Gbqt3mCQ/H1semQNBhSAAgK90hAZgxT2qaW1K7eiFzqd6RHXO5LTPNJzHjKiudR/bbmtE6C8ChMYk0hxKDXUPnaGJ2cE43Flmqx+6dkXDolp0TlZ/EYmypyIbeJDWhVW0jLJN/vG1EuXH1oHuFPbnQq6meNfMUXkUAOcIgQAD1yGzpv7ItfaINOXfpyXiHHG+u8cXvIrA3xhOZP0+em/qRiCC5zqNdr5bKpkhiRMbYv2nwH0G5Yu5P7Jyedu2tL0aSex7aIA4V0dBYa3+zuu1EzUKu60Dw94X0oNtJH8UtnIgfv2NMqgggR0gAoNvz+/rTxv2thuw/auBenzpYGdOSc53e8gjtpz132n/ay7iQB36wrmhr/bkG/gtYaHPq4HlLSCL6+uzniXvx8g9Sm1CR+JUMp4J+qxf/qB99qDOENtbKxh96hNoOIoAcIQGAbi/clq7XwP9n7WPtfPeGtAf+X0ur+yeCvGh6v3UL45gb9eI20slzllZqtOXPuzni3nZg7JOitJqXVyR/Qpb+rMdKfrrT9Pdoxnrjzy5p3pIAcoAEALq1h+bIFsRmvF7MWzDQIBWyIqc/NMfNvVQNX3PoOOmhMftBjdzrUv7GLLEmAkPjFT3O9lvjVED7Xr26tyP2Dsnj8ebT6lVvV8zVQy9vDXSMDpQXJACQFT1QXG4f+V4+/NH+HqVO0dJwIC1B7d/9gz+2gKDDPrfxw0hsIC1brfocuioU35YKKJN0fq9/tyN9/tn4sUlzboMjoVtDAgBZ0SbTKj1lBj7SmJk8z5JHBbC6NrOdtv73pKCwbJUy3r4EHTI01txH+7cPoaAIb+ix96tCVQGGazVDP+1Pwempx9yew8c19SCALCABgKxYbm/9B18BsLKajRRkGp1H8jMNAgMoIOKXrYX2ntaIEdodEYqEfkJrBv0FRGqYzc6rqpp/QAUgktqVhQdScPy1A7b2bBRjASArSAAgKyYUXsbEyyhgzLwsasKfU8AanmzqwdZsr6flWgqOQ2wHWUpvRpATfxqlJbunEPejYG3ueU5BZgSIeEO0u6k3BUjfowMdoYIkNND1IQGArNStpmWWZAFRoOV5VxOAhdFVtJQCVtG7qi8Z6UvBW0fErkOQk/qLqFrD2YYaNqMUIM0z+rF1gk4y1vwt8vzWf08KkD+eRT/6FnudA+gakABAVoYNYw3O5mUN0J9RUISbXGtn699KUsCsZ2q+mLIXKA0wUWNCgQaxctRGbTWsJXoKnIS01lDrLy9M5WPd1qV+AgXw/ZAAQNaEnCe0NPseBUbeMRXhBwmggJiof2VvKptxGswSrmhahXM7rBUOEsjaITvSUq0AXKKnmGBa6IYeHLktLSeAAhJm/5jDVrvQ7SABgKxp8JeRQ8JPaB/j3zm/YwGsnoYfOWRI5Hr/b1ABCIurTb/AuxqYradPVJogJ3Gyrh5ngb8+5E9wsbzqsZMYCQB0O0gAIGfVHL5AuwKepPxMC/S31X2CQ5ETqYBcjizS8PwpBY6XGrGoauRoZqxuhQbmjzno5IlpGRlvBQF0Q0gAIGfNH/p7rPOFIvwYdS4J8EjkKSa+MPMeLaICmr8jtZCVjzUABBpg9LEtEidS0MdWPuQ/Wg5qpgCx8GLHymIC6IaQAEDO6uvZyywIz/WqQ6M1wk0kv2Kbu6SQvUtM5Cj/d/m/kwooprX5MPHD2uGwhAKiwX+FBrAXDx5MqwlyJlXOQ/okBpg8sauVrLdpZc0CAuiGymnqCxTQFwHbn68/enJj5m7tSj1GiHfXoNdHW/V19G3JJXOr9usuNVbeNmwuO+jH0RepiGraQi+uqsm8oBcDWQhGg/9bUTf0z0KNayg3z5xatWT4xa3/sETbUzDeFWPGP3EltxFAN4QEADrtkCHhF2YskMZVn7s/IWt30oA3yJJ8Y8ETXqX9ufM0QZidqQ6/VD+IW6nI/PUGps1K3+w6PELDdb7XT89offn+A3ZhlJc7IcVyV1hojB4/+V9Nke2zfdI1cwigm0ICAHkxbJP2qYFP+B/+2vdhS3Vf/X5VG7VqwC160P+mEbtEZk2Zk56orcwTNEEJU56wyPSerZF7CTrl+XNrl//04taYllBu1Kv5TNLm6+t946QYY4YGdFtIACDvRgxhf0xAR8YFFEUmHL7SyaQcYjNG6/ad3hlOA8urHIqcVYoJT1cUyaSmpUMV6+sTe5YmAvlYS3+5tXzWzAtq5hNAN4ZBgNDt1Q/mJR5XXKChexx1KnHhViZ50GE57OAdGMElTx6LrdO8qm/1Ndq9dKYmaJ3YJ0KrVEJzNUH77VCv6lEC6OaQAACo+iG82qXQ1cL0RxZq5BynN2rL9B1me0MlR/4wYkjFOwR5NXcMZzbrV3s3MR+lr9Hj+qWcFgnyp2Pq2e5ea+zhT59X82QsxpYAujl0AQB8wU8C9NPtU+Zk3heSEXp5mH5soR+V33GTNDN9rNH/Oc2lp2UqncdGDkKfclAmaBKgnx776SXJD4gzv9awPkz8GQLyHWMD2F+tkj/VhG4WsfwrnKp+eHqMmwgA2iEBAPiGg4eEnn14Ls1OU3ojsmbDkPEGa5/x1l/7IaElxjivuuy9ayny0RfJAxTA0+dG391xvFxa25S8m0U2YPG20S9vJ0a+kqiZ1Y6W+7WZ/5YTsYufOKN2GQHA1yABAPiGL+bt+2MB3hGR/zw8N/SShL8+ODAT0S6CeZSorw8VdAEjWGPummrAQv9jaEzmVvamSKLp/7o09brV6/GZMc7HctUAZQkJAMD3+Eoy0GVmNXQ3GuT98QCF2DgIoKxgECAAAEA3hAQAAACgG0ICAAAA0A1hDADkjYiYx/5NNS7TOl4k87WpWcaGW7U3fVVtC60aNgwDswAAig0JAHTajBkSWtmLNp36SnqwZ2gHh8224n59hz2P3AUsMn91Db3x8Kvy8noeLRwypH0kNwAAFAESAOiUR2a39l9p3CMkI/sS8Q6GqYfQt+1+K1sK0/760Spu5p2PWR589BW544AdeDkBAEDBYQwAdNjUV1JbpbjiJr14Pq9ZNW/tu7UJ1Wh6MEQPvZOSnnvblNnpwQQAAAWHBAA6ZPK/k78Qy5M0oh+inf81lCuR9fSfg/QI/Pvkf7u/IAAAKCgkAJCzB2eld2HHXCNCW1En+b+DHXvN1LmZPQkAAAoGYwAgJw3zpIbb0ueJ8EDKE00CBurHXx5/SQ7Zb7fS26zl0fekItVK6331axUpajpgF26mLmrsxMTGX70eDkebbji86z2eHcdLuLYp9YMQZTYUMTUi0ocNLWW2reKZ97xM9edYDhjg2yEBgJyEEqnRxGZ/yjvZKx5OHa0XrqAS8NIiqVy6zN2LxA5Nrs78mIR6f/X7SYfaJs9OvW8MPVFNkUf2KfHNgGINElmaSAz2PN6Pxe5uRfp99fvJVKLt2DsSCw3Z56qk6oFrjintXfP2vXp170w8fBiviO8tJD+0zNoNJVH9VlSTyVbtnkoScZNT0fbuPpe0TYqmq556OMZYzhngK5gAsuQP+rOW79BguAsFQIheDYv8bsROFfOoiKbMyQwVQ2expSEaXKr0S1Xf+oNMKf2ZuDB95JC57KAfh/5JJWj0xOYt2ZrzhcxwFq4W/q4xG+1bGSf0lViuj+2GCUdVXU8laNglbSOM0AX62mxOa16b727IMGX0wGrTMtOTISN/euLcuneoSIZd0nwXizmCAmaYxtWkM5dNjfVaRQDfAxUAyJoG/+Ek/EP61ml++cCbuoZ/qWXct1lruFRA+jf5wTm0iTGZP2pgGUOWKtb6KEV/hqlCL/XyyE6c3Jj5dZjkzzXrhOcP24SLujmN/3j+cGd8vbTQ8WTNabKmdawv3/c9KvF3PPQ/euhju2LMnQl/kOZFTlX0lZvruZWKyH88w8et3kQfy0X6WP6fPopwdjds/7mexHyoKzx077+2XlIRNg88dmblEmIO6kAG6BIwCBCy4vf9k5Vd9YzaiwLCJH7g2XH6y3rCLiA/uEx5NbMtc/pyvTrWD+yUu6j+ogNdofGrP08fMm+eRKhY9PGMvbNt27Tw1dpdc9oXpfFcRfR52Vs8Gm9bkr86tKG4j+enl8S3J+tcraes+i+Cekf01aD/l3TGXrT/pa19CKCbQwIAWTEJ2lBrixtT4MeM9E9G0/2pgKa9Rf2MlsiZ+AANLp0JdMZf48ASn/VuOtPpGRIdddSdpCV+cxYzjehg8P8K2dIyndW7ua1oszT2v6ipVl+X8zVF3F+IOpmISI1WQepT1owhgG4OCQBkhW3GPwnXUsD0BN/XuqYvFZCXzFxjxY7Ui5WUD0LbWJfunNYoVVQEIYprq58Olbw9Hn8VR3Pb6PFSlFZzKlzxJ2IZ0fng/yWu0XLTWftc2vozAujGkABAVrR1vI7oBwWOKx0nT4ErC1Pnuv9PP/1GPxzKH2180/ZC9uxCdwUce2diL/3zF0r+x/dsQuH4lcc3dGDRp04YPq55D/3kJzT5fH3IrwR4Vs7f+8rEDwigm0ICAN2WttD7iJXARmV74h36fmtmWyoQPzgbfwBjQFh4L2pO7UEFMjSm3RfWOYoCw4MoKQdSmbEep1K9exZ0EC10TUgAICsaKFcxSeDTipglaS0VZAS9R94eIvIjCohWTdZ3mQNYM+HbuS3JwVql2Z4ColWF/tbQ/oUaEGij6R9akR0pIOzPDjC05/BxTWvfw6IrceizRBNhzQNYKyQAkBV2xJ8G1kJBE2oNcaggK9J55A4Tpg0oIEJSq30BQx5sbFuPCsIO0z8a2OMhf5Edstv2bmsuSNk8ZNN7aJQO7LkT//wndkvPRrekAtAKymL9N+DplPr7rbcUqx9CNpAAQFZcjizSU+YiCpawyEI9MX9MAWt4STZwxPkRU4enlGVDiwCyqZhwkEG53W/vlTpmHqxPYaADNf1lm62NBJ4AxGJiWMwuGqWDHhD6A7bu+lQAhszLejysoEDJh2F2PiKALCABgKzU+0vdipmjES2wKkD77zb06oghHPBJUluX4bS/nkFgaxp8SYT7hPWDAtanLdmzvaQdOO6pkTnwvzOTqE7Y1lHwehCbgnQBOJmql/X5e5eC42of2rupiqrAE2goD0gAIGvGyAxtogdWBdCS+SdC5gkqAC3HhvTvlc1KmImI6aGt8wIEMqmxYgOfCVBFbVFNCDu5hkFpmR7jJiaZTkFhWqFvoukzTw8+gYbygAQAspauDL/KViZTQFjokV4toVkEORPKOJqc5XmqHORbKF19l75Ywex1IfyCzVSV5H4UUJqQAEDW6gdxurIqco0EcAJjpoVM7nXDhmHwUodkQnF9O2Pkd4nzqwBi+Fw94hOUZ1b4qpmx4u7ZAF0LEgDIyX5baxnT4dM5jwP1tNS7IsTmpIN3qgp6kOF/ORXeak06CrDlrSQ8ocBPytFQxUr9W4Uo/X6iz95igg6rSVc9pV0Bf9GL+Xq9VjCZ38w8vwrVM8gJEgDImRsNPaNlzAv1Yj62Vn2HRM7YNOoE1zf6LZK9o0vFyqd6MdAFU/xEKeS5SyhgS2s0mRHyE6g0BYlpWdg46GPuhIdjHA9VeuP19bqYmTWh6tT2mv578IzemcrAuuagfCEBgJz5XQGZ6vADGkC1lClvU8eCqGjgn8/GXOj/rkGDONjA9Q31A7QEa8xbHOy87LQRejdZEw08AZhUz54+ltmacARb1RBaGKfwQoJOmX5qj6awW303iT2Nhd6k3Hn6Yryotz/XZqofmBQr7PsHygMSAOgQTQJavY8i0yTi/UybLzdRjoTsnSET+WXPZmey/7uoCCyHHhWW4MrZTJ+IY56qL1ByIxH7pH4KLNnQLpOl+leemngkrSboNH88wJ6ZmoaQE/qlJm83afKW1QJYmjkv12PrfCdk6tfZvHYa+v2ho5gAOikmYnaYTT9wTfpo7YvcWUT8xVu+PiWNKaknucUa+P9tPLrvoJ0j72j5s+jrlU+ekzlDT6mXUwCY5a6KHpGxB/yQU1QgYycmfieW7gxiiqMmAA9FIpW/v+FwDnylxgNirf1TEZooQvtR8EY9c17NXVRk+8akdyrSurdDvKte3YGEQ/60S33iE+KvwinyqjU0M1VR/ezLp+Z/ECF0P2UzDxqKJ7YmkC/Qj/NnzJCalVWZzdiRTb76Mw7z0trm0FvDhpVWayXqhO5Kehl/w5n8LgfLvMJhGl/I4O/7qCXaMKAmcbQ2E/eivOK4JXt7IYJ/d+VXBPTTA1980NDYyp6RiNPfa6Hlz1xa9zkB5BkSAMirLwL86198lLwDduDlk+dmTtCqxXjtix1I+cCU1hb4OSN2jBR8VPZjJ3Fq9Pi2Uzlk7tH7sBXlgZYJM9oS/9sGtVUFWaQJ1pgZ6+VvvhX4BlzQfWEMAHR7IQnNcogu01C3lDpLg7+2vu8NU/g+KpLqXlVva0JzsV58nzqN08J8TzVFz4/VY6AZQDlBBQC6vRFD2F9A5/YpjZmPtaV7hV7emjqQHGs/7QI25q8bbe/cM4Q5Q0VyTX17//B9x0yMf+gIXaN3bIh04L3OxEuEvBuppvoW/Z0Y+AdQZlABAPjCyCHhJ5jDh7D2devVD6l9qtXa+bsXMlODIT7qkB1CdxYz+H/V7aOqZkUidKhevEaD+Vvt1Yns+OsjPEJGTqLtqq+agOAPUJZQAQD4ipFD+INH35MzEqu8ocx2bxIerIFzIIl8Y0tf/pxJ3hemN1noeUmlHj9k99plVGJuOLxq8aENcv46q5OPiqFfGObtLMkmmrVs9vWf9MduiD8z4x19zM+LQ0+PPzL6AQFA2UICAPANB/ywfaT7tGmN8pTHqfWMMb2sx1/bAc+KtFnyPq/yoiv235lamCOdWc0tUJPW9N3PHD1eZpNN9pOo7el4zte29HVDkhTPrCBJNQ04um5VrASmaAJAsJAAAHyHL8YGlE0reMKY9sezcK0/eAwBQDeAMQAAAADdEBIAAACAbggJAAAAQDeEBAAAAKAbwiBAyIsnG6VHnNM/cC1t7pAZLCKbCPGGzGSJ5RO9/AmLnWUMvVclkY+G7+iPnMdIcwDfAZe39k+4vAOTDGPioSI0iEgq/+8nOMksL+ib6SXHMzNsJS145vTKjwigE5AAQKc0ioQXz83s0Grdn5MxBzPRDy1JdM0+k0Ky5tMXl03SCr3XRulHpzWah2eI/HsYs0sA3dSB46Uquaxtj3SGR2rw/5V+qc8X75pvkKgmBcP1Z4Zb4x3HaWfy3n+N35moqnwTOwNCR6ELADpsWqP0+bjRvVBPTLcLywXa6t/GP1F99y38k5hsY4XP8khuXzXXPefxxrb1CKAb2vfitvXiTW0xz/AETZrH6pf6ZHnTviLe0WTk79Fk23F+9YAAOgAJAHTII7Nb+1tyz9Ky5ImyZu38XG2hycDpCYmc/nBjYiMC6Eb8oO0yn64dZGM0Mf4B5U6rt7KZFtrOSmdk7NDYshoCyBESAMiZ3/JPm8hVVgO4tv57UMf4nQR1Wu481bXOpZNflH4E0A3sfP3ndamM8xcRe6omz3XUUaLvIaF+lvjCUKTmvEMbxCGAHGAMAOTE7/Nf1Jg5T09ch1GeCNNhJpJpmTFDTh42jJNUIhrmSSScpvVtxt2I2PbTO9reyjKOiWvlo8nY0OLaSlo8bJC/jn7XEpshoVULqSZNFO33Ea2IxTAWo1CqWyqPILK/pzyyYs9uej/+ol78FwFkCQkA5OTjV9w9mek4yvPK95oEHLmy2p2qFx+nIvMDf0XK3cUm0j/RO7a1Pt5BGvbXJ5be/vfFSqtlWSrkvrOyzc6bPNd9IZpxnjtgl/Y9BErW6PHNfSgU3sawDPp0QXJdEv/xcNUnA2Tpsbe3tRnhdyTkvLX+xpH3Y8OQEARh30uTAzPinandXxHKM60onDR8XOKNp86u/JgAsoAEALL26CypS4p7ipb9KyjP/N+pgfakR2bLaz/fiZdSkTz8UnwDL5E50wodqBVWfwfAL07UX814pIaFBmr3xUBi3k+bX79LOuk5U+akLxn548hsKjHH/X1VLy8dOoasM0Jrxj+wwn3/b7DmmsfF/mwMpsUs9sNPFsRfHntL6p+3HlfxFkFeZWzmRH22N6RA8I+t215Z+CsBZAFjACBrqYj3c23+/ogCoqFopxRnDqAimNYoVQ+8khieiYQe0D7VsXpfNqH/Bv/v5Q/GWl9Pvpow0H2T56aPbXhpTaWg2E65WirHTGw70EtVNIjlczVh2V3v44DvmKkR0u9trC3TvVn4LFvhPTTmjvip+18veU/2uqu9r45vQGx2ouD0ZCN7aRUAg2ohK0gAICsNDeKwZ/fRQLcxBUZ6spXdZyz4vqmEwdCy7C8d69yiWcgu1LHyrP9e2owsjwuH3WP+9Yb0oiIaPU2q4nXxURr479DHM5yJe/KagZdrJX5SI7Spfr58QHXinuMnpgc3YIBZp5mE7KvP7iYUIK1aDZSMtzkBZAEJAGRn0+QGlsmfrhRkIHA0zdi8uSkVUIn0201uzOxh2PrrGQykTpPewnJuKpn5DRXJ6PFSRcvjZ2pd/wK92pc6ztGMYaRrvUtntLTk4bnp3rS6sp12HQVaHWKR9a0hzKiBrCABgKwYNj21edGTgtfHpYpsF0TptBkztNpg5a8a/DejfBHqYZjOmtKYzN/vzIUT/5kG/zHagu/0AjF+NcBffc4j5+I/oDugw4ZObF8ds59k163UYf7vZ0MDhsYKX0WDrgcJAGTHs9qq4AK0LLjOSKrjc6NztKo6M0ZPzHtSnumJeCOy5jQqsLF3t/TTfuZr9Q7kbXW4NUkAH5Sujh9B0CGRFa11wlSQ49poot6TViEBgLVCAgBZMRQKSQFmjWhL3Bh2CnJc/mt2YlMN/n5QC+bvMe03dW5qJBWIP7efMs6ZHVxZ7nutee3NH4+7LbUtQc68NHP7wj0AJQQJAGTHobQhSVPAtHRurXgF2SUwbfgXGtjWp4Do795ALA+b4QfmAlj6QXpL/ZvDKCB+VcOye3BMJPDzRrzGumTLZy0CL1Pdpt0ybVQAVrh1eaXrEcBaIAGArIjIKi1hrqKAiZVVFDKB/52J/kwDyzvoxXUoONrfyz9K9E4UZrMWI3trkA5wAKXUCPNOH01sDfI5a7e8tbZZTCEWVuIEiwS+m97MmL9apF2uFwNOajRpMrJkn0SfgiQb0LUhAYCsmEy4iYWWUdAMNzkpbzkFbJ3PqUaLsv4I+UBb50LSJ+WG1qWADdUqgyV/N0YKODjzD6LsBD64cV6M01oL+kQvBhycZbkxoQItPMXv6j+BJrf+EtX66ZNYjAtSRYOuDQkAZGXkrrxQKwDzKcAWjLZeM/rvB+vvFF1MAfNsZkPtkg2s/P8l/Rv9DXFnpuJlZesP4/30j/kLwAQ9X3+Aa6kgWziLY2Zpr/nnFBy/V/59L0ILqQCMoaeZ+BMKjuh76C0KO/8hgCwgAYDsWX5M/11CAWGiRWTNtCHMGYKcpF2vTlt/BRhlLj30QOjoDpC5/aVU5XQ9Rb1CAdHjrUUj5r9/0hoN7Jj+qqfOrnmT2M6k4KzUitOzhXo80PUhAYCsuSb0sn56mQIjb4aM8xxBziRiokLlNfe7vd9c7BQKiDb/F4rYRwu5E6JY5++aeAQytkGrCx96Lk/Bzo6QLSQAkLX6IbxaOxlv0jNnMFv2irlmxBBeQZAzxxNXuxrKrnJiMxl/h8g5FAAN/v8it7aRCsi6lX5FYzwFwDPm2r1t9TwCyBISAMjJyB1DLwnzX7S5kaK84bT+zkvd6lCA1YXyZj3zubZomyh4Kw2HV1KBzIz1WqWJ4cla3VhElK9NqNnTVviT4tZcoVWGYJLZ76B/z/UydLU+lEnaYs/LtFr/97DQ31tS0SkY/Ae5QAIAOWFm62VCt7LYv+m1Vuo0v8wrk8IU+mv9IA58nYHyVbVag+RyDZHBBgCmldYNfpbGV63jVjYaNhdp0F5InUwC1gRdOytNfIQG48Cnm36bmbGapXrqHacv1SP6mDqZSHOr1ffPKrd69NwYxwkgB0gAIGf1u3FThuViPYFdpQmBP6q5QyflNS1We51rvHO19I+TVydMGKPPn9BrFPBaDRpAP3Aq6CMqoEkxTsejVfdp9nmq/v3X9UsdWuRGb6vPkZ0U9viE58+tKtDUv2/3zHnVr1gTPpPZ3KJXc6+otK8ryIv182VOyDkXwR86AgkAdEj9kMqPvcrI9Ub4NH/wHuVIWz5vGpILo07kOv93EXSamNDTGheCC2ziV3z49f4bVX5GBfbyqZxYmq56lIWP08Rzqt6PnFrOWh35VIP/tZ4Tju1qq9/0J8xTkc08J/p+ZcS9WGs2+h6yL1H7NNjsiMhzbO3pxlTd8NTZeP9Ax2BtaugUPRGZqbOSG3E49Cu9PFbPqt+7SIwecB/oP9eRE344E6FPilX2nzI7PViYJurFwRQgbaYtDRkaddCO4ccpYP4SvUsnJm/UkvBxFASm14TtqNtG1bxGRbRrTHpXOW07iSG/IrC7Bveq7/nx5RrqJwrz/bZn27szT+iXh26r/IrFxMysaentpGkPYjNSE4Jf6fvo2x6TP0D2CWPktniK5v+Malagzx86AwkA5E3DPImEXNqc05nt9cja8avf05bpbEORV5KV9GEp9PWXYwLgO+V26R3nxFwNIBtTXmmgYfrThKMqL6YSsvdfZQPDib0s2230Hm7y5dc1OXjNejIr4dW88u9YIZYUzq/h41q3IddUf3nddcwKv2JAAHmEBAC6pXJNAHxj7mg7Wv/uOL3Yh/KEmWdWcnLktaN6FWXgHADkH8YAAJQZJ1l1v3bH3KZhezXlBb9A4p2M4A9QXpAAAJSZm4+nNscxE7TCcaXW+Dq+NgCzP9p+hrGhC8YfXfM6AUBZKcg+5QBQQMxy65o58389/q7kbNfaP5Pw9v6CwVndXLucLdEyJvtwprbqgon1XNB5/wBQGEgAAMrYzUdGnzjxDnkrYxK/Jsv76Jc210RgI/nf974/mrxJg/9H+v05Rsw/xh9dhX0ZAMoYEgCAMnfj0fxJLCbXLv1BcjJZ2V5YBmnv3wAW+m9FQNguIWv8LZ/fIbfylfaFhQCgrCEBAOgGvpgvvvCLjylH3SG1dYacNFH7DoLuNvT5hCHYhhmgO0ECANAN3Xk0txAAdGuYBQAAANANIQEAAADohpAAAAAAdEMYAwB599Dc5EDPcwYKe1v615l4gWNk3kE7Yi1zyJ+dr5e66pb47obs/tZf0pl5wJffY8uvC8ksY3l6ry2r3phUzx3aQrhY9om1rS8h3ujL667b+tbMWOltZARdG/YCgE5rmCc1kUR6E0t8tF49kKR9I5pvqS7xpyw81Yi9M1UTfqd+EBfthFbOewGUs6ExCUUrkhumxTtYj6fTSGTDtd1GE9AXLPM14XDl9OmnU5xLYCvgb/rpxa3ripFB5NFIfefsR8IDv/p99tdpYLOQSaZbh++qS1S+O+VCWl2KjwW6DiQA0GH+7n8VKXcX6/FvNdTVa4urZza30xNys5637jdMdyaj4VeKsTsgEoCuZ/h46UEr2g4S5lNFZDvKTVqThUdM2F7eK1H3yqRY8Xek9B14pfSJe4mh4tnj9GDZU78UXuuNmFOaDzyiSc1tlIq/gMoAdBTGAECHzJghNeG2zGGeZ28UskdlG/x9+rN1VugoV+gfobbMEVNezf620D0dcHlrf/o8+QcN/pdq8N+WchfRwHmgdc24pnBqr0MbxKEiG6qPqS0d/6MG/xv0TbE3ZRP8fSIVWkk72AjfYEJVx/i/hwA6AAkA5KxBT56rq9IjtAV9gTZHtqaOjSVx9KT3AzYcM647elqjVBHAtzg0JpG0x0db8f6owX996njlMqTVpz2FMlcu/zC5KxXRzy5Jbelk6BoWOVXfBzkHcPHP3SID9Zm4UH/PxUO1kkAAOUICADmr2Nj7jTV8u17clDrXjcT+Cd2SxKxkfqWX0SUF/6MpnKy3ls7Ti50Ocu2Bk3hb49nHfnZFSz8qgn2vlt4uZS7Q+/Jr/ehs4ttTf8dRTqbtCn98BAHkAAcM5OSBRtnSI3ecnkkrKU/0BFapfeXXPDiXZuvVdwgCcUqDVLauahkQcsIbWab+2qL+7/ufJbSc2fsswvaj60fVrCiVwWXDxyU2sp4dp0dJ3o63NaTGy/DlGjRPnhnjVVRAbrL1jyR8GOWRWDoyFG57Uh9Pgz4elwCygAQAstbYKOFFlDlGhDagvJPejngnaFfAWSOGYCOafNL+7sg6q5O7tTXHh5tQaGtPZJAGoI2YzH83A2K2S4TMghSZd8bemXx+7N0tj9/6+9plVGTWen6gDOB487vSaS/HiQ/Vi1OpQPa9NDnQte7JFACtpJ1oTdubevFNAsgCugAga0u8zHZ60hxGARGy+4txhxDkzdi/xTfo0ZK4whqaqK36s/T1O0i/PFCf7chXf07ag6zsoVHxGP18GWWcG8femdh7tCZ9VCR+61/v2P4UnA3F0L5DJ0qUCiRj3WP0ua6jILDZ1gnxgQSQJSQAkBXtnzf6Xz3T1+cn59kA7esd0VACI7S7utHTpOro2xM/EZfuN8Rj9RXcWLKs+OnP9bdaOLBC99Hr8fNG353YiIrAtXYfJtqEghMipm3Cy5sHUAEMH9e6jf694RQUkWp9f+7dnjgBZAEJAGRl6mur6oTNj/wpfBSciHZm/qhiIK1L0Cm8InGgw3KHBvPdv9naz56sq63KcyRjTz9+YmGnmvkDQvXktJ0+kmCPBZHNXTf0IyoAccWf5x9ocGayP+KM3ZoAsoAEALKSkar19aRcgFHTPMBKZj2CDjvurrYdhdgfNd/5ao1IxK8geNYE0m/9Xfa5TMvkoiX6DicvWWLqzSQ9qCB4CxYK9G9pwreua7z+sZjg3A5rhYMEshJKm96sJ0sKmAauXtpX3YugQ46cuCBqXbpQA/c2lCcaVML6uow9bmJ8FyqQSLKtkjnfI/+/hZCjvVt9/LUGKEDt4wyY+olf5QqSPh4mZ725RAUb1wBdFxIAyIoJe9Vala2mgPn91NpKwuyUDqqQdUcScwAD56SHJbnwlIbVgSeBhWbI9qXoykCTjciKVu1CoyC7z/7LsNQ4tCrYRAPKAhIAyIqI488L71I7qn0fzxFL/sypgGnVRKQ9rwne6PFNPYT5SAlqeq/wj9vi4VFUAKlw+/MW+OvTzuGPaNNega+nz5YL83gAsoQEALLiuNKsESD4kyRL0lo3SQGrTkea/U2JKGDah91mhdqoEJyKYZqibUZBEdKuGR48enzwyzZ7mWp9zoJfD0KPgbT1pCXo7YLTbTXNenAXZNMeK9y6vNItm2QdgoMEALLiSXipni6XUuB4qcMm8L8TTdJSLsDjYeHF7IQWUyEw76ERLbABlO3L6FrZyom2BTkVtN3MGLeyJx/ogwo0GdQEbSkbJ/DjQB9PUsh+yv6uhIHipBadPton0acwSSd0aUgAICs962iFIfmMAqYnyBWeEwn8hDxsmJ6QReZrUFtNwfE0A/io5yoKPAE4/qZlNdrdsKmGtKBb531sOlSQaZrCMpcCPuY0CfyEXO0CKAAx/I4wNVGwVmhCszgWQ3cDrB0SAMjK0K2ozWN6MdCAKbxMf/+MkdsXZm12NnaqvgEWUFCYFrGVpzTZCH5t9qq+Nfr8FWDUPPfR560gszQSVTVPa1LzHgVEk02/W2vGMxdEP6ACiJDzjF8RouBoziTznKj9DwFkAQkAZMXfHCZqw5O0xfQyBYXlXYdD06hADh5S8aYQP0BBEW7s2RYp2DrzhSFVHtmCbN388qncpH/rJj0wMhQAfe3fMcKTqUCmnxN9n8k+QsFZSYafm35K9acEkAUkAJC1n+/E2l8q91NAtEV2/0E78vtUQGF279FPeW8Bass1pe+uW7T1X5CBX2WrR+1TGqpnUgCY7d+b+la9TgXkmPC9+mk5BUCT8/keeQVLaKDrQwIAOenZHH6AKYAkwNCzDof/SQV24JDKj/XTn/X0md9ALXTLRhJ6nqBTZp7ArQ7RmSx5L2s/6aUTd84dE0x14bv4VQAS+RMFwLJ3xcxz67CdNmQNCQDkxG/RipU/idBL2mLPR9+2p9HybbJy4oghvIKKoFdruEE//Vk63zITfU7aNFjdosnMxUOGFDa4lKvdM9VvaHSLaeDs9HgAf9qf/vMEc+jEmbF+RanOhN2aBiG5RY+VvExz9B+TEblA0rVPEEAOkABAzt7YqeJ9E2I/CXhWzz6dmNbEaQ26sxzHjB05JDKPisSfEeByaIKekM/Wk+l/9D51MHBrFwnJtZHqij8XK5kpR/6I9lXr1jzIDp+kx9u/OzE1sMWynWLJ/vHpc6PvUpFMj3GT44TGaRJwWx6SgBWW5Z6Vbs3V/lRDAsgBEgDIWUw7T0fuEH5ajF+apQf1hPw55W61Npgna8Acm3o/9KI/yJCKqH4Ir9ZKwN16L040TPfltGiLJkF6In9KyJ6UroqM+/mgQqyX0L34pfqnz6l53AqNJZZb9TnP6TnWxK6RxJwrIT65FMrkT51d+bEN8zgN3pfpsZPzNET2K/5MmsTwOZGod+bcWPCLJkH5YQLohGmN0seTzP4avY/Rw2nI2uehc1yD/ktizH1Vknp8vyGlN2L54UbZKCMZf9/24XqS3V0rHf5+8f/zXtGgskJbk7MNyZMUMjNHbh95jYrk+InS37PJidqq3I8CponOqNuOrrmLimRorLkPR0I/YZF9tFtgmL4QP6Rvbcz4SZx9ncU8Ya33dPO6tbML3ee/NkNjUmNC8WFsaLQeZ3tnt46DrBbhBzRpfjBRWTXz5VM5QQAdgAQAOk1EzNTXqI5sZjO9PFz78zUhMDtp8PxiXrrEtXd8rrbcZgmbxzgVmjdyN1qhJ7CSXqzk0VlSlwhRtWPdQdaIv/rdlv7X2V87wJOPQhXenGZTGe+1mOIHHMApKqLulAB86WdXSLWXbqtxMtLXDcsu2sLfTI+xSmazzPpT/Mh9y4tQU8qsbnv51AElHSSH3rSsxqys2VaT45/ra7i/HmTbf/X77SsIiryil57jUPhet3b1gpkn9MMME+gUJAAAZaA7JgDlzN+e+NOK5IaV1qtzQzYx46w6LO4DeYdtVwEASsykGPuDaz8kgABhECAAAEA3hAQAAACgG0ICAAAA0A0hAQAAAOiGkAAAAAB0Q0gAAAAAuiEkAAAAAN0QEgAAAIBuCAkAAABAN4SVAAG+Q2OjhBdGkgMoEx5kxBv01e8ZSwss07wQRz4cMQQ7sRXLAbHW/qkID2GRHxJTxZdftx59FmYzzwsl//PU2b1XEwD8DyQAAN8wY4ZEV9V6+y2S9GgnHdpOxFZpyI9+9Wc0+KeFKO6Ku2RKY/qOTGX4nvpBjM1ZCmBoTEKhysQQL2NPTjHvpK9PLyKOiPD/VTQNuS7buNjI8p9e2jLZmOStT57V9xMCgP9CAtDNzBAJtcylSMilUKpiTRdQRYpszw0os9uA7r2tqN/i/yiT2abJScdY+MD2vbJEvviufPPHo/rdOv3cX39kx3DcPf6hOZlT+/YPvdDdn8egHNogzvIPmjdxpO0P1qWT2H952l8X/uLV+fprpK9LjX7qp4nBIE+qRg2/pOWSKqfm3ofOpFZmFuqGRJ+MMRMoFOq1vCLS1ve/5/9mS95GiygRi7FL0G1gN8BuYsar0nOVm9lcW67bsqWtic26TF57q5aJk5boE8P0tif8tgmF5o3cnldRNzJjntQ0t6UP8pjP16tbUAfeG3qDZmG+ykmGbh+xO31ayCBT7rsB+rvjNYVTe2nt5QL9+7vplxzKGSf19vdq1Luuxw9r3p5Uzx51E6M1uZV5qU3ItYON2M2s42zO1vb87w8YaiJLC/WAfT0cceYvr6j4WJ+fNEFZQwWgzDVoYAsnvOGrvMxBeubeSb/k95WG9USoV9fEuC+jlBVytVW1QNzM3Icak/emKiue7Q5lbX2OIqsS9mhiPlWvbkQdJH5FQORUL+INmDTfOUW/hC6BPGhv+f+ndYQhvkCP2K2pw4OXRas2/HuN+pt//m7iMP3CEuoGRt+V3IxeT4zRi7vp499ae0p6sF1TOfkvu+aTfqXJTdv567jJGSfe0XbrDUdVfdpdqyXdARKAMtbwklRGku7ZGup/q2/hDYUptJZmbYj8wVREm3hidorE3QenvCqXlHs1INqa3MMzofP1LNeHOq+HsD00EpcFevkSgk777N2m9UNO9FIW2VQ6OXNJbx/R98DuZOwVevUwKmOxmJglA5J7kydnaeDfRR99zbd0ZX1Tb/3YQ7tPtk0TDztuYvJCvf4MQVnCNMAy5PfzPTRXBoYj7hPWynn6nt9Yckv2/J/dVBOHM7QaMGPqrNRWfv84laEHX5cNPSf0kJbO8xH822mA6aHP3cVTZ2d2I+iUA2NSFTbRaXpQD5Q8na/E7z4Q+s2wi+Nn+EGSyoz//h99n/RZ+oPkX7Rbb5p+Zbi0B/+cfoc/vmUPK3L/2Nvjv9YqTISg7CABKENTXqEtrbg36Zt4V+q8weLwY4skc8Ljb0lvKiP+aH/juqfr85TTyTFbwnzRI7OlP0GHtVXED9PXZzAFgNke9WIovgOVkZgG6mPvSu5lUonrNPk/V5+7SuqcPpbphp7Nyf83erxUEZQVJABlpj3gSGaMvvF/Qh0aKPW/tMW0kSU+N5HMnDv538nNqUw01Wa2Eis/paCwbJUy3r4EHTI01tyHrHcIBUV4Q4+9X/kDDKkMHH+T1HzamhihXSWXWku/ovzpw0ZOpVByZ7+6QFA2kACUkZiISVN6uEae3+jVKOURk/TVfsHjtdl079TG9M5UBhzh/bRvtMOD/tZGT5brava097RGtJw6IhSVnZmcLSkwUsNsdl5V1fwD6uJGT/ukyq1MXqnJ+k16zPnvz/wmNULbkpHRY/5B6xCUDSQAZWTbN6iPsDlGI09fCkalJgBDrNB9k+ekT5n8ovSjLuqhF5bXWr97g4Ip/39BcwzZXJOywJKMcuW3NPX/vWwex2Z8698h3tTzzADqov7wqFQcdUfrdrS8R4M+ab/TB9SPg5nebcjyIaFU2xCCsoEEoIxwxtW+UtmLgl3fwf/dm2oicCFFMuOmvpLaat68rldC5dqaPlqiX48Cfg9oFOvniMU4gBzVX0NREWcTPdhqKVjrsQ2tT13QH+6VuuSnyd+EyDygR9rP9UsBV5ok4gqdRlA2kACUEWvlYCoUkR5abjxcPHPlu23unv4Kg9SFeCmnB61ZKS5Q2sKsMiaU1+6Y7qCtua0HB1udWUMkTI6t7mqzAcZOTGycSiVP1OfIn2o6kAqEyex+8kTpSVAWkACUEw5+Fbiv/TmisJbQ9xcjt6xqzJzY0Cg9CKCLkQytNzPw1nP+jL0tMdRaulkvxvRjPSogEapsk/geBGUBCUAZCXJA2/cS2kz/+vlhcWNT3pTNCKALYUeaK3tThkrc0BkSOvaOthHWkSv0Tbe/fhRlbQ72zHYEZQEJQJmYMjvtz5XOy7S/DjBaCVhHP062ycy/pjS6B/tLEFMJExZXM6YkBYzZeh5R2aypzkwJEzKBL3EcJ6vdzRL460Pta2I7yx47iVNUwsbentp6iw+TdzObSZpwF3UgniZMQQ0yhgJDAgB5pd0CW4rIHU48c8yUV2VjKlFuZeQTI7yMgia8nD1pooBFyE9mgg+YWgL+3LrBLw09M1a3QsT4a/UHvWFPE7Et2aWuj5wh0TF3JX5KxrtRE6Lf6AuAFfkgb5AAlIkIhZdSyZDemghcSp57zZQ56Z00ISi542z+IFplRRZoxhJo65yZF1I4vJACdu0oXqXB2d9/INhqA9NSGzYFOdaM2Pn6aSUFSLvNFjpiF1IJGn1fc5/IgsRJYul6K7QXlQghKulqCWQPCUCZaFtIy6m0RDXw7yfM102Z4xVudkKWYlqbJzazWCjIYLZaT9xzDh5Mq6kAtDz8jka0QKsNmtgtrfUii6kAOEwz9A8uoqAwe9qi/oBW1iygEnP8PasHmmTkAhY+T99HP6KSIgsJygISgDJRX99+MnuZSktU79POGmvvmjonc+6TjdKjlKoBLjuPaVn1NQqK0NthsQ8VajvVqtoKfz74WxScJfpAnux5JDVTAeyRqPmPHj+PUlBE3hPH3D/9CopTifA33Rl9d2IPNxO5W8SO0eOzLqCFfTqMrZlHUBaQAJQTw/+k0uNHv1pLcmGreDdOm53ZoVR2FqwfwqsdkVv0LgYzqI158oidKgp2srymnpsM098pIEzyZohtQ3v1pABiMbYZpus0Un9AwZhV8Unlo6Ww372/8uHYu1v69WpO/t5kaLJ+YVe9UxVUcnh1VV10DkFZQAJQTlie1H8+pdIUEbK/sYZuW8SZ3zYs6vQuZXlx0E7RxzWw3a4n27xOA9O+5SeqMqE7qMBMdfQBZppFeaaPJ6UJzR03j6op6FiT58+tXa5dG5fqxbx2o+jj+UDj/hWP3VD80f/a6neOvTu9jXXN5foevkyT5ZIdZa+liFs10UwQlAUkAGUkmoks0TfoP6h0OeKvvy98eWhZ5pqHX5INqATYSPgqQ+Yeyhem+WGyp+23Gwc++v+bbq7Xaoax52v3w8eUR8Jyc1NN5TQqgihXTdY2+iVMeRvfsJzYO/3pc2vnUwno3ZY4yLj2H/ok+5t4le6W20KLw665i6BsIAEoIwfsws2OyUzSiy9QKfM3K7J8RCacufeh2ZmfTH9dqqmIfrkdL/bYu0JPcLdr9O5w60YDVJv+jqfF8HG/+HFFkH3x32u9hdUzNNE6Sy++R50X18B0iwl54ybVc1HWM3jkHF4Zd6tv1+f2Yn2OP6cO4jWj19/Q4+8EL137LyqiBm31H3Nf67pjJyYuFtvezbEV5XsHv3xiThgjt37WK/IhQdnA3s5lxu9f/1i8X2op8So90fnLhJb0a6zl6vfZOtfUVJoHh2/Dn1ERNbwlvUNJ90R93urb1zPIaWElXsFi/2WcyMUH7cjvU5GN1uOA32z7qVgT0/u2nQaYnPcj0OdgmT4HfwsZe3WhS//f5tCYRFaG4kdqNeJoat/JMZeA2T7O43lNZmLPnF81m4pszB1tQzRRPEUT4V/5m+xQSfMTP/t3a/lPtx9bVZAZIFAYSADK0IwZEl1VkxkrxGfoyaX0dzpjWm2EHiJPLjt4l4qil2WnzMkMFZIRenGYfmxB/jbI3y6tCczH2jJ9jtg83LPFeWrYMA58lbxcHDuxdbB2b/xOW5n+48lu0xjmtCH7nB4/452aysfbuxVKyM8ubtnaJfoVk/mpJgPb6PP/fXtQrNDH85wmdQ/bMD0+88ziJjL+KP9eLfFj9XgZo/dpGyp9aQ0Sj4pxzpkwquIdgrKCBKBM+UvxhlozvyTDf9UkYEPqCpj/pQfkDT1bQs9oIHWpSPwR2ZNmUnWo1h3MIlux0WqAlU2++jOWeJnDNM8Kv+04oXkjtqelXKDR8bk6+natbDipnay1++jzu6d+aQf63+qG5jy0VIP+q4btw3r15fFH17xOJcqvBqyoiG9jrPzIivxIX6OtvvYDIq0k/nQ18x827jwt+X84M1a8Y8p3/MTW/q7nnKjVuTF6tQ91CfYe4si1E46KvEJQdpAAlDF/d74Qe3uStX/Rq4Op9GWYeJ6Waa/KrOc8WD+g+KONNZGKRBNU5znJr+1tkJFoG1XQ6vpB3CXW+fe3u120YXPPSDi6oaRtb2vk68eDoSVsZYFWC5pW1EYXF6u/P1f+CPrl81fVUkX0a1vUVlibSmWqVmrQL8R+Amvlb98rHv1F2B6op92S3zVT34etQvZ6k+abbz2uaglBWUIC0A08Oks2TDmZs/Tl/r2/sAh1AXo/p0arMscdsFX1Z6UwTxugI0ZPkypuShykwf/PlG0XTFH5K2TaOdq1dfF6G1c9FhtW3KoJBAsJQDfht2SdROb3evEsDadd4ETUfnA2emQuXKfKeW7YoNLqhwZYm+NvTw70yDtK2JzSkUGYhcbCq7Vj6AHX43F3HBMt+kBWCB4SgG5mcmNmDxJ7kvaPHqjv+FI/KWnLn5doa+QuckJXjdyeS3bXNoAvxRok8kk8vg975kStZPkDSUtwRb//4Qf8m8itnDhhDBdk7wooPqwD0M24H4ZerrByPhkZL0Sl/kZnfwCjiJxINnPD1FmprQighI0eL+FPW5P1ZM2VGvz3oVIP/swek8zVKsWJLrXdgeDfvaAC0I21VwNI7tR29qaU05z34tBKwEK9v6esu25k+m4lMEAQ4Ev+wj7Tm1ObhB17kbV0GHUBzNxMIvdW1WYuuKa+R8FXrYTiQwLQzT04N72LvzgKC+2uwbWGSh3zcha5JMThyb/YkRaX6tQ76D7WzO1P7sQsF4nQXlTiyTS3z2KlZSLOdROOrhhH0G0hAejm/DnvU+emtALAvxExY/Qr/vr8pX1cMLWylemGzTUH/Tj8IgEUyXF/l142kThaE9MjZM1yvqXerZrU9/z0ENN4z616Skv+ed0EC7oWJADQzl8zIGzT+wrRX/RktjmVPlcP39eZ+IJMlfN0V5mPD+WjfWEf4Yv1ODxAu9H6U+lLaoJ/h0PeDeseVfteDNWzbg8JAPyXtgzMlMb0VnpUnNs+S4DaN+kp8WOEl+v9bAhZ76oRO1cuIIAA+RWzEyYtr7bxmn3F0uka+Ido0hyiEqZvYFfv44eaLF9caaLTrh2F2TSwBhIA+B9PajWgldJ/0BPc4VoN2IxK/ASnMno/H9L2zK09fxx6dhhj8RIIxvH/iA9w4/a3Wuk/jbrCcr7MCRI7k0zorPFHRt7ColrwVUgA4Fv5GwqtrHN3I49OIZZfUBegB/PH+umKDIfvqR+C6UyQX8dNjO9ihc7TIsDeWguoohKn74cllu214pl/Yhc/+DZIAOB7PdCY2tKxdJEYPljLnSW+bWn7GuafMdNEIe/2kUOiHxB8zdG3r+4dNpHBIrSJvvn7fvl1MXaesWaet1100YQhGBj2Vf7WyuaN+L6epbO1Bb07dQVC/2GHznWqK58otd0coXQgAYC18ncWjCQyv9aWz6VC0gV2MeMmPbCfYyd03kHb0zvdfaqgvxHQpxu1bilkDiPh3fRLA/TDH99Rqc9V+2qQQjapyVNcn7cFHsndkdqq+xA4tOTfIDVea2KsPm8n6LG/MXUBhuhZ65hLVlZVPD2pnj0C+A5IACBr02ald/EcPkM7EQ/oEmubE2n/J18QqQ79/eeDuKj7wBeDvyTt0kRisOfRydrz+5tcbqtJ03xNm8ZVUvSRa47hbrdIjP/cfdqS2FGI/6TH+n7UFfivGcut2uqfiOQNsoEEAHLy6CvSN+llLtNDx58l0BX2NE8ah+5iz147YkjFe92lGjB6vPZRO/Fh2hy8kCzvqO/0nOen+yvFibU3UMRMGP+76KLuMoBMn7seHEoepBfP1Vb/FlTi/FH+WsJ5nRy6ZL3qyn/FushWzlB8SAAgZ4+/Jb0Tcfd4y3IEd4ktTv35zzSbjdw2QCL3DynzPu5DG8Tp2RL/uQbsizQwbEudWpxGW5JsGzJUdfbEo/wpl+Vt7N/iG1iXf6fJ7Ql6tfQXxfJfH5Jn9PMVE46ufIEAcoDNgCBn+23NTRU2dL0hPlabhDP0FFnqLQ6/u2IPsXzRYnHPoDLXqy39Q+36uFaD/2Dq9Htcalj4NxFJnEZlbvRdyc28jExkpnP06oZU+iti+mtgXGDClcci+ENHoAIAHeZvgOJsHe9HbeFzNMocpcmAPzWq1FtMzcRyv8P28g2k4qNyqwb4g9bc1uR0EdmV8/hasLY0PUMH3HZk9IVy6grwF/Y54x6qWp1M/Jwd8xci6697UeIbY7WX+BtZ7Liq5qanrjl1ADbGgg5BAgCd1jBPIpGW9AgxdJYY3rYLTBf09NB/kdm7OFNZ8VL9oPIZMDX2jtYjLZmJFACN+nMiIffwm46oe5fKQPtAv9bWgSTmZGH+pT7A3lTivtjB7+mQ8Ck3HVP5EQF0AroAoNP8dfjTtZFpxOYMsjRJ08oUlTZt4clPRMzN4UT6XH9gI5WB0XcnNhJ2jqCAaGthk4wX6hoj4rOwpCW1n4hzqbA5vAsEf82/+G2y8pcqyRyD4A/5gAoA5FXDS7JBKOL+P7FysfallvxUQfKnCrI8ww6fP3L7yGvUhY2+vfUITcIu1YvrUTC0uEDTKCTHT/hd9afURe1/vVQMqE4cpxf9cQ3rUxdoCGn0fzFkneMToci7d43iJAHkASoAkFf1u/GSEIVuNUx/1HrlEip9lSS8v2T4lqlz3QMbtElIXRQ7jr9KXZBTM42mAJsShYNKMAI36s6WvgNq2i5tnyGxZqBf6Z8Dxd4fNvZXNx8TeRPBH/IJCQDk3YghHB/548gES3a4CN2vrZdSX5ffaBVgFytyX/QV96IHGmVL6mJG39fcR5uJ/rS1MAVrPSed2ZC6GH/A6ug7kj+LiPMv7fM/RUTqqLRleM0OfkeE6qqPuXlUzVJs5AP5hgQAAvOrIRXvRCl8Mhm+XKsBK6jUidS4Vs5zOHPuA3NlWz9oUBcRiktPKkBQ04DUy1pT6sHza04bL32ebokfqUnedRpBd6Ku4TEhe9x6m0axJDMEBgkABOrnO/HS3s2hy41Yv8+1S/Sxi6VfG8ncE9rEO9TfB4G6gIzj1AgHf1+FJGSNV+rbQ//X6InNW7aGklcI8ZWaIJV8ZYfbF16iy8kxp044uuaJ2DBsbQ3B6TJvZOi6hq05iT0w+fXUOybFp3qGfsulPVUwrJFuayZ7WSQuO0x5VS4ZuT2vIugy2jdA2qDtp2TNJdrq35qoCwxIFfpYmG5piyRu/vvh6zQTQMBQAYCCOWS7irfS1eGxRugPVPrVAL2btJElOUPczPNTX5XdSrkaIC59ymQ+oYAxU8KETEmXpP3lfD/dKP5XMs7D+hoOKf2Nq7hN/7knROanE46uHIfgD4WCBAAKyl8zwB8gKGzPF+FZ+qWusHHJ1mIzfw+1Zg7XakBPKkGRHtVtYqWF2meMBUdL6Z9xujTHc8RmSOiYifFdxJWL9Ng6R7srKqjEaUL1MbHclDb2zJuPib5PAAWEBACKwvuw4nETDv1GI8qtGlRKfqtesbSxvlsuJZu5auqs1FZUYvyBYmJ4Pkt7azJI77skJReoRjdIj08/Sh5mPLldj6ffUYnT18kVodnk0WkVkcqL7xpV0+22q4biQwIARVFfz97Bg+kjqghfTFYuYJJFVPp6aiLwG2vorqmN6Z2pxLDluWLkMwqKv+mTpfdW96gsqUWARk/7pMq0Jc8kTy4TZj85K/mlqC3Lww7RH5p6VE674XBGyR+KAisBQkl4aK4M9Kx7n17cTtvbpX4C9984zcJ0QS2F/7bPEC6ZdQ7G3tl2qxUeQ4Hgt4XsabcdXf0YlYBDGyTSs61tK+OZ6/W12JNKn95NWc7Mf7n1qKobCaDIUAGAknDQjvy+Q6HfiXh305ougZJe9ETvXJ3ezz+3SOayh+Ykt5g3r0SSFid8p/4byIwFZu+JaFvVM1QCjrpjeW3P5sQhLKGJGlX3oBKnCaOrdf/5xOY0BH8oFUgAoGQc9GP+j2cqTheWC/Tq61TqRHrov0d75Ex4N5U+sKEEkoBbj4jMZpHr9WJ+tzlmni8Z5+obTuKib/Q0dmJiY4eqzzNM15DYwVT6lcxVluzfHEcOW2+T6D8JoESgCwBKzowZEm2pywzOePYyZvMT6gKYab5+ujFD4fvqi9wlcMy9sqFJJa7WiwdTfpYGXm6Yf33rUZVFb/0fe2diLxb6q564dhSSSip9CbY8OhVK/uuuUb2wlgSUFCQAULIenRXfMOk4x2m9/SiNsP2p9CU0EZiqb6rrDtoxPEf7ei0Vib81MLlyMguP7Wig1MeR0vL6GyJ06QZHVT4UK+Lj8TfxccSMNGRO0dJLF9irgZPM8hp7fE7/UHRWDJv4QAlCAgAlrbFRwkuMt7/17AVCvHXpL+rSPj7gHcPmnMy6zvT6AZygIjn6dukdMskT9WK9rFkGN+u9DTRxaBVDzxsrsVuPqZpNRXTc3xOb2jSdTZZ+o8lMyS/NrEng53o/G/QYuPzWUZULCaBEIQGALmHK7PRgbY2epEfsb6m0lxFux8TN2u97jeHIPSOH8AdURNpnPlQTgIM1gdqXRDal758mt0ID2Czy7GQnRI/dXMT56aM1+eM3U/vofT9T7/de1AXoCfV1NvZaU139ADbxgVKHBAC6jCmvysbkuaM1GBwrwe57ny8JYvMIi73i4CHhxqJ1CYjwUdNW1EQ+j/7YkuNXUQaR8Gb6nTXb+jKt0qRqsX59viYJbxn23pJMzXsTxnB+BxLm4OSJK3vGpeL3enGU3rfB1AVoq386kbmSt4s+O2FI8Z47gGwhAYAuQ1uCPGku1YUk80u9erJ+bEOlL6k14dfI8hWH7BSaTEV2aINU9m1r60FeqCbjuO3ldCOSdshpoUTlyn7LKR6LFa+v33f8xNb+1po/WpLjNCGp45I/T2l/P8kUz9pxtx9b8wYBdBFIAKBLevg12cDNuDdpkDiA8zPSPXDaQrwoVBu5asQW1KrVgJJe56AYRo+XKo60/USsuUGvDqSSxx6TfdU4FFtRVfXkpHruCvtaAPwXEgDosl5aJJWffuZeoC3YX8qagFHq61q4mgZMcdjesgFFXxiCMvF/jf2bbGDdxKF6Qjqva3TvsCZx9jl2+KJbjyjuIEmAjkICAF3ao+9JRWq16w8QO1Vb2MO6wABBy0wfCtlb3HUrbinmLIFSEIuJWfKD+I5GnDM1OfqZdvPUUelbLMy3MZuGCaMq3iGALgoJAHR5/gp8JpMZZNJ0nB7Rx1JXwLxcA96DVenwefvtxk3UTY25PfETfc2u0OTNH+hX8rM7/P0QSOSvoVTltJuOpzZ05UBXhgQAysqUOenRGkxiemj3oxzmvReJ1WDytufY4+pC0Vf23S7wrXxLQkODOE+4bX1MyjmZPTpRuAvM7Sfyl0B+gcOVh936e15GAGUAewFAWXl9SPh2JnOYJgFT9axd9HXr18JoJWBQSJw7Eyl7xFNvyrpU5vwd/J5oTe5lkuZm7a75Y6kHf/aTNKL3mWRc1erKAxH8oZygAgBl6aG5yYHWOidoC/sIYepFpY5ptcaaSQ5XXObvjEhlyA/+vVuT9ZqcnaSF8+21dh6i0uYP2pyrZf4rJZN8csKY3iWz7TNAPiABgLL1ZKP0aLXpA8WYcZoIbEClz9U35AuWzE0/GOI8NITLZ5aAv5Z/RJwzNBk7Wlv+vakrYL5Xg/+f1/uo4oNir40AEAQkAFDWZsyQ0Oqe7k6eJ1dpq3MX6ho+0t6BP7v9nX+UwyyB0eOTm3FYrheh3bVF3YNKHBOnNEm5yHG8icVcChkgaEgAoFt4ZLb0z3D6VG1d/0aD0IbUFQhPIQ79yR1Cb9cze9TFHN8gNW5r8td68WytwGxGXQI/K2Sv3qe26pH6+q73nAPkAgkAdBv+dMFwIjNG+55P1RbextQVCD/Hhi7uWRl6adigrrO5zNiJiY3Fo8PFyGn6XPekksdxwzJVyLl4/FEV8wmgG0ACAN3OQ7Myw/ypdyTmQOKS317YXzjoY32r3ktO6KqR2/MqKmGHNojTqyX5EyY5SYj36wrbN2uC8jEZuokyleMnjGEM9INuAwkAdEvTX5R+8Qr3ZCtyvL4JSr5fWq3SSsC/Mm74T/U78wIqQUdOlGhEkof7/eeaAPQr9VH+2tfvCsurYcunS13LKzfX98P2vdCtIAGAbm3y7MxezHKlZdqWS38ZYX9LxIXMzp8qK51H9tu6NFYQjM2Q0LJF6R96nneeWPotdQVMTZoA3Jiuid44sd5flRGg+0ECAN3e1FdkK89N/5nZDNMIW/JT1PRN2ywkN0QkcufPf0yaEBRvipq/gx+FUntoEnWOiOxJJb76onaneCT8H33+bkubylvvGsVJAuimkABAt6eBi6fOTW1qhX9n2Byr19ejUn9vMLWylekmxOMO2iHSSEVwSoNUJppTR1tj/bn921LJryzqb9crz2u159bVNZXTsH0vdHdIAAC+0DBPapy4tzeRd4GWh4dQ6fOnqb0tRv70yx0rplABndKwundba+RmPYHs30V28Evp2e5mw3z959XRRZMwxQ8ACQDAV/kb1ZiBme2NlVPbZwmQVFOJv0+0C+AzLWNMcqx39YidK793gKBf7Rh2F1V82/f6VlPm+wKjf9sz7qGqVV58L2PpFG3w/0S/WuLjJvzHIwuY5IoqcR+45pge3XbnRYBvQgIA8C2mNUqVtakjLfHxGmG3pNLfWTCj9/MhFrqp55DQC8OY3S+/cehNUtPcnOqf8WxvcmxP48oW+rPtj0eE+vuftW9cPLLLHTZLtY6vn2VJIl3z8czY/609cOLE1JZp6x6m1ZFjhdbcrpRpYtSsScuTISOX9Tuyam6MsZwvwFchAQD4DjNmSHR1nbuXWDpdSIZTFyBM72swv/yND8LTX3g3uZFn3B1YZHsmZ0t9DAP1R/yNkb4vmUlq4PxEf9O7IvZtJvNKxnr/HjSgss713NM0+B/QNZbzpc81A7jesXzfzcdEy3JzJYDOQgIAsBb+zoKemDNJ6Hd6taQXtnG1jfvup96y2e/bT1pTVKdBfz19k1dSB/hb4Yq//oDQR9WVXLtOLW8Sdkq+EuLTgM+j0ibaiFH+AN8NCQBAFh56R2qlzTvAWhvTq1tSCdEyN6W14L/oc6G3Fnu0ooUo5Ypf3s8brSpQSPsGqiuYelQRhUMld+qwWrloteI9bIivXe+oqldQ8gf4fkgAAHIw5dXMUO0sP02j635UIivdLVu9JvC/t9RSpgBj26Nhoh6VTNVaCzGmZE4h2vXBd1Zy9JZrR5X2cskApQIJAECO/J0FU8b1N7n5rba/16Mi8evzftB/baFHy1vy2NzPgh/367RjoUeV0WoAFZUWJp71iP/K20WfnTCEMwQAWUECANABU16Vnp6X+bUROl6vbkMFltYS/3ufCc39wKPmZGGD/5f8boEa7RLoWU1UES7GqYTjJPYRDf5X3nFM1WwCgJwgAQDooEdnSV3KcXewIpdqMPQXDipIW9jzhN5cZOmVhZbi6eIE/y/5lYDKCFPfOqZQQYcHymqtwNxoperW24/lxQQAOUMCANBJLy2SyqVL0+fp2+lwvTqAAlwS17NE8xZbevFdt/1yqYhq6tO3BwdeCWDihKY8z3shueCOI9DqB+gMJAAAedAwTyKRlvQIMXSWGN6WAthZ8Ms+/2fmlVbw/1KVdgf0C7YS0CQkD+ofuPK2I6LvEgB0ChIAgDzxlxF2fpjZgTN0rNYAjsh3EvD+Z5Zeelf7/BPFLft/F39MQG2UqU8tk8lvDUQfML9FIhNCjn3gpiOrP2Pm0nwSALoQJAAAeRQTMdu8SgOMTf/OWj5Pg2JeFg5qSQo9/ZZLi5tKO+45ekZZRxOA2kpuTwjyQ14XjhwfToTeuPmE/1uaGAA6BwkAQECmzk3sKdZcJ8xbaRu2oqO/J+MKzVmwZrqf7QLt3gp/PIB2BUQjnTq9iKYQbdrx8Y/xR1ePJgDIuxLfvxug6zp4x8rntRV8hEbtRzXXbqYO8uf4L1phOx38jWYhYYfSkTB94jjUqPdt5pcfhmm+YVmlnzu9lFDKJWpLaeju4DgFTRtc/WeR/oYzxE2dQQAQCFQAAAL2YKOsZyTz/4T4NG3YbpjLbf2V/Z5/x6X5Szo+6s9/k1eEqTkSMv+qjNCcvtXmHa5wX73usJrPvvyZX17ftn0mQ9tnXN5cU419XY8GieYL1EGONi3W72X8v9uBO2zvN+RM+Lwm+sKkek4TAAQCCQBAAfizBEItyZ3E8F+ZzV7Z3m5VXOj+lzOdWuK3dzW/5ll72Xo9nRdvPqpq0ff97JGxBdGWmnU2Tlizf8byxZ4nHdpIyNeziqlPXfanGC35p0js1Y4j1988qmYpAUCgkAAAFNADjaktWfgELbWP0hZ29dp+/t/veTRnQe7R339ja5m/rXclX1nXw7lnwpHRD3K5/dCJEq1d1bpbOm2ucT3ZUjowo8FfJGjjviaLGQGc1Fb/O5oAjFsvU/lwbAzHCQAChwQAoMD8akA4kTlOg+oxenXr7/o5Dbx013MuJTO5d/5rX39bj0q6ZdM+7iXjfttzJXXQiGviuyfTdLHn2j30XuQ8w99fF6Cu6vtOM5xmlscs29hto2peIwAoGCQAAEUyZXbip8Kh44nkAL36P9MF/Sl/Uxtz39tGW97pvj3MLRvUepdc+fvaZdRJI65qGZbM8L2uR+tTjvy9Avr35G8/0wh9TMy3eLXRCXfUcxMBQEFhFgBAkWQWRmdyKHSasJmo5e8V3/z+J00dG/hXG+VPe0bNLfkI/r5pp9XOqDAyjjogY4Uy3rdUMJjf1HrCOVSbuAXBH6A4kAAAFEl9PXsjt+eFXqVzppbA/6hR8WuB8NPVHUsA+vagCbccHf0P5VFL35rbImHKOaHwvDXTAr/kT/FjpsleyBxWsW7lgxPqe68mACgKdAEAlIhp/5ZNPHavE6bdVyds78dfd2l5c279/71refEDJ1UPoAAccFnrqLTHt1uRrBsO/gDAnpXsrw6oN6NFHJJLIs1Vf7vhJE4RABRVQbYvBYC1G7EzL3h0lhwfN+kTW+IyyvW4b/uCeDmIsEyioBhvvhGz0nq8TrY3ES1iuJb8TYtf1qsTxh9ZfR8BQElAFwBACTlgF15sqyKXL1xh70tkbEsutw0ZklaXn6aAVJiKlSHjvJHLbfz6RcqV/7jEF62sq3yAAKBkIAEAKDH1W3PT/MV2btI1OS0fXBHmVMQxHV5yeG1CPSpWaIt+LuUo7dKSpZ97b2NVP4DSggQAoASlLW1I1tbkchvtb7dhhwLbLmjSMdyUtvIOAUBZQAIAUIosJdn/t4T4ywQbIzklJQBQupAAAJQgw7RMmHJaEleETMYLbmbP6uo+dWHmzQkAygISAIASJGz94O/mcptkRiKuZ7MeoZ8rNyq99dNgypElWR2PV68gACgpSAAAShE7S1gokctNXI9MTaUZQQGxaertkWxBOWIxiZkxzimZAYDgIQEAKEEepZdr6GyjHMUT9sCzGqQHBUGcn2dcyqnCoP0RTczyJgFAyUECAFCCZp7Ta6EwfUw5WhWXPp+vjJ9IeTZ6vFR5Lh1GORKiZj3N5Pw4ACB4SAAASpWlV6kDPmulI0+7N7UV5dGS1raLMp5sTDnyNzkKscE2vwAlCAkAQIliYydTB8STMvDdz9wz/nDv53WUByOva/l1OkXHdGSBARF5e9dUxYcEACUHmwEBlLC9L2l9Tevo21GOIiHyqiuooW8vc0b/31d+GmPOeU2BA2NSRdWJY5KunO1ZWY86wGE+6Mlzq6cRAJQcbAYEUMqEJ+k/OScAaZcc/VTvrpA29/a2G/RyTmv4H3p9S99kKn5I0qVTOxr81YpMZfo5AoCShAoAQAnb5/LkD63rPiVCG1EH+H18kQjNWafO3FcXde+56Yi6z9d2m0OuahvRlqHfW5HhnqVOzCiQi545rzZGAFCSUAEAKGFi48tEwo9orn4cdYBf909neMflq2TgaseMPPr2+NzaME269oiql7/6c/tfLxUVNnFsOu0NbcnwdtbazTTp6HgDgXmxJftPAoCShQoAQIkb+te2IQ7bGzQe70J5EnLI6xE18aRrP065FHEthZm4j6YclSLidOrUwJRhoSu99av/PHMUJwkAShIqAAAlrtatmt8WaXuQhLfWAJ2XzXhcj5zP22ytXhz05dfkvxsJdqpdICwyS3/HPxH8AUobpgEClLiHYxy3jvmnxmV/QF1pL6nL9Bmxc33vH1bPIwAoaUgAALqAmWdVLTaunK0N7FKeU5/S0v/EqnTlo5Pq2SMAKGlIAAC6iCcvqH6L2TlPm9klt7MeE6f1n4ZQpXelX7EgACh5SAAAughmFr91zUxaCaCSSQL84C8iT2nr/4zpp/ZoIgDoEjALAKCLGXqT1JiVrUdqNeAPQvaHVMT3cXvLX+xzIcunT7+g+g3NUjqyYjAAFAEqAABdzMwTuNWEau4hhy4kssXcaU9b/vZvVoP/rrb6TQR/gK4FFQCALmrXq6Wytq11V8/ha0VoGyooTpDIdSFXrtmNalbEYrnvNQAAxYUEAKCL2/+Slr5JobEsfCgzbaHN8AgFww/yzVr2f9qwveHJc2ufJQDospAAAJSBoTEJkdO6hwmZ/6ct8wOog3sHfBcN+nH95xlhO906/MDMM2uWEgB0aUgAAMqIJgJRDrftbqzsJYb21sD9485UBLSi8KmeJJ4Xdqbp5eefOruymGMOACCPkAAAlBsRHnrRqh4UcfqHrLOFZW8vYrO3dhH8SEiySQY+EaG39OTwmCHbmAg7H754VvUnBABlBQkAQDex/x+kItOvdVNxzBaaCGzc/kWRnu2fWZLsOe8wu0sNhZeko26ipbU23nghJRij+wEAAAAAAAAAAAAAAAAAAAAAAAAAAAAAAAAAAAAAAAAAAAAAAAAAAAAAAAAAAAAAAAAAAAAAAAAAAAAAAAAAAAAAAAAAAAAAAAAAAAAAAAAAAAAAAAAAAAAAAAAAAAAAAAAAAAAAAAAAAAAAAAAAAAAAAAAAAAAAAAAAAAAAAAAAAAAAAAAAAAAAAAAAAAAAAAAAAAAAAAAAAAAAAAAAAAAAAAAAAAAAAAAAAAAAAAAAAAAAAAAAAAAAAAAAAAAAAAAAAAAAAAAAAAAAAAAAAAAAAAAAAAAAAAAAAAAAAAAAAAAAAAAAAAAAAAAAAAAAAAAAAAAAAAAAAAAAAAAAAAAAAAAAAAAAAAAAAAAAAAAAAAAAAAAAAAAAAAAAAAAAAAAAAAAAAAAAAAAAAAAAAAAAAAAAAAAAAAAAAAAAAAAAAAAAAAAAAAAAAAAAAAAAAAAAAAAAAAAAAAAAAAAAAAAAAAAAAAAAAAAAAAAAAAAAAAAAAAAAAAAAACC//j+iReetk2HwtgAAAABJRU5ErkJggg==;" vertex="1" parent="1">
          <mxGeometry x="934" y="125" width="112" height="112" as="geometry" />
        </mxCell>
        <mxCell id="KWvplseUJ8ZIvvT5c59l-16" value="&lt;span style=&quot;font-size: 15px;&quot;&gt;Os textos armazenados serão enviados para o &lt;b&gt;modelo Gemini&lt;/b&gt;, que receberá a tarefa de &lt;b&gt;extrair as notas de NPS &lt;/b&gt;e estrutura-las em um formato de JSON, também armazenado no &lt;b&gt;Google Cloud Storage&lt;/b&gt;&lt;/span&gt;" style="text;html=1;align=center;verticalAlign=middle;whiteSpace=wrap;rounded=0;" vertex="1" parent="1">
          <mxGeometry x="890" y="210" width="200" height="240" as="geometry" />
        </mxCell>
        <mxCell id="KWvplseUJ8ZIvvT5c59l-17" value="" style="shape=image;verticalLabelPosition=bottom;labelBackgroundColor=default;verticalAlign=top;aspect=fixed;imageAspect=0;image=https://estuary.dev/static/af2d249f72d99043c1683315b24d1c14/c0d5f/b5359d_image_12513891_300x300_15c289455c.png;" vertex="1" parent="1">
          <mxGeometry x="1022.5" y="190" width="40" height="40" as="geometry" />
        </mxCell>
        <mxCell id="KWvplseUJ8ZIvvT5c59l-21" style="edgeStyle=orthogonalEdgeStyle;rounded=0;orthogonalLoop=1;jettySize=auto;html=1;entryX=0.003;entryY=0.163;entryDx=0;entryDy=0;entryPerimeter=0;strokeColor=#FFFFFF;" edge="1" parent="1" source="KWvplseUJ8ZIvvT5c59l-3" target="i5Sq17mRc4E7U_H6DiuM-21">
          <mxGeometry relative="1" as="geometry" />
        </mxCell>
      </root>
    </mxGraphModel>
  </diagram>
</mxfile>
